<?xml version="1.0" encoding="iso-8859-1"?>
<!-- Generator: Adobe Illustrator 19.0.0, SVG Export Plug-In . SVG Version: 6.00 Build 0)  -->
<svg version="1.1" id="Capa_1" xmlns="http://www.w3.org/2000/svg" xmlns:xlink="http://www.w3.org/1999/xlink" x="0px" y="0px"
	 viewBox="0 0 511.999 511.999" style="enable-background:new 0 0 511.999 511.999;" xml:space="preserve">
<g>
	<g>
		<path d="M468.057,143.789v-12.717c0-24.967-20.24-45.207-45.207-45.207h-43.662c-4.199,0-7.604,3.405-7.604,7.604
			s3.405,7.604,7.604,7.604h43.662c16.568,0,29.999,13.431,29.999,29.999v12.256H94.62c-27.988,0-50.676,22.688-50.676,50.676
			v64.805c0,4.199,3.405,7.604,7.604,7.604c4.199,0,7.604-3.405,7.604-7.604v-64.805c0-19.589,15.879-35.468,35.468-35.468h366.705
			c19.589,0,35.468,15.88,35.468,35.468v262.467c0,9.579-7.765,17.343-17.343,17.343H55.437c2.421-4.342,3.716-9.253,3.716-14.369
			V318.322h-0.001v-24.026c0-4.199-3.405-7.604-7.604-7.604c-4.199,0-7.604,3.405-7.604,7.604v116.801h0.001v48.35
			c0,3.845-1.492,7.45-4.21,10.16c-2.649,2.649-6.15,4.137-9.883,4.206c-8.053,0.15-14.644-6.751-14.644-14.806V68.183
			c0-16.568,13.431-29.999,29.999-29.999h143.461c8.652,0,16.879,3.733,22.572,10.246l32.558,37.202
			c8.579,9.813,20.983,15.441,34.029,15.441h65.875c4.199,0,7.604-3.405,7.604-7.604s-3.405-7.604-7.604-7.604h-65.875
			c-8.659,0-16.889-3.733-22.583-10.246l-32.558-37.202c-8.578-9.813-20.978-15.441-34.019-15.441H45.206
			C20.24,22.977,0,43.217,0,68.183v391.262c0,16.334,13.242,29.576,29.576,29.576v0.001h449.872
			c17.978,0,32.551-14.574,32.551-32.551V194.004C512,168.346,492.827,147.094,468.057,143.789z"/>
	</g>
</g>
<g>
</g>
<g>
</g>
<g>
</g>
<g>
</g>
<g>
</g>
<g>
</g>
<g>
</g>
<g>
</g>
<g>
</g>
<g>
</g>
<g>
</g>
<g>
</g>
<g>
</g>
<g>
</g>
<g>
</g>
</svg>
