<?xml version="1.0" standalone="no"?>
<!DOCTYPE svg PUBLIC "-//W3C//DTD SVG 20010904//EN"
 "http://www.w3.org/TR/2001/REC-SVG-20010904/DTD/svg10.dtd">
<svg version="1.0" xmlns="http://www.w3.org/2000/svg"
 width="279.000000pt" height="280.000000pt" viewBox="0 0 279.000000 280.000000"
 preserveAspectRatio="xMidYMid meet">

<g transform="translate(0.000000,280.000000) scale(0.100000,-0.100000)"
fill="#000000" stroke="none">
<path d="M308 2781 c-79 -26 -136 -61 -190 -119 -54 -58 -82 -110 -103 -189
-22 -86 -22 -1790 0 -1876 21 -79 49 -131 103 -189 55 -59 111 -94 193 -119
58 -18 107 -19 954 -19 847 0 896 1 954 19 82 25 138 60 193 119 52 56 79 103
102 181 14 48 16 156 16 946 0 790 -2 898 -16 946 -23 78 -50 125 -102 181
-55 59 -111 94 -193 119 -58 18 -106 19 -957 18 -840 0 -901 -1 -954 -18z
m1864 -151 c63 -18 129 -70 162 -130 l31 -55 0 -910 0 -910 -31 -55 c-33 -60
-99 -112 -162 -130 -51 -14 -1763 -14 -1814 0 -63 18 -129 70 -162 130 l-31
55 0 910 0 910 31 55 c32 58 99 112 158 129 45 13 1771 14 1818 1z"/>
<path d="M546 1954 c-20 -20 -20 -68 0 -88 14 -14 93 -16 724 -16 779 0 740
-3 740 60 0 63 39 60 -740 60 -631 0 -710 -2 -724 -16z"/>
<path d="M546 1554 c-20 -20 -20 -68 0 -88 13 -14 50 -16 244 -16 251 0 260 2
260 60 0 58 -9 60 -260 60 -194 0 -231 -2 -244 -16z"/>
<path d="M1246 1554 c-20 -20 -20 -68 0 -88 13 -14 61 -16 374 -16 394 0 390
-1 390 60 0 61 4 60 -390 60 -313 0 -361 -2 -374 -16z"/>
<path d="M546 1154 c-20 -20 -20 -68 0 -88 13 -14 65 -16 419 -16 443 0 435
-1 435 60 0 61 8 60 -435 60 -354 0 -406 -2 -419 -16z"/>
<path d="M1546 1154 c-9 -8 -16 -28 -16 -44 0 -56 14 -60 210 -60 196 0 210 4
210 60 0 56 -14 60 -210 60 -149 0 -181 -3 -194 -16z"/>
<path d="M2672 2213 c-7 -3 -19 -18 -27 -33 -13 -25 -15 -152 -15 -907 0 -567
-4 -891 -10 -915 -18 -63 -70 -129 -130 -162 l-55 -31 -900 -5 c-495 -3 -901
-6 -902 -8 -1 -1 -11 -12 -23 -24 -34 -37 -25 -90 21 -113 24 -13 155 -15 907
-15 778 0 885 2 933 16 78 23 125 50 181 102 59 55 94 111 119 193 18 58 19
107 19 950 0 945 0 935 -45 953 -19 7 -54 7 -73 -1z"/>
</g>
</svg>
