<?xml version="1.0" encoding="iso-8859-1"?>
<!-- Generator: Adobe Illustrator 19.0.0, SVG Export Plug-In . SVG Version: 6.00 Build 0)  -->
<svg version="1.1" id="Layer_1" xmlns="http://www.w3.org/2000/svg" xmlns:xlink="http://www.w3.org/1999/xlink" x="0px" y="0px"
	 viewBox="0 0 512 512" style="enable-background:new 0 0 512 512;" xml:space="preserve">
<g>
	<g>
		<path d="M392.821,222.398H170.173l-20.589-56.569c-16.224-44.574,6.84-94.037,51.415-110.26
			c44.574-16.223,94.037,6.841,110.26,51.415l11.847,32.549c3.124,8.582,12.65,13.021,21.23,9.9l16.068-5.848
			c4.157-1.514,7.477-4.556,9.346-8.565c1.87-4.01,2.067-8.507,0.554-12.666l-10.578-29.065
			C335.59,22.358,261.079-15.861,190.053,6.268c-36.01,11.219-65.032,35.955-81.721,69.65
			c-16.698,33.715-18.809,71.747-5.946,107.089l14.382,39.514c-12.688,1.249-22.634,11.978-22.634,24.99v102.59
			c0,89.271,72.627,161.9,161.899,161.9s161.9-72.627,161.9-161.9v-102.59C417.934,233.663,406.668,222.398,392.821,222.398z
			 M122.697,83.033c14.725-29.731,40.339-51.558,72.125-61.46c62.686-19.532,128.465,14.273,149.753,76.955
			c0.018,0.055,0.037,0.11,0.058,0.164l10.607,29.145c0.019,0.051,0.076,0.207-0.018,0.408c-0.093,0.201-0.25,0.258-0.301,0.276
			l-16.068,5.848c-0.277,0.1-0.583-0.043-0.685-0.318l-11.846-32.549c-9.324-25.616-28.065-46.068-52.771-57.589
			c-24.707-11.52-52.42-12.731-78.035-3.407c-25.616,9.324-46.068,28.065-57.589,52.771c-11.521,24.706-12.731,52.419-3.407,78.034
			l18.593,51.086h-19.333l-16.332-44.872C106.099,146.339,107.963,112.781,122.697,83.033z M401.904,350.101
			c0,80.432-65.437,145.87-145.87,145.87s-145.87-65.436-145.87-145.87v-102.59c0-5.009,4.075-9.083,9.083-9.083h273.573
			c5.009,0,9.083,4.075,9.083,9.083V350.101z"/>
	</g>
</g>
<g>
	<g>
		<path d="M256.034,307.889c-18.561,0-33.662,15.101-33.662,33.662c0,15.8,10.944,29.084,25.647,32.691v27.153
			c0,4.426,3.589,8.015,8.015,8.015s8.015-3.589,8.015-8.015v-27.153c14.703-3.606,25.647-16.891,25.647-32.691
			C289.696,322.99,274.595,307.889,256.034,307.889z M256.034,359.184c-9.723,0-17.633-7.91-17.633-17.633
			c0-9.722,7.91-17.633,17.633-17.633s17.633,7.91,17.633,17.633C273.667,351.274,265.757,359.184,256.034,359.184z"/>
	</g>
</g>
<g>
	<g>
		<path d="M208.208,451.005c-31.038-14.774-53.941-43.548-61.266-76.972c-0.948-4.324-5.226-7.06-9.545-6.113
			c-4.324,0.948-7.061,5.221-6.113,9.545c8.378,38.224,34.559,71.127,70.035,88.014c1.112,0.529,2.285,0.78,3.439,0.78
			c2.995,0,5.869-1.687,7.242-4.572C213.903,457.69,212.205,452.908,208.208,451.005z"/>
	</g>
</g>
<g>
	<g>
		<path d="M375.722,324.987c-4.426,0-8.015,3.589-8.015,8.015v17.098c0,20.279-5.515,40.147-15.948,57.46
			c-2.285,3.79-1.063,8.717,2.728,11.002c1.294,0.78,2.721,1.151,4.129,1.151c2.718,0,5.368-1.382,6.872-3.879
			c11.938-19.809,18.248-42.539,18.248-65.733v-17.098C383.737,328.576,380.149,324.987,375.722,324.987z"/>
	</g>
</g>
<g>
	<g>
		<path d="M375.722,273.689c-4.426,0-8.015,3.589-8.015,8.015v17.105c0,4.426,3.589,8.015,8.015,8.015s8.015-3.589,8.015-8.015
			v-17.105C383.737,277.278,380.149,273.689,375.722,273.689z"/>
	</g>
</g>
<g>
</g>
<g>
</g>
<g>
</g>
<g>
</g>
<g>
</g>
<g>
</g>
<g>
</g>
<g>
</g>
<g>
</g>
<g>
</g>
<g>
</g>
<g>
</g>
<g>
</g>
<g>
</g>
<g>
</g>
</svg>
