<svg height="436pt" viewBox="-64 0 436 436" width="436pt" xmlns="http://www.w3.org/2000/svg"><path d="m176.535156 201.707031c5.523438 0 10-4.476562 10-10v-114.152343c0-5.523438-4.476562-10-10-10-5.523437 0-10 4.476562-10 10v114.152343c0 5.523438 4.476563 10 10 10zm0 0"/><path d="m298.480469 240.332031h-5.492188l-22.167969-44.949219c-7.320312-14.890624-11.136718-31.257812-11.160156-47.851562v-90.257812c-.035156-31.617188-25.65625-57.2382818-57.269531-57.273438h-90.726563c-31.613281.0351562-57.234374 25.65625-57.269531 57.273438v90.257812c-.019531 16.59375-3.835937 32.960938-11.15625 47.851562l-22.167969 44.949219h-11.070312c-5.523438 0-10 4.476563-10 10 0 5.523438 4.476562 10 10 10h134.238281v165.667969c0 5.523438 4.480469 10 10 10 5.523438 0 10-4.476562 10-10v-165.667969h134.242188c5.523437 0 10-4.476562 10-10 0-5.523437-4.476563-10-10-10zm-237.308594-36.101562c8.675781-17.644531 13.195313-37.039063 13.222656-56.699219v-90.257812c.023438-20.574219 16.695313-37.25 37.269531-37.273438h90.726563c20.574219.023438 37.246094 16.699219 37.269531 37.273438v90.257812c.023438 19.660156 4.546875 39.054688 13.222656 56.699219l17.804688 36.101562h-227.320312zm0 0"/></svg>