<svg height="485pt" viewBox="0 -61 485.9944 485" width="485pt" xmlns="http://www.w3.org/2000/svg"><path d="m483.898438 4.363281c-1.351563-1.746093-3.242188-2.992187-5.378907-3.546875-.320312-.082031-.644531-.148437-.96875-.199218h-.015625c-1.4375-.226563-2.902344-.132813-4.300781.269531l-465.816406 124.40625c-4.132813 1.105469-7.105469 4.71875-7.3945315 8.988281s2.1718745 8.25 6.1171875 9.898438l140.714844 58.8125 24.742187 152.886718c.597656 3.683594 3.195313 6.726563 6.734375 7.898438 3.542969 1.167968 7.441407.269531 10.117188-2.332032l81.988281-79.855468 109.371094 74.132812c2.675781 1.816406 6.066406 2.222656 9.097656 1.09375s5.332031-3.652344 6.171875-6.773437l90.550781-336.855469c.082032-.289062.148438-.582031.199219-.882812.453125-2.460938-.03125-5-1.359375-7.121094-.171875-.28125-.367188-.554688-.570312-.820313zm-78.101563 35.230469-250.679687 145.175781-114.1875-47.726562zm-238.988281 161.519531 218.769531-126.699219-176.410156 150.34375c-1.511719 1.292969-2.601563 3.003907-3.132813 4.914063h-.011718l-21.925782 78.214844zm34.335937 120.050781 20.390625-72.726562 32 21.695312zm178.261719 10.125-147.269531-99.828124 225.847656-192.472657zm0 0"/></svg>