<?xml version="1.0" encoding="iso-8859-1"?>
<!-- Generator: Adobe Illustrator 17.1.0, SVG Export Plug-In . SVG Version: 6.00 Build 0)  -->
<!DOCTYPE svg PUBLIC "-//W3C//DTD SVG 1.1//EN" "http://www.w3.org/Graphics/SVG/1.1/DTD/svg11.dtd">
<svg version="1.1" id="Capa_1" xmlns="http://www.w3.org/2000/svg" xmlns:xlink="http://www.w3.org/1999/xlink" x="0px" y="0px"
	 viewBox="0 0 508.817 508.817" style="enable-background:new 0 0 508.817 508.817;" xml:space="preserve">
<g>
	<path d="M504.954,180.169c-2.942-3.343-7.183-5.261-11.636-5.261H285.909v-136.5c0-17.369-14.131-31.5-31.5-31.5
		s-31.5,14.131-31.5,31.5v136.5H15.5c-4.453,0-8.694,1.917-11.636,5.261c-2.942,3.343-4.304,7.793-3.738,12.21l35.263,275.052
		c2.52,19.655,19.363,34.477,39.179,34.477h359.682c19.816,0,36.66-14.822,39.179-34.477l35.263-275.052
		C509.258,187.963,507.895,183.512,504.954,180.169z M237.909,38.409c0-9.098,7.402-16.5,16.5-16.5s16.5,7.402,16.5,16.5v160
		c0,9.098-7.402,16.5-16.5,16.5s-16.5-7.402-16.5-16.5V38.409z M493.813,190.472l-35.263,275.052
		c-1.563,12.191-12.01,21.384-24.301,21.384H74.568c-12.291,0-22.738-9.193-24.301-21.384L15.004,190.472
		c-0.008-0.061-0.028-0.224,0.121-0.394c0.149-0.169,0.313-0.169,0.375-0.169h207.409v8.5c0,17.369,14.131,31.5,31.5,31.5
		s31.5-14.131,31.5-31.5v-8.5h207.409c0.062,0,0.226,0,0.375,0.169C493.842,190.248,493.821,190.411,493.813,190.472z"/>
	<path d="M254.409,246.909c-17.369,0-31.5,14.131-31.5,31.5v144c0,17.369,14.131,31.5,31.5,31.5s31.5-14.131,31.5-31.5v-144
		C285.909,261.039,271.778,246.909,254.409,246.909z M270.909,422.409c0,9.098-7.402,16.5-16.5,16.5s-16.5-7.402-16.5-16.5v-144
		c0-9.098,7.402-16.5,16.5-16.5s16.5,7.402,16.5,16.5V422.409z"/>
	<path d="M366.409,246.909c-17.369,0-31.5,14.131-31.5,31.5v144c0,17.369,14.131,31.5,31.5,31.5s31.5-14.131,31.5-31.5v-144
		C397.909,261.039,383.778,246.909,366.409,246.909z M382.909,422.409c0,9.098-7.402,16.5-16.5,16.5s-16.5-7.402-16.5-16.5v-144
		c0-9.098,7.402-16.5,16.5-16.5s16.5,7.402,16.5,16.5V422.409z"/>
	<path d="M142.409,246.909c-17.369,0-31.5,14.131-31.5,31.5v144c0,17.369,14.131,31.5,31.5,31.5s31.5-14.131,31.5-31.5v-144
		C173.909,261.039,159.778,246.909,142.409,246.909z M158.909,422.409c0,9.098-7.402,16.5-16.5,16.5s-16.5-7.402-16.5-16.5v-144
		c0-9.098,7.402-16.5,16.5-16.5s16.5,7.402,16.5,16.5V422.409z"/>
</g>
<g>
</g>
<g>
</g>
<g>
</g>
<g>
</g>
<g>
</g>
<g>
</g>
<g>
</g>
<g>
</g>
<g>
</g>
<g>
</g>
<g>
</g>
<g>
</g>
<g>
</g>
<g>
</g>
<g>
</g>
</svg>
