<?xml version="1.0" encoding="iso-8859-1"?>
<!-- Generator: Adobe Illustrator 17.1.0, SVG Export Plug-In . SVG Version: 6.00 Build 0)  -->
<!DOCTYPE svg PUBLIC "-//W3C//DTD SVG 1.1//EN" "http://www.w3.org/Graphics/SVG/1.1/DTD/svg11.dtd">
<svg version="1.1" id="Capa_1" xmlns="http://www.w3.org/2000/svg" xmlns:xlink="http://www.w3.org/1999/xlink" x="0px" y="0px"
	 viewBox="0 0 511 511" style="enable-background:new 0 0 511 511;" xml:space="preserve">
<g>
	<path d="M503.5,408h-0.003c-22.244,0-40.34-18.096-40.34-40.34V220.162c0-56.916-23.471-112.588-64.395-152.744
		C358.675,28.084,306.38,7.011,251.488,8.036c-54.623,1.036-105.811,23.093-144.136,62.107
		c-38.375,39.066-59.509,90.743-59.509,145.511V367.66C47.843,389.903,29.747,408,7.5,408c-0.024,0-0.048,0-0.073,0
		C3.318,408.039,0,411.382,0,415.5c0,4.142,3.358,7.5,7.5,7.5h160.825c3.817,44.75,41.454,80,87.175,80s83.358-35.25,87.175-80
		H503.5c0.024,0,0.048,0,0.073,0c4.109-0.039,7.427-3.382,7.427-7.5C511,411.357,507.642,408,503.5,408z M255.5,488
		c-37.444,0-68.347-28.534-72.113-65h111.905c-3.529,18.759-20.024,33-39.792,33c-4.142,0-7.5,3.358-7.5,7.5s3.358,7.5,7.5,7.5
		c28.058,0,51.305-20.933,54.979-48h17.133C323.847,459.465,292.944,488,255.5,488z M45.35,408
		c10.762-10.103,17.493-24.449,17.493-40.34V215.655c0-50.812,19.607-98.756,55.21-135c35.556-36.197,83.045-56.661,133.719-57.622
		c50.86-0.958,99.296,18.602,136.484,55.092c38.068,37.352,59.9,89.123,59.9,142.037V367.66c0,15.891,6.731,30.237,17.493,40.34
		H45.35z"/>
	<path d="M379.598,91.402c-22.759-22.76-51.225-38.804-82.319-46.398c-4.024-0.983-8.083,1.482-9.065,5.506
		c-0.983,4.024,1.482,8.083,5.506,9.065c28.426,6.943,54.454,21.616,75.271,42.434c20.817,20.817,35.49,46.846,42.432,75.272
		c0.836,3.426,3.903,5.723,7.28,5.723c0.589,0,1.188-0.07,1.785-0.216c4.024-0.982,6.489-5.041,5.506-9.065
		C418.401,142.627,402.357,114.162,379.598,91.402z"/>
</g>
<g>
</g>
<g>
</g>
<g>
</g>
<g>
</g>
<g>
</g>
<g>
</g>
<g>
</g>
<g>
</g>
<g>
</g>
<g>
</g>
<g>
</g>
<g>
</g>
<g>
</g>
<g>
</g>
<g>
</g>
</svg>
