<?xml version="1.0" encoding="iso-8859-1"?>
<!-- Generator: Adobe Illustrator 17.1.0, SVG Export Plug-In . SVG Version: 6.00 Build 0)  -->
<!DOCTYPE svg PUBLIC "-//W3C//DTD SVG 1.1//EN" "http://www.w3.org/Graphics/SVG/1.1/DTD/svg11.dtd">
<svg version="1.1" id="Capa_1" xmlns="http://www.w3.org/2000/svg" xmlns:xlink="http://www.w3.org/1999/xlink" x="0px" y="0px"
	 viewBox="0 0 490.136 490.136" style="enable-background:new 0 0 490.136 490.136;" xml:space="preserve">
<path d="M243.424,245.068l116.854-116.854c2.995-2.994,4.606-6.975,4.539-11.209s-1.807-8.162-4.897-11.06L251.419,4.226
	c-4.579-4.293-11.003-5.41-16.763-2.915s-9.338,7.945-9.338,14.223v181.534c0,4.143,3.358,7.5,7.5,7.5s7.5-3.357,7.5-7.5V15.534
	c0-0.169,0-0.328,0.301-0.459c0.302-0.132,0.418-0.021,0.542,0.095l108.5,101.718c0.038,0.036,0.155,0.146,0.159,0.358
	c0.003,0.211-0.105,0.319-0.146,0.36L232.818,234.461l-94.697-94.697c-2.929-2.928-7.678-2.928-10.606,0
	c-2.929,2.93-2.929,7.678,0,10.607l94.696,94.696l-94.696,94.697c-2.929,2.93-2.929,7.678,0,10.607
	c1.464,1.464,3.384,2.196,5.303,2.196s3.839-0.732,5.303-2.196l94.697-94.697l116.854,116.854c0.037,0.037,0.15,0.15,0.147,0.362
	s-0.116,0.316-0.158,0.356L241.16,474.966c-0.124,0.115-0.239,0.224-0.542,0.095c-0.301-0.131-0.301-0.29-0.301-0.459V293.068
	c0-4.143-3.358-7.5-7.5-7.5s-7.5,3.357-7.5,7.5v181.534c0,6.277,3.578,11.728,9.338,14.223c2.033,0.881,4.148,1.312,6.236,1.312
	c3.828,0,7.564-1.448,10.527-4.227l108.501-101.72c3.089-2.896,4.829-6.822,4.897-11.057c0.068-4.234-1.543-8.216-4.538-11.212
	L243.424,245.068z"/>
<g>
</g>
<g>
</g>
<g>
</g>
<g>
</g>
<g>
</g>
<g>
</g>
<g>
</g>
<g>
</g>
<g>
</g>
<g>
</g>
<g>
</g>
<g>
</g>
<g>
</g>
<g>
</g>
<g>
</g>
</svg>
