<?xml version="1.0" encoding="iso-8859-1"?>
<!-- Generator: Adobe Illustrator 17.1.0, SVG Export Plug-In . SVG Version: 6.00 Build 0)  -->
<!DOCTYPE svg PUBLIC "-//W3C//DTD SVG 1.1//EN" "http://www.w3.org/Graphics/SVG/1.1/DTD/svg11.dtd">
<svg version="1.1" id="Capa_1" xmlns="http://www.w3.org/2000/svg" xmlns:xlink="http://www.w3.org/1999/xlink" x="0px" y="0px"
	 viewBox="0 0 511 511" style="enable-background:new 0 0 511 511;" xml:space="preserve">
<path d="M500.444,92.112c-37.382-24.121-80.679-36.436-125.199-35.575c-42.888,0.815-84.173,13.799-119.745,37.591
	c-35.572-23.792-76.857-36.775-119.745-37.591c-44.534-0.86-87.817,11.454-125.198,35.574C3.946,96.375,0,103.731,0,111.789v306.788
	c0,8.3,4.238,15.811,11.338,20.091c7.1,4.281,15.721,4.521,23.063,0.648c33.727-17.802,71.716-25.973,109.866-23.636
	c38.43,2.355,75.403,15.31,106.921,37.46c0.014,0.01,0.03,0.016,0.044,0.026c0.299,0.207,0.609,0.392,0.932,0.552
	c0.049,0.024,0.101,0.042,0.151,0.065c0.266,0.125,0.537,0.233,0.814,0.326c0.103,0.034,0.207,0.064,0.312,0.094
	c0.241,0.069,0.485,0.125,0.731,0.169c0.101,0.018,0.2,0.039,0.301,0.053c0.343,0.048,0.688,0.079,1.034,0.079
	c0.028,0,0.056-0.006,0.084-0.006c0.306-0.004,0.611-0.027,0.915-0.068c0.123-0.017,0.244-0.043,0.366-0.066
	c0.217-0.041,0.432-0.089,0.646-0.148c0.129-0.036,0.256-0.074,0.384-0.118c0.224-0.076,0.444-0.166,0.662-0.264
	c0.102-0.046,0.205-0.085,0.305-0.136c0.029-0.015,0.06-0.024,0.089-0.04c0.25-0.13,0.484-0.281,0.714-0.436
	c0.046-0.031,0.095-0.052,0.141-0.083c31.518-22.15,68.491-35.104,106.921-37.46c38.149-2.342,76.14,5.834,109.866,23.636
	c7.341,3.875,15.963,3.632,23.063-0.648S511,426.877,511,418.577V111.789C511,103.731,507.054,96.375,500.444,92.112z M496,418.577
	c0,4.317-2.855,6.505-4.083,7.245c-1.228,0.74-4.497,2.246-8.316,0.229c-36.161-19.086-76.893-27.851-117.786-25.342
	c-36.492,2.237-71.754,13.394-102.815,32.413V159.999c0-4.143-3.358-7.5-7.5-7.5s-7.5,3.357-7.5,7.5v273.113
	c-31.061-19.019-66.324-30.167-102.815-32.403c-40.895-2.505-81.625,6.256-117.786,25.342c-3.819,2.018-7.088,0.512-8.316-0.229
	c-1.228-0.74-4.083-2.928-4.083-7.245V111.789c0-2.896,1.413-5.605,3.688-7.073c34.868-22.497,75.257-33.974,116.781-33.182
	c40.34,0.768,79.162,13.068,112.531,35.617v20.846c0,4.143,3.358,7.5,7.5,7.5s7.5-3.357,7.5-7.5v-20.846
	c33.369-22.548,72.191-34.849,112.531-35.617c41.531-0.77,81.914,10.684,116.782,33.183c2.274,1.467,3.688,4.177,3.688,7.072
	V418.577z"/>
<g>
</g>
<g>
</g>
<g>
</g>
<g>
</g>
<g>
</g>
<g>
</g>
<g>
</g>
<g>
</g>
<g>
</g>
<g>
</g>
<g>
</g>
<g>
</g>
<g>
</g>
<g>
</g>
<g>
</g>
</svg>
