<?xml version="1.0" encoding="iso-8859-1"?>
<!-- Generator: Adobe Illustrator 17.1.0, SVG Export Plug-In . SVG Version: 6.00 Build 0)  -->
<!DOCTYPE svg PUBLIC "-//W3C//DTD SVG 1.1//EN" "http://www.w3.org/Graphics/SVG/1.1/DTD/svg11.dtd">
<svg version="1.1" id="Capa_1" xmlns="http://www.w3.org/2000/svg" xmlns:xlink="http://www.w3.org/1999/xlink" x="0px" y="0px"
	 viewBox="0 0 511 511" style="enable-background:new 0 0 511 511;" xml:space="preserve">
<g>
	<path d="M471.5,168H463v-16.5c0-21.78-17.72-39.5-39.5-39.5h-384C17.72,112,0,129.72,0,151.5v208C0,381.28,17.72,399,39.5,399h384
		c21.78,0,39.5-17.72,39.5-39.5V343h8.5c21.78,0,39.5-17.72,39.5-39.5v-96C511,185.72,493.28,168,471.5,168z M448,359.5
		c0,13.509-10.991,24.5-24.5,24.5h-384C25.991,384,15,373.009,15,359.5v-208c0-13.509,10.991-24.5,24.5-24.5h384
		c13.509,0,24.5,10.991,24.5,24.5v24v160V359.5z M496,303.5c0,13.509-10.991,24.5-24.5,24.5H463V183h8.5
		c13.509,0,24.5,10.991,24.5,24.5V303.5z"/>
	<path d="M348.381,297.806l-98.795-84.68c-4.652-3.987-10.999-4.873-16.564-2.313c-5.565,2.56-9.023,7.956-9.022,14.083
		l0.002,61.211c0,0.158,0,0.32-0.291,0.455c-0.293,0.134-0.416,0.027-0.535-0.075l-98.795-84.68
		c-3.145-2.696-7.88-2.333-10.575,0.813c-2.696,3.145-2.332,7.88,0.813,10.575l98.795,84.68c4.652,3.986,10.999,4.873,16.564,2.313
		c5.566-2.56,9.023-7.956,9.023-14.083l-0.002-61.211c0-0.157,0-0.32,0.291-0.454c0.291-0.136,0.414-0.027,0.534,0.075l98.795,84.68
		c1.414,1.212,3.15,1.806,4.877,1.806c2.114,0,4.214-0.889,5.698-2.619C351.89,305.236,351.526,300.501,348.381,297.806z"/>
</g>
<g>
</g>
<g>
</g>
<g>
</g>
<g>
</g>
<g>
</g>
<g>
</g>
<g>
</g>
<g>
</g>
<g>
</g>
<g>
</g>
<g>
</g>
<g>
</g>
<g>
</g>
<g>
</g>
<g>
</g>
</svg>
