<?xml version="1.0" encoding="iso-8859-1"?>
<!-- Generator: Adobe Illustrator 17.1.0, SVG Export Plug-In . SVG Version: 6.00 Build 0)  -->
<!DOCTYPE svg PUBLIC "-//W3C//DTD SVG 1.1//EN" "http://www.w3.org/Graphics/SVG/1.1/DTD/svg11.dtd">
<svg version="1.1" id="Capa_1" xmlns="http://www.w3.org/2000/svg" xmlns:xlink="http://www.w3.org/1999/xlink" x="0px" y="0px"
	 viewBox="0 0 459.753 459.753" style="enable-background:new 0 0 459.753 459.753;" xml:space="preserve">
<g>
	<path d="M434.792,51.959c-33.281-33.281-87.434-33.281-120.714,0L126.083,239.953c-0.207,0.207-0.402,0.426-0.583,0.655
		c-18.801,19.338-18.635,50.366,0.498,69.499c19.3,19.3,50.704,19.299,70.003,0l147.118-147.118c2.929-2.929,2.929-7.678,0-10.606
		c-2.929-2.929-7.678-2.929-10.606,0L185.395,299.501c-13.451,13.451-35.338,13.452-48.791,0c-13.451-13.452-13.451-35.339,0-48.791
		c0.197-0.196,0.382-0.404,0.555-0.62L324.684,62.565c27.433-27.433,72.069-27.433,99.501,0c27.26,27.26,27.429,71.51,0.512,98.984
		c-0.185,0.152-0.363,0.314-0.534,0.485l-224,224c-42.305,42.304-111.138,42.304-153.442,0
		c-20.493-20.493-31.779-47.74-31.779-76.721s11.286-56.228,31.779-76.721l104-104c2.929-2.929,2.929-7.678,0-10.606
		c-2.929-2.929-7.678-2.929-10.606,0l-104,104c-48.153,48.153-48.153,126.502,0,174.655c24.076,24.077,55.702,36.115,87.328,36.115
		s63.251-12.038,87.328-36.115l223.459-223.459c0.195-0.159,0.383-0.329,0.563-0.509C468.073,139.392,468.073,85.239,434.792,51.959
		z"/>
</g>
<g>
</g>
<g>
</g>
<g>
</g>
<g>
</g>
<g>
</g>
<g>
</g>
<g>
</g>
<g>
</g>
<g>
</g>
<g>
</g>
<g>
</g>
<g>
</g>
<g>
</g>
<g>
</g>
<g>
</g>
</svg>
