<?xml version="1.0" encoding="iso-8859-1"?>
<!-- Generator: Adobe Illustrator 17.1.0, SVG Export Plug-In . SVG Version: 6.00 Build 0)  -->
<!DOCTYPE svg PUBLIC "-//W3C//DTD SVG 1.1//EN" "http://www.w3.org/Graphics/SVG/1.1/DTD/svg11.dtd">
<svg version="1.1" id="Capa_1" xmlns="http://www.w3.org/2000/svg" xmlns:xlink="http://www.w3.org/1999/xlink" x="0px" y="0px"
	 viewBox="0 0 479 479" style="enable-background:new 0 0 479 479;" xml:space="preserve">
<g>
	<path d="M408.852,70.148C363.616,24.913,303.473,0,239.5,0S115.384,24.913,70.148,70.148C24.913,115.384,0,175.527,0,239.5
		s24.913,124.116,70.148,169.352C115.384,454.087,175.527,479,239.5,479s124.116-24.913,169.352-70.148
		C454.087,363.616,479,303.473,479,239.5S454.087,115.384,408.852,70.148z M398.246,398.246C355.843,440.648,299.466,464,239.5,464
		s-116.343-23.352-158.746-65.754C38.352,355.843,15,299.466,15,239.5S38.352,123.157,80.754,80.754
		C123.157,38.352,179.534,15,239.5,15s116.343,23.352,158.746,65.754C440.648,123.157,464,179.534,464,239.5
		S440.648,355.843,398.246,398.246z"/>
	<path d="M375.5,216h-72c-10.336,0-19.128,6.71-22.266,16h-11.144c-1.219-4.982-3.641-9.624-7.118-13.506
		c-4.269-4.768-9.863-8.073-15.973-9.574v-11.154c9.29-3.138,16-11.93,16-22.266v-88c0-12.958-10.542-23.5-23.5-23.5
		S216,74.542,216,87.5v88c0,10.336,6.71,19.128,16,22.266v11.144c-13.759,3.374-24,15.806-24,30.591c0,17.369,14.131,31.5,31.5,31.5
		c14.785,0,27.216-10.241,30.591-24h11.144c3.138,9.29,11.93,16,22.266,16h72c12.958,0,23.5-10.542,23.5-23.5S388.458,216,375.5,216
		z M231,87.5c0-4.687,3.813-8.5,8.5-8.5s8.5,3.813,8.5,8.5v88c0,4.687-3.813,8.5-8.5,8.5s-8.5-3.813-8.5-8.5V87.5z M239.5,256
		c-9.098,0-16.5-7.402-16.5-16.5s7.402-16.5,16.5-16.5c4.687,0,9.169,2.004,12.298,5.5c2.709,3.026,4.202,6.933,4.202,11
		C256,248.598,248.598,256,239.5,256z M375.5,248h-72c-4.687,0-8.5-3.813-8.5-8.5s3.813-8.5,8.5-8.5h72c4.687,0,8.5,3.813,8.5,8.5
		S380.187,248,375.5,248z"/>
	<path d="M239.5,32C125.084,32,32,125.084,32,239.5S125.084,447,239.5,447S447,353.916,447,239.5S353.916,32,239.5,32z M239.5,432
		C133.355,432,47,345.645,47,239.5S133.355,47,239.5,47S432,133.355,432,239.5S345.645,432,239.5,432z"/>
</g>
<g>
</g>
<g>
</g>
<g>
</g>
<g>
</g>
<g>
</g>
<g>
</g>
<g>
</g>
<g>
</g>
<g>
</g>
<g>
</g>
<g>
</g>
<g>
</g>
<g>
</g>
<g>
</g>
<g>
</g>
</svg>
