<?xml version="1.0" encoding="iso-8859-1"?>
<!-- Generator: Adobe Illustrator 17.1.0, SVG Export Plug-In . SVG Version: 6.00 Build 0)  -->
<!DOCTYPE svg PUBLIC "-//W3C//DTD SVG 1.1//EN" "http://www.w3.org/Graphics/SVG/1.1/DTD/svg11.dtd">
<svg version="1.1" id="Capa_1" xmlns="http://www.w3.org/2000/svg" xmlns:xlink="http://www.w3.org/1999/xlink" x="0px" y="0px"
	 viewBox="0 0 511 511" style="enable-background:new 0 0 511 511;" xml:space="preserve">
<g>
	<path d="M415.5,216c-4.443,0-8.956,0.332-13.484,0.99c-8.062-30.67-25.807-58.391-50.5-78.662
		C324.549,116.191,290.45,104,255.5,104c-49.625,0-95.659,24.094-124.08,64.692c-4.294-0.47-8.162-0.692-11.92-0.692
		C53.607,168,0,221.607,0,287.5S53.607,407,119.5,407h296c52.659,0,95.5-42.841,95.5-95.5S468.159,216,415.5,216z M415.5,392h-296
		C61.878,392,15,345.122,15,287.5S61.878,183,119.5,183c4.361,0,8.974,0.36,14.516,1.132c2.874,0.398,5.718-0.892,7.308-3.316
		C166.697,142.108,209.38,119,255.5,119c31.488,0,62.208,10.982,86.498,30.922c23.963,19.671,40.663,47.115,47.024,77.274
		c0.413,1.96,1.593,3.673,3.277,4.757c1.684,1.085,3.733,1.45,5.687,1.017c5.889-1.308,11.782-1.971,17.514-1.971
		c44.388,0,80.5,36.112,80.5,80.5S459.888,392,415.5,392z"/>
	<path d="M333.334,164.99c-15-12.883-33.054-21.938-52.209-26.185c-4.045-0.897-8.05,1.655-8.946,5.699
		c-0.896,4.044,1.655,8.049,5.699,8.946c33.975,7.532,62.798,32.335,75.223,64.729c1.145,2.984,3.988,4.816,7.004,4.816
		c0.893,0,1.801-0.161,2.685-0.5c3.867-1.483,5.8-5.821,4.316-9.688C360.067,194.456,348.389,177.921,333.334,164.99z"/>
	<path d="M415.5,248c-4.142,0-7.5,3.358-7.5,7.5s3.358,7.5,7.5,7.5c16.898,0,32.834,9.031,41.587,23.569
		c1.408,2.338,3.889,3.632,6.433,3.632c1.317,0,2.651-0.347,3.861-1.076c3.548-2.137,4.693-6.745,2.557-10.294
		C458.487,259.814,437.628,248,415.5,248z"/>
</g>
<g>
</g>
<g>
</g>
<g>
</g>
<g>
</g>
<g>
</g>
<g>
</g>
<g>
</g>
<g>
</g>
<g>
</g>
<g>
</g>
<g>
</g>
<g>
</g>
<g>
</g>
<g>
</g>
<g>
</g>
</svg>
