<?xml version="1.0" encoding="iso-8859-1"?>
<!-- Generator: Adobe Illustrator 17.1.0, SVG Export Plug-In . SVG Version: 6.00 Build 0)  -->
<!DOCTYPE svg PUBLIC "-//W3C//DTD SVG 1.1//EN" "http://www.w3.org/Graphics/SVG/1.1/DTD/svg11.dtd">
<svg version="1.1" id="Capa_1" xmlns="http://www.w3.org/2000/svg" xmlns:xlink="http://www.w3.org/1999/xlink" x="0px" y="0px"
	 viewBox="0 0 479 479" style="enable-background:new 0 0 479 479;" xml:space="preserve">
<g>
	<path d="M358.983,127.111c-0.006-0.107-0.009-0.214-0.019-0.321c-0.014-0.145-0.036-0.289-0.059-0.434
		c-0.014-0.093-0.026-0.186-0.044-0.278c-0.028-0.143-0.064-0.284-0.1-0.425c-0.024-0.096-0.047-0.193-0.075-0.288
		c-0.037-0.126-0.082-0.25-0.127-0.375c-0.04-0.113-0.079-0.225-0.125-0.335c-0.043-0.104-0.09-0.205-0.138-0.307
		c-0.06-0.13-0.122-0.259-0.189-0.385c-0.019-0.035-0.033-0.071-0.052-0.106c-0.03-0.054-0.065-0.102-0.096-0.154
		c-0.076-0.13-0.155-0.258-0.24-0.384c-0.057-0.085-0.116-0.168-0.176-0.25c-0.084-0.114-0.17-0.227-0.26-0.336
		c-0.071-0.087-0.145-0.171-0.219-0.254c-0.086-0.096-0.175-0.189-0.267-0.281c-0.088-0.088-0.178-0.173-0.27-0.256
		c-0.087-0.078-0.175-0.155-0.266-0.229c-0.105-0.087-0.213-0.169-0.323-0.25c-0.087-0.063-0.175-0.126-0.266-0.187
		c-0.12-0.08-0.242-0.155-0.365-0.228c-0.057-0.033-0.109-0.071-0.166-0.104c-0.037-0.021-0.076-0.036-0.114-0.056
		c-0.12-0.064-0.243-0.122-0.366-0.179c-0.107-0.05-0.214-0.101-0.323-0.145c-0.107-0.043-0.215-0.082-0.324-0.12
		c-0.127-0.045-0.254-0.091-0.382-0.129c-0.095-0.028-0.191-0.05-0.287-0.075c-0.141-0.036-0.281-0.072-0.423-0.099
		c-0.097-0.019-0.196-0.031-0.294-0.046c-0.138-0.021-0.276-0.043-0.414-0.056c-0.117-0.011-0.236-0.015-0.354-0.021
		c-0.118-0.005-0.236-0.014-0.354-0.014c-0.145,0-0.291,0.009-0.436,0.017c-0.09,0.005-0.18,0.007-0.27,0.016
		c-0.163,0.015-0.326,0.041-0.489,0.066c-0.073,0.012-0.147,0.021-0.22,0.035c-0.162,0.031-0.322,0.071-0.482,0.113
		c-0.076,0.02-0.153,0.037-0.229,0.06c-0.144,0.042-0.287,0.093-0.43,0.145c-0.093,0.034-0.186,0.066-0.277,0.103
		c-0.121,0.049-0.24,0.105-0.36,0.162c-0.111,0.052-0.222,0.104-0.331,0.163c-0.042,0.022-0.085,0.039-0.126,0.062l-144,80
		c-0.06,0.033-0.114,0.073-0.173,0.108c-0.085,0.05-0.172,0.098-0.255,0.151c-0.049,0.032-0.097,0.065-0.145,0.099
		c-0.078,0.053-0.152,0.109-0.228,0.165c-0.081,0.06-0.163,0.117-0.242,0.181c-0.038,0.03-0.076,0.063-0.113,0.094
		c-0.08,0.066-0.156,0.135-0.232,0.205c-0.075,0.068-0.15,0.135-0.222,0.206c-0.016,0.016-0.034,0.029-0.05,0.045
		c-0.015,0.015-0.027,0.031-0.042,0.046c-0.077,0.078-0.149,0.158-0.221,0.239c-0.064,0.071-0.128,0.143-0.19,0.216
		c-0.031,0.038-0.063,0.074-0.094,0.112c-0.068,0.085-0.131,0.173-0.195,0.261c-0.051,0.07-0.103,0.139-0.152,0.21
		c-0.032,0.047-0.066,0.094-0.097,0.143c-0.059,0.091-0.111,0.187-0.166,0.28c-0.031,0.052-0.066,0.101-0.096,0.154l-80,144
		c-0.019,0.035-0.033,0.071-0.052,0.106c-0.068,0.126-0.129,0.255-0.189,0.385c-0.047,0.102-0.095,0.204-0.138,0.307
		c-0.045,0.11-0.084,0.223-0.125,0.335c-0.044,0.125-0.089,0.249-0.127,0.375c-0.028,0.095-0.051,0.191-0.075,0.288
		c-0.036,0.142-0.072,0.283-0.1,0.425c-0.018,0.092-0.029,0.185-0.044,0.278c-0.022,0.145-0.045,0.289-0.059,0.434
		c-0.01,0.106-0.013,0.213-0.019,0.321c-0.007,0.13-0.015,0.259-0.015,0.389c0,0.129,0.009,0.259,0.015,0.389
		c0.006,0.107,0.009,0.214,0.019,0.321c0.014,0.145,0.036,0.289,0.059,0.434c0.014,0.093,0.026,0.186,0.044,0.278
		c0.028,0.143,0.064,0.284,0.1,0.425c0.024,0.096,0.047,0.192,0.075,0.288c0.037,0.126,0.082,0.25,0.127,0.375
		c0.04,0.112,0.079,0.225,0.124,0.335c0.042,0.103,0.09,0.205,0.138,0.307c0.06,0.13,0.122,0.259,0.189,0.385
		c0.019,0.035,0.033,0.071,0.052,0.106c0.021,0.037,0.047,0.068,0.068,0.105c0.134,0.232,0.28,0.458,0.438,0.675
		c0.031,0.042,0.058,0.086,0.09,0.127c0.184,0.242,0.383,0.472,0.598,0.692c0.051,0.052,0.105,0.099,0.157,0.149
		c0.163,0.158,0.334,0.309,0.514,0.452c0.079,0.063,0.157,0.125,0.238,0.185c0.175,0.129,0.358,0.249,0.546,0.364
		c0.071,0.043,0.138,0.09,0.21,0.131c0.019,0.011,0.036,0.023,0.055,0.034c0.134,0.075,0.274,0.129,0.41,0.194
		c0.138,0.066,0.272,0.139,0.413,0.196c0.212,0.086,0.428,0.152,0.644,0.218c0.088,0.027,0.174,0.062,0.263,0.085
		c0.274,0.072,0.551,0.125,0.828,0.165c0.039,0.006,0.078,0.017,0.117,0.022c0.32,0.042,0.641,0.064,0.96,0.064
		c0.002,0,0.005,0,0.007,0s0.005,0,0.007,0c0.32,0,0.641-0.022,0.961-0.064c0.038-0.005,0.074-0.016,0.111-0.021
		c0.279-0.041,0.558-0.093,0.834-0.166c0.085-0.022,0.167-0.056,0.251-0.082c0.22-0.066,0.44-0.134,0.656-0.222
		c0.137-0.056,0.268-0.127,0.402-0.191c0.14-0.066,0.282-0.123,0.42-0.199l144-80c0.019-0.011,0.036-0.024,0.055-0.035
		c0.058-0.033,0.113-0.07,0.171-0.104c0.117-0.071,0.235-0.142,0.349-0.219c0.081-0.055,0.158-0.114,0.237-0.172
		c0.063-0.047,0.127-0.093,0.189-0.142c0.052-0.041,0.104-0.083,0.156-0.125c0.123-0.102,0.239-0.211,0.354-0.32
		c0.049-0.047,0.102-0.087,0.15-0.136c0,0,0,0,0,0c0.02-0.02,0.038-0.041,0.058-0.061c0.115-0.118,0.221-0.241,0.327-0.365
		c0.054-0.063,0.11-0.123,0.161-0.187c0.037-0.046,0.074-0.093,0.11-0.141c0.031-0.041,0.058-0.084,0.089-0.126
		c0.024-0.032,0.046-0.065,0.069-0.098c0.059-0.083,0.121-0.165,0.176-0.25c0.064-0.099,0.12-0.202,0.179-0.304
		c0.007-0.012,0.014-0.023,0.021-0.035c0.019-0.033,0.043-0.062,0.062-0.095l80-144c0.019-0.035,0.033-0.071,0.052-0.106
		c0.068-0.126,0.129-0.255,0.189-0.385c0.047-0.102,0.095-0.204,0.138-0.307c0.045-0.11,0.084-0.223,0.124-0.335
		c0.044-0.125,0.089-0.249,0.127-0.375c0.028-0.095,0.051-0.191,0.075-0.288c0.036-0.142,0.072-0.283,0.1-0.425
		c0.018-0.092,0.03-0.185,0.044-0.278c0.022-0.145,0.045-0.289,0.059-0.434c0.01-0.106,0.013-0.214,0.019-0.321
		c0.007-0.13,0.015-0.259,0.015-0.389C358.998,127.371,358.99,127.241,358.983,127.111z M209.227,219.834l8.969,8.969
		c0.085,0.085,0.177,0.16,0.266,0.24C216.89,232.195,216,235.745,216,239.5c0,12.958,10.542,23.5,23.5,23.5
		c3.755,0,7.304-0.89,10.456-2.463c0.081,0.089,0.155,0.181,0.241,0.267l8.969,8.969l-112.361,62.423L209.227,219.834z M239.5,248
		c-4.687,0-8.5-3.813-8.5-8.5s3.813-8.5,8.5-8.5s8.5,3.813,8.5,8.5S244.187,248,239.5,248z M269.773,259.166l-8.969-8.969
		c-0.085-0.085-0.177-0.16-0.266-0.24c1.573-3.151,2.463-6.701,2.463-10.456c0-12.958-10.542-23.5-23.5-23.5
		c-3.755,0-7.304,0.89-10.456,2.463c-0.081-0.089-0.155-0.181-0.241-0.267l-8.969-8.969l112.361-62.423L269.773,259.166z"/>
	<path d="M408.852,70.148C363.616,24.912,303.473,0,239.5,0S115.384,24.912,70.148,70.148C24.913,115.384,0,175.527,0,239.5
		s24.913,124.116,70.148,169.352C115.384,454.088,175.527,479,239.5,479s124.116-24.912,169.352-70.148
		C454.087,363.616,479,303.473,479,239.5S454.087,115.384,408.852,70.148z M398.246,398.245C355.843,440.647,299.466,464,239.5,464
		s-116.343-23.353-158.746-65.755C38.352,355.843,15,299.466,15,239.5S38.352,123.157,80.754,80.755
		C123.157,38.353,179.534,15,239.5,15s116.343,23.353,158.746,65.755C440.648,123.157,464,179.534,464,239.5
		S440.648,355.843,398.246,398.245z"/>
	<path d="M239.5,32C125.084,32,32,125.084,32,239.5S125.084,447,239.5,447S447,353.916,447,239.5S353.916,32,239.5,32z M239.5,432
		C133.355,432,47,345.645,47,239.5S133.355,47,239.5,47S432,133.355,432,239.5S345.645,432,239.5,432z"/>
	<path d="M239.5,111c4.142,0,7.5-3.357,7.5-7.5v-32c0-4.143-3.358-7.5-7.5-7.5s-7.5,3.357-7.5,7.5v32
		C232,107.643,235.358,111,239.5,111z"/>
	<path d="M239.5,368c-4.142,0-7.5,3.357-7.5,7.5v32c0,4.143,3.358,7.5,7.5,7.5s7.5-3.357,7.5-7.5v-32
		C247,371.357,243.642,368,239.5,368z"/>
	<path d="M103.5,232h-32c-4.142,0-7.5,3.357-7.5,7.5s3.358,7.5,7.5,7.5h32c4.142,0,7.5-3.357,7.5-7.5S107.642,232,103.5,232z"/>
	<path d="M407.5,232h-32c-4.142,0-7.5,3.357-7.5,7.5s3.358,7.5,7.5,7.5h32c4.142,0,7.5-3.357,7.5-7.5S411.642,232,407.5,232z"/>
</g>
<g>
</g>
<g>
</g>
<g>
</g>
<g>
</g>
<g>
</g>
<g>
</g>
<g>
</g>
<g>
</g>
<g>
</g>
<g>
</g>
<g>
</g>
<g>
</g>
<g>
</g>
<g>
</g>
<g>
</g>
</svg>
