<?xml version="1.0" encoding="iso-8859-1"?>
<!-- Generator: Adobe Illustrator 17.1.0, SVG Export Plug-In . SVG Version: 6.00 Build 0)  -->
<!DOCTYPE svg PUBLIC "-//W3C//DTD SVG 1.1//EN" "http://www.w3.org/Graphics/SVG/1.1/DTD/svg11.dtd">
<svg version="1.1" id="Capa_1" xmlns="http://www.w3.org/2000/svg" xmlns:xlink="http://www.w3.org/1999/xlink" x="0px" y="0px"
	 viewBox="0 0 489.639 489.639" style="enable-background:new 0 0 489.639 489.639;" xml:space="preserve">
<g>
	<path d="M479.106,135.943L403.81,54.855c-7.449-8.021-17.999-12.622-28.945-12.622H114.774c-10.946,0-21.497,4.601-28.946,12.622
		l-75.295,81.088C-2.985,150.5-3.558,172.961,9.2,188.188l205.342,245.085c7.525,8.981,18.561,14.132,30.278,14.132
		c11.717,0,22.752-5.151,30.277-14.132l205.342-245.086C493.197,172.961,492.624,150.5,479.106,135.943z M468.115,146.15
		c2.232,2.404,3.877,5.161,4.967,8.083H359.89l31.853-90.251c0.368,0.349,0.728,0.706,1.075,1.08L468.115,146.15z M378.138,57.463
		l-31.922,90.445l-84.198-90.674h112.846C375.965,57.233,377.058,57.316,378.138,57.463z M331.62,154.233H158.019l86.801-93.478
		L331.62,154.233z M227.62,57.233l-84.198,90.675l-31.922-90.445c1.08-0.147,2.173-0.229,3.273-0.229H227.62z M96.82,65.062
		c0.347-0.373,0.708-0.731,1.076-1.08l31.853,90.251H16.558c1.09-2.922,2.735-5.679,4.967-8.083L96.82,65.062z M20.698,178.555
		c-2.341-2.794-3.94-5.985-4.84-9.322h119.184l88.913,251.92L20.698,178.555z M243.824,432.379l-92.875-263.146H338.69
		l-92.875,263.146c-0.331,0.013-0.662,0.027-0.995,0.027S244.155,432.392,243.824,432.379z M265.684,421.153l88.913-251.919h119.184
		c-0.9,3.336-2.499,6.528-4.84,9.322L265.684,421.153z"/>
	<path d="M272.441,288.805c0.826,0.292,1.667,0.43,2.496,0.43c3.091,0,5.985-1.925,7.072-5.006l31.059-88
		c1.379-3.906-0.67-8.19-4.576-9.568c-3.905-1.38-8.19,0.669-9.568,4.576l-31.059,88
		C266.486,283.143,268.535,287.427,272.441,288.805z"/>
	<path d="M239.324,104.683l32,34.461c1.478,1.591,3.485,2.396,5.498,2.396c1.826,0,3.658-0.663,5.102-2.004
		c3.035-2.819,3.211-7.564,0.393-10.6l-32-34.461c-2.818-3.035-7.564-3.211-10.6-0.393
		C236.681,96.902,236.505,101.647,239.324,104.683z"/>
</g>
<g>
</g>
<g>
</g>
<g>
</g>
<g>
</g>
<g>
</g>
<g>
</g>
<g>
</g>
<g>
</g>
<g>
</g>
<g>
</g>
<g>
</g>
<g>
</g>
<g>
</g>
<g>
</g>
<g>
</g>
</svg>
