<?xml version="1.0" encoding="iso-8859-1"?>
<!-- Generator: Adobe Illustrator 17.1.0, SVG Export Plug-In . SVG Version: 6.00 Build 0)  -->
<!DOCTYPE svg PUBLIC "-//W3C//DTD SVG 1.1//EN" "http://www.w3.org/Graphics/SVG/1.1/DTD/svg11.dtd">
<svg version="1.1" id="Capa_1" xmlns="http://www.w3.org/2000/svg" xmlns:xlink="http://www.w3.org/1999/xlink" x="0px" y="0px"
	 viewBox="0 0 511 511" style="enable-background:new 0 0 511 511;" xml:space="preserve">
<g>
	<path d="M499.292,315.018l-67.449-67.448c-7.46-7.461-17.379-11.57-27.931-11.57H351.5c-4.142,0-7.5,3.357-7.5,7.5
		s3.358,7.5,7.5,7.5h52.412c6.544,0,12.697,2.549,17.324,7.177L471.059,308H364.891c-14.758,0-27.651,10.242-30.656,24.354
		C326.382,369.233,293.27,396,255.5,396s-70.882-26.767-78.734-63.646C173.761,318.242,160.868,308,146.109,308H39.94l49.824-49.824
		c4.627-4.627,10.779-7.176,17.324-7.176H159.5c4.142,0,7.5-3.357,7.5-7.5s-3.358-7.5-7.5-7.5h-52.412
		c-10.552,0-20.471,4.109-27.931,11.569l-67.45,67.449C4.573,320.798,0,329.623,0,339.5v112C0,468.869,14.131,483,31.5,483h448
		c17.369,0,31.5-14.131,31.5-31.5v-112C511,329.623,506.427,320.798,499.292,315.018z M496,451.5c0,9.099-7.402,16.5-16.5,16.5h-448
		c-9.098,0-16.5-7.401-16.5-16.5v-112c0-3.824,1.32-7.34,3.511-10.141c0.216-0.173,0.426-0.356,0.625-0.556l2.5-2.5
		C24.392,324.239,27.8,323,31.5,323h114.609c7.723,0,14.446,5.248,15.985,12.478c4.485,21.065,16.182,40.223,32.937,53.943
		C212.024,403.336,233.499,411,255.5,411s43.476-7.664,60.469-21.579c16.754-13.721,28.452-32.878,32.937-53.942
		c1.54-7.23,8.263-12.479,15.985-12.479H479.5c3.7,0,7.108,1.239,9.864,3.304l2.5,2.5c0.2,0.2,0.41,0.383,0.625,0.556
		C494.68,332.16,496,335.676,496,339.5V451.5z"/>
	<path d="M250.197,296.804c0.011,0.011,0.024,0.021,0.035,0.032c0.164,0.162,0.335,0.318,0.514,0.465
		c0.087,0.071,0.178,0.133,0.267,0.199c0.107,0.08,0.212,0.163,0.323,0.237c0.105,0.07,0.215,0.131,0.323,0.196
		c0.102,0.061,0.202,0.125,0.307,0.182c0.11,0.059,0.223,0.109,0.336,0.162c0.109,0.052,0.217,0.106,0.329,0.153
		c0.11,0.045,0.222,0.082,0.333,0.122c0.12,0.043,0.238,0.089,0.36,0.126c0.111,0.033,0.223,0.058,0.335,0.086
		c0.125,0.032,0.249,0.067,0.377,0.092c0.129,0.026,0.26,0.041,0.39,0.06c0.112,0.016,0.221,0.037,0.334,0.048
		c0.246,0.024,0.493,0.037,0.74,0.037s0.494-0.013,0.74-0.037c0.113-0.011,0.223-0.032,0.334-0.048
		c0.13-0.019,0.261-0.034,0.391-0.06c0.128-0.025,0.251-0.06,0.376-0.092c0.112-0.028,0.224-0.053,0.335-0.086
		c0.122-0.037,0.24-0.083,0.36-0.126c0.111-0.04,0.224-0.077,0.333-0.122c0.112-0.047,0.22-0.101,0.329-0.153
		c0.112-0.053,0.226-0.103,0.336-0.162c0.105-0.056,0.204-0.12,0.306-0.181c0.108-0.065,0.218-0.126,0.324-0.197
		c0.111-0.074,0.215-0.156,0.321-0.236c0.089-0.067,0.181-0.129,0.268-0.2c0.179-0.147,0.35-0.302,0.514-0.465
		c0.011-0.011,0.024-0.021,0.035-0.032l96-96c2.929-2.93,2.929-7.678,0-10.607c-2.929-2.928-7.678-2.928-10.606,0L263,273.393V35.5
		c0-4.143-3.358-7.5-7.5-7.5s-7.5,3.357-7.5,7.5v237.893l-83.197-83.197c-2.929-2.928-7.678-2.928-10.606,0
		c-2.929,2.93-2.929,7.678,0,10.607L250.197,296.804z"/>
</g>
<g>
</g>
<g>
</g>
<g>
</g>
<g>
</g>
<g>
</g>
<g>
</g>
<g>
</g>
<g>
</g>
<g>
</g>
<g>
</g>
<g>
</g>
<g>
</g>
<g>
</g>
<g>
</g>
<g>
</g>
</svg>
