<?xml version="1.0" encoding="iso-8859-1"?>
<!-- Generator: Adobe Illustrator 17.1.0, SVG Export Plug-In . SVG Version: 6.00 Build 0)  -->
<!DOCTYPE svg PUBLIC "-//W3C//DTD SVG 1.1//EN" "http://www.w3.org/Graphics/SVG/1.1/DTD/svg11.dtd">
<svg version="1.1" id="Capa_1" xmlns="http://www.w3.org/2000/svg" xmlns:xlink="http://www.w3.org/1999/xlink" x="0px" y="0px"
	 viewBox="0 0 511 511" style="enable-background:new 0 0 511 511;" xml:space="preserve">
<g>
	<path d="M407.5,264c-4.142,0-7.5,3.358-7.5,7.5v200c0,13.509-10.991,24.5-24.5,24.5h-336C25.991,496,15,485.009,15,471.5v-336
		c0-13.509,10.991-24.5,24.5-24.5h208c4.142,0,7.5-3.358,7.5-7.5s-3.358-7.5-7.5-7.5h-208C17.72,96,0,113.72,0,135.5v336
		C0,493.28,17.72,511,39.5,511h336c21.78,0,39.5-17.72,39.5-39.5v-200C415,267.358,411.642,264,407.5,264z"/>
	<path d="M508.809,2.202c-2.144-2.148-5.37-2.791-8.173-1.633c-7.93,3.277-194.937,80.989-259.007,145.06
		C225.102,162.155,216,184.128,216,207.5c0,20.853,7.263,40.58,20.563,56.331l-82.366,82.366c-2.929,2.929-2.929,7.678,0,10.606
		c1.464,1.464,3.384,2.197,5.303,2.197s3.839-0.732,5.303-2.197l82.366-82.366C262.92,287.737,282.647,295,303.5,295
		c23.372,0,45.345-9.102,61.872-25.628c63.324-63.324,141.747-251.034,145.054-258.994C511.59,7.576,510.952,4.349,508.809,2.202z
		 M231,207.5c0-19.365,7.542-37.572,21.235-51.265c3.439-3.439,7.377-7.012,11.765-10.701v90.859l-16.794,16.794
		C236.71,240.305,231,224.343,231,207.5z M354.765,258.765C341.072,272.459,322.865,280,303.5,280
		c-16.843,0-32.805-5.71-45.688-16.206l18.99-18.99c0.001-0.001,0.002-0.002,0.002-0.002L298.606,223h84.999
		C373.792,237.167,364.065,249.465,354.765,258.765z M330.606,191h73.543c-3.559,5.918-7.138,11.686-10.722,17.259
		c-0.616-0.164-1.26-0.259-1.927-0.259h-77.894L330.606,191z M412.954,176h-67.347l11.197-11.197c2.929-2.929,2.929-7.678,0-10.606
		c-2.929-2.929-7.678-2.929-10.606,0l-23.999,23.999c-0.001,0.001-0.002,0.002-0.002,0.002l-31.998,31.998
		c-0.001,0.001-0.002,0.002-0.002,0.002L279,221.394V135.5c0-0.545-0.061-1.075-0.172-1.586
		c28.719-21.162,70.612-45.561,123.546-71.845c35.422-17.589,67.927-32.106,86.85-40.324
		C475.857,52.356,445.896,118.606,412.954,176z"/>
</g>
<g>
</g>
<g>
</g>
<g>
</g>
<g>
</g>
<g>
</g>
<g>
</g>
<g>
</g>
<g>
</g>
<g>
</g>
<g>
</g>
<g>
</g>
<g>
</g>
<g>
</g>
<g>
</g>
<g>
</g>
</svg>
