<?xml version="1.0" encoding="iso-8859-1"?>
<!-- Generator: Adobe Illustrator 17.1.0, SVG Export Plug-In . SVG Version: 6.00 Build 0)  -->
<!DOCTYPE svg PUBLIC "-//W3C//DTD SVG 1.1//EN" "http://www.w3.org/Graphics/SVG/1.1/DTD/svg11.dtd">
<svg version="1.1" id="Capa_1" xmlns="http://www.w3.org/2000/svg" xmlns:xlink="http://www.w3.org/1999/xlink" x="0px" y="0px"
	 viewBox="0 0 511 511" style="enable-background:new 0 0 511 511;" xml:space="preserve">
<path d="M398.641,127.5l49.569-92.941c3.92-7.351,3.702-16.005-0.584-23.149C443.34,4.266,435.806,0,427.475,0H203.497
	c-4.142,0-7.5,3.357-7.5,7.5V64h-97v-1.909c13.759-3.375,24-15.806,24-30.591c0-17.369-14.131-31.5-31.5-31.5
	s-31.5,14.131-31.5,31.5c0,14.785,10.241,27.216,24,30.591V503.5c0,4.143,3.358,7.5,7.5,7.5s7.5-3.357,7.5-7.5V319h168.5
	c4.142,0,7.5-3.357,7.5-7.5V255h152.478c8.332,0,15.865-4.266,20.151-11.409c4.286-7.145,4.504-15.799,0.584-23.149L398.641,127.5z
	 M210.997,25.607L249.39,64h-38.393V25.607z M74.997,31.5c0-9.098,7.402-16.5,16.5-16.5s16.5,7.402,16.5,16.5S100.595,48,91.497,48
	S74.997,40.598,74.997,31.5z M259.997,304h-161V79h161V304z M434.764,235.873c-0.745,1.241-2.945,4.127-7.289,4.127H274.997V71.502
	c0-0.248-0.013-0.496-0.037-0.744c-0.01-0.107-0.031-0.211-0.046-0.317c-0.019-0.136-0.036-0.273-0.062-0.408
	c-0.024-0.124-0.058-0.243-0.089-0.364c-0.029-0.116-0.055-0.233-0.089-0.347c-0.036-0.12-0.081-0.235-0.123-0.352
	c-0.041-0.114-0.078-0.229-0.125-0.342c-0.045-0.109-0.099-0.214-0.149-0.321c-0.054-0.115-0.105-0.231-0.165-0.344
	c-0.055-0.103-0.118-0.202-0.178-0.302c-0.065-0.109-0.127-0.22-0.199-0.327c-0.074-0.111-0.157-0.215-0.237-0.322
	c-0.067-0.089-0.129-0.181-0.2-0.268c-0.148-0.181-0.305-0.353-0.469-0.519c-0.01-0.01-0.018-0.021-0.028-0.031L221.604,15h205.871
	c4.344,0,6.544,2.886,7.289,4.127s2.255,4.541,0.211,8.373l-51.451,96.471c-1.176,2.206-1.176,4.853,0,7.059l51.451,96.471
	C437.019,231.332,435.508,234.632,434.764,235.873z"/>
<g>
</g>
<g>
</g>
<g>
</g>
<g>
</g>
<g>
</g>
<g>
</g>
<g>
</g>
<g>
</g>
<g>
</g>
<g>
</g>
<g>
</g>
<g>
</g>
<g>
</g>
<g>
</g>
<g>
</g>
</svg>
