<?xml version="1.0" encoding="iso-8859-1"?>
<!-- Generator: Adobe Illustrator 17.1.0, SVG Export Plug-In . SVG Version: 6.00 Build 0)  -->
<!DOCTYPE svg PUBLIC "-//W3C//DTD SVG 1.1//EN" "http://www.w3.org/Graphics/SVG/1.1/DTD/svg11.dtd">
<svg version="1.1" id="Capa_1" xmlns="http://www.w3.org/2000/svg" xmlns:xlink="http://www.w3.org/1999/xlink" x="0px" y="0px"
	 viewBox="0 0 511 511" style="enable-background:new 0 0 511 511;" xml:space="preserve">
<g>
	<path d="M455.5,112H439v-8.5c0-21.78-17.72-39.5-39.5-39.5H327V39.5C327,17.72,309.28,0,287.5,0h-64C201.72,0,184,17.72,184,39.5
		V64h-72.5C89.72,64,72,81.72,72,103.5v8.5H55.5c-4.142,0-7.5,3.358-7.5,7.5s3.358,7.5,7.5,7.5H72v344.5
		c0,21.78,17.72,39.5,39.5,39.5h288c21.78,0,39.5-17.72,39.5-39.5V127h16.5c4.142,0,7.5-3.358,7.5-7.5S459.642,112,455.5,112z
		 M199,39.5c0-13.509,10.991-24.5,24.5-24.5h64c13.509,0,24.5,10.991,24.5,24.5V64H199V39.5z M87,103.5
		C87,89.991,97.991,79,111.5,79h288c13.509,0,24.5,10.991,24.5,24.5v8.5H87V103.5z M424,471.5c0,13.509-10.991,24.5-24.5,24.5h-288
		C97.991,496,87,485.009,87,471.5V127h337V471.5z"/>
	<path d="M255.5,463c4.142,0,7.5-3.358,7.5-7.5v-288c0-4.142-3.358-7.5-7.5-7.5s-7.5,3.358-7.5,7.5v288
		C248,459.642,251.358,463,255.5,463z"/>
	<path d="M167.5,463c4.142,0,7.5-3.358,7.5-7.5v-288c0-4.142-3.358-7.5-7.5-7.5s-7.5,3.358-7.5,7.5v288
		C160,459.642,163.358,463,167.5,463z"/>
	<path d="M343.5,463c4.142,0,7.5-3.358,7.5-7.5v-288c0-4.142-3.358-7.5-7.5-7.5s-7.5,3.358-7.5,7.5v288
		C336,459.642,339.358,463,343.5,463z"/>
</g>
<g>
</g>
<g>
</g>
<g>
</g>
<g>
</g>
<g>
</g>
<g>
</g>
<g>
</g>
<g>
</g>
<g>
</g>
<g>
</g>
<g>
</g>
<g>
</g>
<g>
</g>
<g>
</g>
<g>
</g>
</svg>
