<?xml version="1.0" encoding="iso-8859-1"?>
<!-- Generator: Adobe Illustrator 17.1.0, SVG Export Plug-In . SVG Version: 6.00 Build 0)  -->
<!DOCTYPE svg PUBLIC "-//W3C//DTD SVG 1.1//EN" "http://www.w3.org/Graphics/SVG/1.1/DTD/svg11.dtd">
<svg version="1.1" id="Capa_1" xmlns="http://www.w3.org/2000/svg" xmlns:xlink="http://www.w3.org/1999/xlink" x="0px" y="0px"
	 viewBox="0 0 511 511" style="enable-background:new 0 0 511 511;" xml:space="preserve">
<path d="M471.5,167.999H463v-16.5c0-21.78-17.72-39.5-39.5-39.5h-384c-21.78,0-39.5,17.72-39.5,39.5v208
	c0,21.78,17.72,39.5,39.5,39.5h255.977c0.009,0,0.019,0.002,0.028,0.002c0.012,0,0.024-0.002,0.036-0.002H423.5
	c21.78,0,39.5-17.72,39.5-39.5v-16.5h8.5c21.78,0,39.5-17.72,39.5-39.5v-96C511,185.719,493.28,167.999,471.5,167.999z M15,359.499
	v-208c0-13.509,10.991-24.5,24.5-24.5h123.24l120.941,257H39.5C25.991,383.999,15,373.008,15,359.499z M448,359.499
	c0,13.509-10.991,24.5-24.5,24.5H300.26l-120.941-257H423.5c13.509,0,24.5,10.991,24.5,24.5v24v160V359.499z M496,303.499
	c0,13.509-10.991,24.5-24.5,24.5H463v-145h8.5c13.509,0,24.5,10.991,24.5,24.5V303.499z"/>
<g>
</g>
<g>
</g>
<g>
</g>
<g>
</g>
<g>
</g>
<g>
</g>
<g>
</g>
<g>
</g>
<g>
</g>
<g>
</g>
<g>
</g>
<g>
</g>
<g>
</g>
<g>
</g>
<g>
</g>
</svg>
