<?xml version="1.0" encoding="iso-8859-1"?>
<!-- Generator: Adobe Illustrator 17.1.0, SVG Export Plug-In . SVG Version: 6.00 Build 0)  -->
<!DOCTYPE svg PUBLIC "-//W3C//DTD SVG 1.1//EN" "http://www.w3.org/Graphics/SVG/1.1/DTD/svg11.dtd">
<svg version="1.1" id="Capa_1" xmlns="http://www.w3.org/2000/svg" xmlns:xlink="http://www.w3.org/1999/xlink" x="0px" y="0px"
	 viewBox="0 0 511 511" style="enable-background:new 0 0 511 511;" xml:space="preserve">
<path d="M436.166,106.834C387.908,58.576,323.747,32,255.5,32S123.092,58.576,74.834,106.834C26.577,155.092,0,219.253,0,287.5v128
	C0,432.869,14.131,447,31.5,447c0.169,0,0.334-0.014,0.5-0.025v8.525c0,12.958,10.542,23.5,23.5,23.5h24
	c12.958,0,23.5-10.542,23.5-23.5v-144c0-12.958-10.542-23.5-23.5-23.5h-24C42.542,288,32,298.542,32,311.5v8.5H15v-32.5
	c0-64.24,25.016-124.635,70.441-170.06C130.865,72.017,191.26,47,255.5,47s124.635,25.017,170.059,70.44
	C470.984,162.865,496,223.26,496,287.5V320h-17v-8.5c0-12.958-10.542-23.5-23.5-23.5h-24c-12.958,0-23.5,10.542-23.5,23.5v144
	c0,12.958,10.542,23.5,23.5,23.5h24c12.958,0,23.5-10.542,23.5-23.5v-8.525c0.166,0.011,0.331,0.025,0.5,0.025
	c17.369,0,31.5-14.131,31.5-31.5v-128C511,219.253,484.423,155.092,436.166,106.834z M47,311.5c0-4.687,3.813-8.5,8.5-8.5h24
	c4.687,0,8.5,3.813,8.5,8.5v144c0,4.687-3.813,8.5-8.5,8.5h-24c-4.687,0-8.5-3.813-8.5-8.5V311.5z M32,335v97.025
	c-0.166-0.011-0.331-0.025-0.5-0.025c-9.098,0-16.5-7.402-16.5-16.5V335H32z M464,455.5c0,4.687-3.813,8.5-8.5,8.5h-24
	c-4.687,0-8.5-3.813-8.5-8.5v-144c0-4.687,3.813-8.5,8.5-8.5h24c4.687,0,8.5,3.813,8.5,8.5V455.5z M479.5,432
	c-0.169,0-0.334,0.014-0.5,0.025V335h17v80.5C496,424.598,488.598,432,479.5,432z"/>
<g>
</g>
<g>
</g>
<g>
</g>
<g>
</g>
<g>
</g>
<g>
</g>
<g>
</g>
<g>
</g>
<g>
</g>
<g>
</g>
<g>
</g>
<g>
</g>
<g>
</g>
<g>
</g>
<g>
</g>
</svg>
