<?xml version="1.0" encoding="iso-8859-1"?>
<!-- Generator: Adobe Illustrator 17.1.0, SVG Export Plug-In . SVG Version: 6.00 Build 0)  -->
<!DOCTYPE svg PUBLIC "-//W3C//DTD SVG 1.1//EN" "http://www.w3.org/Graphics/SVG/1.1/DTD/svg11.dtd">
<svg version="1.1" id="Capa_1" xmlns="http://www.w3.org/2000/svg" xmlns:xlink="http://www.w3.org/1999/xlink" x="0px" y="0px"
	 viewBox="0 0 511 511" style="enable-background:new 0 0 511 511;" xml:space="preserve">
<g>
	<path d="M511,177.785c0-0.358-0.034-0.708-0.082-1.053c-0.006-0.041-0.003-0.085-0.01-0.126
		C508.172,99.869,444.893,38.285,367.5,38.285c-37.946,0-73.727,14.698-100.75,41.386c-6.203,6.126-16.296,6.126-22.499,0
		c-27.023-26.688-62.804-41.386-100.75-41.386c-77.393,0-140.672,61.584-143.408,138.321C0.032,176.99,0,177.384,0,177.785
		c0,0.693,0.004,1.389,0.013,2.083C0.004,180.508,0,181.143,0,181.785c0,0.36,0.025,0.714,0.074,1.061
		c1.758,59.8,34.617,121.04,97.738,182.104c51.068,49.405,108.413,85.443,138.05,102.527c6.057,3.492,12.848,5.237,19.638,5.237
		c6.791,0,13.582-1.746,19.638-5.237c29.637-17.084,86.981-53.122,138.05-102.527c63.121-61.065,95.98-122.305,97.738-182.104
		c0.005-0.037,0.003-0.076,0.008-0.113c0.039-0.311,0.066-0.626,0.066-0.948V177.785z M267.647,454.482
		c-7.606,4.384-16.688,4.384-24.294,0c-29.037-16.739-85.202-52.029-135.111-100.313c-61.115-59.125-92.471-117.755-93.228-174.293
		C16.036,109.896,73.281,53.285,143.5,53.285c33.975,0,66.013,13.161,90.21,37.059c12.015,11.865,31.564,11.865,43.579,0
		c24.198-23.897,56.235-37.059,90.21-37.059c69.819,0,126.801,55.978,128.454,125.406c-0.022,0.36-0.045,0.721-0.05,1.082
		c0,0.065,0,0.131,0,0.197c0.005,0.366,0.03,0.727,0.054,1.088C493.159,314.184,320.78,423.853,267.647,454.482z"/>
	<path d="M367.5,70.285c-4.142,0-7.5,3.358-7.5,7.5s3.358,7.5,7.5,7.5c53.21,0,96.5,43.29,96.5,96.5c0,4.142,3.358,7.5,7.5,7.5
		s7.5-3.358,7.5-7.5C479,120.304,428.981,70.285,367.5,70.285z"/>
	<path d="M214.75,96.016c-19.954-16.593-45.257-25.731-71.25-25.731c-8.686,0-17.34,1.003-25.721,2.983
		c-4.031,0.952-6.528,4.992-5.576,9.023c0.953,4.032,4.998,6.528,9.023,5.576c7.253-1.713,14.747-2.582,22.274-2.582
		c22.496,0,44.394,7.907,61.659,22.264c1.401,1.166,3.101,1.734,4.792,1.733c2.151,0,4.288-0.921,5.771-2.705
		C218.369,103.393,217.934,98.665,214.75,96.016z"/>
</g>
<g>
</g>
<g>
</g>
<g>
</g>
<g>
</g>
<g>
</g>
<g>
</g>
<g>
</g>
<g>
</g>
<g>
</g>
<g>
</g>
<g>
</g>
<g>
</g>
<g>
</g>
<g>
</g>
<g>
</g>
</svg>
