<?xml version="1.0" encoding="iso-8859-1"?>
<!-- Generator: Adobe Illustrator 17.1.0, SVG Export Plug-In . SVG Version: 6.00 Build 0)  -->
<!DOCTYPE svg PUBLIC "-//W3C//DTD SVG 1.1//EN" "http://www.w3.org/Graphics/SVG/1.1/DTD/svg11.dtd">
<svg version="1.1" id="Capa_1" xmlns="http://www.w3.org/2000/svg" xmlns:xlink="http://www.w3.org/1999/xlink" x="0px" y="0px"
	 viewBox="0 0 479.001 479.001" style="enable-background:new 0 0 479.001 479.001;" xml:space="preserve">
<path d="M476.507,212.436L407,150.12V66.021c0-8.547-6.953-15.5-15.5-15.5h-40c-8.547,0-15.5,6.953-15.5,15.5v20.444l-70.132-62.877
	c-15.032-13.477-37.703-13.477-52.736,0L2.493,212.436c-2.314,2.075-3.108,5.362-1.998,8.265c1.111,2.903,3.897,4.82,7.005,4.82H40
	v225H15.5c-4.142,0-7.5,3.358-7.5,7.5s3.358,7.5,7.5,7.5h152c12.958,0,23.5-10.542,23.5-23.5v-160c0-4.687,3.813-8.5,8.5-8.5h80
	c4.687,0,8.5,3.813,8.5,8.5v160c0,12.958,10.542,23.5,23.5,23.5h152c4.142,0,7.5-3.358,7.5-7.5s-3.358-7.5-7.5-7.5H439v-225h32.5
	c3.108,0,5.894-1.917,7.005-4.82C479.616,217.798,478.821,214.511,476.507,212.436z M431.5,210.521c-4.142,0-7.5,3.358-7.5,7.5
	v232.5H311.5c-4.687,0-8.5-3.813-8.5-8.5v-160c0-12.958-10.542-23.5-23.5-23.5h-80c-12.958,0-23.5,10.542-23.5,23.5v160
	c0,4.687-3.813,8.5-8.5,8.5H55v-232.5c0-4.142-3.358-7.5-7.5-7.5H27.101L223.146,34.756c9.323-8.359,23.385-8.36,32.709,0
	l82.638,74.09c2.203,1.975,5.361,2.47,8.064,1.264c2.702-1.207,4.442-3.889,4.442-6.848V66.021c0-0.276,0.224-0.5,0.5-0.5h40
	c0.276,0,0.5,0.224,0.5,0.5v87.448c0,2.131,0.907,4.162,2.493,5.584l57.406,51.468H431.5z"/>
<g>
</g>
<g>
</g>
<g>
</g>
<g>
</g>
<g>
</g>
<g>
</g>
<g>
</g>
<g>
</g>
<g>
</g>
<g>
</g>
<g>
</g>
<g>
</g>
<g>
</g>
<g>
</g>
<g>
</g>
</svg>
