<?xml version="1.0" encoding="iso-8859-1"?>
<!-- Generator: Adobe Illustrator 17.1.0, SVG Export Plug-In . SVG Version: 6.00 Build 0)  -->
<!DOCTYPE svg PUBLIC "-//W3C//DTD SVG 1.1//EN" "http://www.w3.org/Graphics/SVG/1.1/DTD/svg11.dtd">
<svg version="1.1" id="Capa_1" xmlns="http://www.w3.org/2000/svg" xmlns:xlink="http://www.w3.org/1999/xlink" x="0px" y="0px"
	 viewBox="0 0 511 511" style="enable-background:new 0 0 511 511;" xml:space="preserve">
<g>
	<path d="M415.5,496h-8.57c-1.092-64.743-16.302-125.441-43.121-171.629c-19.839-34.166-44.429-57.671-71.401-68.871
		c26.972-11.2,51.562-34.705,71.401-68.871C390.628,140.441,405.838,79.743,406.93,15h8.57c4.142,0,7.5-3.357,7.5-7.5
		S419.642,0,415.5,0h-320C91.358,0,88,3.357,88,7.5s3.358,7.5,7.5,7.5h8.57c1.092,64.743,16.302,125.441,43.121,171.629
		c19.838,34.166,44.429,57.671,71.401,68.871c-26.972,11.2-51.563,34.705-71.401,68.871C120.372,370.559,105.162,431.257,104.07,496
		H95.5c-4.142,0-7.5,3.357-7.5,7.5s3.358,7.5,7.5,7.5h320c4.142,0,7.5-3.357,7.5-7.5S419.642,496,415.5,496z M391.927,15
		c-0.099,5.703-0.306,11.374-0.63,17H119.703c-0.323-5.626-0.531-11.297-0.63-17H391.927z M160.163,179.097
		C139.084,142.794,125.535,96.885,120.845,47h269.309c-4.689,49.885-18.238,95.794-39.317,132.097
		C325.038,223.529,291.179,248,255.5,248S185.962,223.529,160.163,179.097z M160.163,331.903C185.962,287.471,219.821,263,255.5,263
		s69.538,24.471,95.337,68.903c21.079,36.303,34.628,82.212,39.317,132.097H120.845
		C125.535,414.115,139.084,368.206,160.163,331.903z M119.703,479h271.595c0.324,5.626,0.531,11.297,0.63,17H119.073
		C119.172,490.297,119.379,484.626,119.703,479z"/>
	<path d="M343,167.5c0-4.143-3.358-7.5-7.5-7.5h-160c-4.142,0-7.5,3.357-7.5,7.5s3.358,7.5,7.5,7.5h160
		C339.642,175,343,171.643,343,167.5z"/>
	<path d="M159.5,391h48c20.474,0,38.38-11.152,48-27.692c9.62,16.54,27.526,27.692,48,27.692h48c4.142,0,7.5-3.357,7.5-7.5
		s-3.358-7.5-7.5-7.5h-48c-22.332,0-40.5-18.168-40.5-40.5c0-4.143-3.358-7.5-7.5-7.5s-7.5,3.357-7.5,7.5
		c0,22.332-18.168,40.5-40.5,40.5h-48c-4.142,0-7.5,3.357-7.5,7.5S155.358,391,159.5,391z"/>
</g>
<g>
</g>
<g>
</g>
<g>
</g>
<g>
</g>
<g>
</g>
<g>
</g>
<g>
</g>
<g>
</g>
<g>
</g>
<g>
</g>
<g>
</g>
<g>
</g>
<g>
</g>
<g>
</g>
<g>
</g>
</svg>
