<?xml version="1.0" encoding="iso-8859-1"?>
<!-- Generator: Adobe Illustrator 17.1.0, SVG Export Plug-In . SVG Version: 6.00 Build 0)  -->
<!DOCTYPE svg PUBLIC "-//W3C//DTD SVG 1.1//EN" "http://www.w3.org/Graphics/SVG/1.1/DTD/svg11.dtd">
<svg version="1.1" id="Capa_1" xmlns="http://www.w3.org/2000/svg" xmlns:xlink="http://www.w3.org/1999/xlink" x="0px" y="0px"
	 viewBox="0 0 511 511" style="enable-background:new 0 0 511 511;" xml:space="preserve">
<g>
	<path d="M487.5,72h-464C10.542,72,0,82.542,0,95.5v15.998c0,0.059,0.007,0.115,0.009,0.174c0.003,0.138,0.01,0.275,0.021,0.412
		c0.009,0.117,0.021,0.233,0.035,0.349c0.015,0.122,0.034,0.243,0.056,0.365c0.022,0.125,0.045,0.248,0.073,0.37
		c0.026,0.113,0.055,0.224,0.086,0.336c0.034,0.122,0.069,0.244,0.109,0.364c0.038,0.115,0.081,0.227,0.125,0.34
		c0.042,0.109,0.085,0.218,0.132,0.325c0.054,0.123,0.114,0.244,0.176,0.365c0.046,0.09,0.092,0.18,0.141,0.268
		c0.073,0.131,0.153,0.259,0.234,0.385c0.047,0.073,0.094,0.146,0.143,0.218c0.09,0.13,0.186,0.256,0.284,0.38
		c0.052,0.066,0.104,0.131,0.158,0.195c0.1,0.118,0.205,0.232,0.313,0.345c0.064,0.067,0.129,0.133,0.196,0.197
		c0.104,0.1,0.211,0.197,0.322,0.292c0.082,0.071,0.166,0.139,0.251,0.207c0.057,0.045,0.11,0.095,0.169,0.139L212.897,273.23
		c12.414,9.21,27.146,14.078,42.603,14.078s30.189-4.868,42.603-14.078l209.866-155.707c0.059-0.044,0.111-0.094,0.169-0.139
		c0.085-0.067,0.169-0.136,0.251-0.207c0.11-0.095,0.218-0.192,0.322-0.292c0.067-0.064,0.131-0.13,0.196-0.197
		c0.108-0.113,0.213-0.227,0.313-0.345c0.054-0.064,0.106-0.129,0.158-0.195c0.099-0.125,0.195-0.25,0.284-0.38
		c0.05-0.071,0.096-0.145,0.143-0.218c0.082-0.127,0.161-0.254,0.234-0.385c0.049-0.088,0.095-0.178,0.141-0.268
		c0.061-0.121,0.121-0.241,0.176-0.365c0.047-0.107,0.09-0.216,0.132-0.325c0.044-0.113,0.086-0.225,0.125-0.34
		c0.04-0.12,0.075-0.241,0.109-0.364c0.031-0.112,0.061-0.223,0.086-0.336c0.028-0.122,0.051-0.246,0.073-0.37
		c0.021-0.121,0.04-0.242,0.056-0.365c0.014-0.116,0.026-0.232,0.035-0.349c0.011-0.137,0.018-0.274,0.021-0.412
		c0.001-0.058,0.009-0.115,0.009-0.174V95.5C511,82.542,500.458,72,487.5,72z M289.166,261.184c-20.137,14.94-47.194,14.94-67.331,0
		L15,107.726V95.5c0-4.687,3.813-8.5,8.5-8.5h464c4.687,0,8.5,3.813,8.5,8.5v12.226L289.166,261.184z"/>
	<path d="M503.5,144c-4.142,0-7.5,3.358-7.5,7.5v232c0,22.332-18.168,40.5-40.5,40.5h-400C33.168,424,15,405.832,15,383.5v-232
		c0-4.142-3.358-7.5-7.5-7.5S0,147.358,0,151.5v232C0,414.103,24.897,439,55.5,439h400c30.603,0,55.5-24.897,55.5-55.5v-232
		C511,147.358,507.642,144,503.5,144z"/>
</g>
<g>
</g>
<g>
</g>
<g>
</g>
<g>
</g>
<g>
</g>
<g>
</g>
<g>
</g>
<g>
</g>
<g>
</g>
<g>
</g>
<g>
</g>
<g>
</g>
<g>
</g>
<g>
</g>
<g>
</g>
</svg>
