<?xml version="1.0" encoding="iso-8859-1"?>
<!-- Generator: Adobe Illustrator 17.1.0, SVG Export Plug-In . SVG Version: 6.00 Build 0)  -->
<!DOCTYPE svg PUBLIC "-//W3C//DTD SVG 1.1//EN" "http://www.w3.org/Graphics/SVG/1.1/DTD/svg11.dtd">
<svg version="1.1" id="Capa_1" xmlns="http://www.w3.org/2000/svg" xmlns:xlink="http://www.w3.org/1999/xlink" x="0px" y="0px"
	 viewBox="0 0 511 511" style="enable-background:new 0 0 511 511;" xml:space="preserve">
<path d="M503.5,248h-8.628c-1.869-61.161-26.557-118.389-70.02-161.852C381.389,42.685,324.161,17.997,263,16.128V7.5
	c0-4.143-3.358-7.5-7.5-7.5S248,3.357,248,7.5v8.628c-61.161,1.869-118.389,26.557-161.852,70.02
	C42.685,129.611,17.998,186.839,16.128,248H7.5c-4.142,0-7.5,3.357-7.5,7.5s3.358,7.5,7.5,7.5h8.628
	c1.869,61.161,26.557,118.389,70.02,161.852c43.463,43.464,100.691,68.151,161.852,70.02v8.628c0,4.143,3.358,7.5,7.5,7.5
	s7.5-3.357,7.5-7.5v-8.628c61.161-1.869,118.389-26.557,161.852-70.02c43.463-43.463,68.15-100.69,70.02-161.852h8.628
	c4.142,0,7.5-3.357,7.5-7.5S507.642,248,503.5,248z M255.5,480c-57.458,0-111.613-21.453-153.345-60.548l74.359-74.359
	C197.589,363.694,225.247,375,255.5,375s57.911-11.306,78.985-29.908l74.359,74.359C367.113,458.547,312.958,480,255.5,480z
	 M255.5,360C197.878,360,151,313.121,151,255.5S197.878,151,255.5,151S360,197.879,360,255.5S313.122,360,255.5,360z
	 M334.485,165.908C313.411,147.306,285.753,136,255.5,136s-57.911,11.306-78.985,29.908l-74.359-74.359
	C143.887,52.453,198.042,31,255.5,31s111.613,21.453,153.345,60.548L334.485,165.908z M91.548,102.155l74.359,74.359
	C147.306,197.589,136,225.247,136,255.5s11.306,57.911,29.908,78.985l-74.359,74.359C52.453,367.113,31,312.958,31,255.5
	S52.453,143.887,91.548,102.155z M419.452,408.845l-74.359-74.359C363.694,313.411,375,285.753,375,255.5
	s-11.306-57.911-29.908-78.985l74.359-74.359C458.547,143.887,480,198.042,480,255.5S458.547,367.113,419.452,408.845z"/>
<g>
</g>
<g>
</g>
<g>
</g>
<g>
</g>
<g>
</g>
<g>
</g>
<g>
</g>
<g>
</g>
<g>
</g>
<g>
</g>
<g>
</g>
<g>
</g>
<g>
</g>
<g>
</g>
<g>
</g>
</svg>
