<?xml version="1.0" encoding="iso-8859-1"?>
<!-- Generator: Adobe Illustrator 17.1.0, SVG Export Plug-In . SVG Version: 6.00 Build 0)  -->
<!DOCTYPE svg PUBLIC "-//W3C//DTD SVG 1.1//EN" "http://www.w3.org/Graphics/SVG/1.1/DTD/svg11.dtd">
<svg version="1.1" id="Capa_1" xmlns="http://www.w3.org/2000/svg" xmlns:xlink="http://www.w3.org/1999/xlink" x="0px" y="0px"
	 viewBox="0 0 493.661 493.661" style="enable-background:new 0 0 493.661 493.661;" xml:space="preserve">
<g>
	<path d="M382.951,235.038c-5.624-10.204-15.937-16.295-27.587-16.295H254.337L285.05,22.591
		c1.479-9.444-3.554-18.009-12.524-21.314c-8.969-3.304-18.356-0.051-23.358,8.093L111.45,233.644
		c-6.062,9.872-6.296,21.796-0.626,31.899c5.669,10.103,16.011,16.131,27.555,16.084l101.339-0.273l-30.784,189.607
		c-1.526,9.402,3.433,17.986,12.34,21.361c2.384,0.903,4.804,1.339,7.167,1.339c6.464,0,12.503-3.265,16.228-9.162l137.328-217.435
		C388.218,257.213,388.575,245.241,382.951,235.038z M369.314,259.054L231.986,476.489c-1.771,2.805-4.365,2.195-5.398,1.806
		c-1.033-0.392-3.379-1.655-2.848-4.93l32.201-198.333c0.353-2.174-0.268-4.394-1.697-6.07c-1.425-1.67-3.511-2.632-5.706-2.632
		c-0.006,0-0.014,0-0.02,0l-110.18,0.297c-0.016,0-0.031,0-0.047,0c-6.049,0-11.424-3.147-14.387-8.425
		c-2.97-5.292-2.847-11.539,0.328-16.709L261.95,17.219c1.742-2.837,4.35-2.251,5.391-1.868c1.041,0.384,3.405,1.63,2.89,4.919
		l-32.069,204.813c-0.339,2.166,0.286,4.371,1.711,6.036c1.425,1.665,3.507,2.624,5.699,2.624h109.792
		c6.103,0,11.504,3.191,14.45,8.535C372.76,247.623,372.573,253.894,369.314,259.054z"/>
	<path d="M231.74,107.716c-4.089-0.637-7.929,2.157-8.57,6.25l-12.388,79.117c-0.641,4.092,2.157,7.929,6.25,8.57
		c0.393,0.062,0.784,0.091,1.169,0.091c3.63,0,6.821-2.642,7.4-6.341l12.388-79.117C238.63,112.194,235.832,108.357,231.74,107.716z
		"/>
	<path d="M344.854,251.902c-3.502-2.212-8.134-1.165-10.346,2.336l-60.631,96c-2.212,3.502-1.166,8.134,2.336,10.346
		c1.243,0.785,2.628,1.16,3.998,1.16c2.488,0,4.922-1.237,6.349-3.496l60.631-96C349.402,258.746,348.356,254.113,344.854,251.902z"
		/>
</g>
<g>
</g>
<g>
</g>
<g>
</g>
<g>
</g>
<g>
</g>
<g>
</g>
<g>
</g>
<g>
</g>
<g>
</g>
<g>
</g>
<g>
</g>
<g>
</g>
<g>
</g>
<g>
</g>
<g>
</g>
</svg>
