<?xml version="1.0" encoding="iso-8859-1"?>
<!-- Generator: Adobe Illustrator 17.1.0, SVG Export Plug-In . SVG Version: 6.00 Build 0)  -->
<!DOCTYPE svg PUBLIC "-//W3C//DTD SVG 1.1//EN" "http://www.w3.org/Graphics/SVG/1.1/DTD/svg11.dtd">
<svg version="1.1" id="Capa_1" xmlns="http://www.w3.org/2000/svg" xmlns:xlink="http://www.w3.org/1999/xlink" x="0px" y="0px"
	 viewBox="0 0 511 511" style="enable-background:new 0 0 511 511;" xml:space="preserve">
<g>
	<path d="M490.058,74.434l-53.492-53.492c-27.878-27.877-73.238-27.877-101.116,0l-112,112
		c-13.505,13.505-20.942,31.461-20.942,50.559c0,7.833,1.271,15.466,3.678,22.686c-7.22-2.407-14.853-3.678-22.685-3.678
		c-19.098,0-37.054,7.437-50.558,20.941l-112,112C7.437,348.954,0,366.91,0,386.008c0,19.099,7.437,37.054,20.942,50.559
		l53.492,53.492c13.939,13.938,32.249,20.907,50.558,20.907s36.619-6.969,50.558-20.907l112-112
		c13.505-13.505,20.942-31.461,20.942-50.559c0-7.833-1.271-15.466-3.678-22.686c7.22,2.407,14.853,3.678,22.685,3.678
		c19.098,0,37.054-7.437,50.558-20.941l112-112C503.563,162.046,511,144.09,511,124.992C511,105.894,503.563,87.939,490.058,74.434z
		 M479.452,164.944l-112,112c-10.671,10.672-24.86,16.549-39.952,16.549c-15.068,0-29.235-5.86-39.9-16.499
		c-0.017-0.017-0.032-0.035-0.049-0.052c-0.016-0.016-0.034-0.03-0.051-0.046l-2.68-2.681c-2.928-2.93-7.677-2.929-10.606-0.001
		c-2.929,2.929-2.93,7.678-0.001,10.606l2.729,2.73c0.015,0.015,0.031,0.029,0.046,0.044c10.643,10.666,16.504,24.834,16.504,39.905
		c0,15.092-5.877,29.28-16.548,39.951l-112,112c-11.016,11.017-25.481,16.523-39.952,16.522
		c-14.467-0.002-28.938-5.509-39.952-16.522l-53.492-53.492C20.877,415.288,15,401.1,15,386.008s5.877-29.28,16.548-39.951l112-112
		c10.671-10.672,24.86-16.549,39.952-16.549c15.073,0,29.243,5.863,39.91,16.509c0.013,0.013,0.025,0.027,0.039,0.041l2.726,2.727
		c2.928,2.93,7.677,2.929,10.606,0.001c2.929-2.929,2.93-7.678,0.001-10.606l-2.683-2.684c-0.015-0.015-0.027-0.031-0.042-0.046
		c-0.015-0.015-0.031-0.029-0.046-0.044c-10.643-10.666-16.504-24.834-16.504-39.905c0-15.092,5.877-29.28,16.548-39.951l112-112
		c22.03-22.031,57.875-22.029,79.903,0l53.492,53.492C490.123,95.712,496,109.901,496,124.992S490.123,154.273,479.452,164.944z"/>
	<path d="M354.197,146.197l-208,208c-2.929,2.93-2.929,7.678,0,10.607c1.464,1.464,3.384,2.196,5.303,2.196s3.839-0.732,5.303-2.196
		l208-208c2.929-2.93,2.929-7.678,0-10.607C361.875,143.269,357.125,143.269,354.197,146.197z"/>
</g>
<g>
</g>
<g>
</g>
<g>
</g>
<g>
</g>
<g>
</g>
<g>
</g>
<g>
</g>
<g>
</g>
<g>
</g>
<g>
</g>
<g>
</g>
<g>
</g>
<g>
</g>
<g>
</g>
<g>
</g>
</svg>
