<?xml version="1.0" encoding="iso-8859-1"?>
<!-- Generator: Adobe Illustrator 17.1.0, SVG Export Plug-In . SVG Version: 6.00 Build 0)  -->
<!DOCTYPE svg PUBLIC "-//W3C//DTD SVG 1.1//EN" "http://www.w3.org/Graphics/SVG/1.1/DTD/svg11.dtd">
<svg version="1.1" id="Capa_1" xmlns="http://www.w3.org/2000/svg" xmlns:xlink="http://www.w3.org/1999/xlink" x="0px" y="0px"
	 viewBox="0 0 511 511" style="enable-background:new 0 0 511 511;" xml:space="preserve">
<g>
	<path d="M455.5,48h-400C24.897,48,0,72.897,0,103.5v304C0,438.103,24.897,463,55.5,463h400c30.603,0,55.5-24.897,55.5-55.5v-304
		C511,72.897,486.103,48,455.5,48z M496,407.5c0,22.332-18.168,40.5-40.5,40.5h-400C33.168,448,15,429.832,15,407.5v-304
		C15,81.168,33.168,63,55.5,63h400c22.332,0,40.5,18.168,40.5,40.5V407.5z"/>
	<path d="M119.5,120h-32C74.542,120,64,130.542,64,143.5v32c0,12.958,10.542,23.5,23.5,23.5h32c12.958,0,23.5-10.542,23.5-23.5v-32
		C143,130.542,132.458,120,119.5,120z M128,175.5c0,4.687-3.813,8.5-8.5,8.5h-32c-4.687,0-8.5-3.813-8.5-8.5v-32
		c0-4.687,3.813-8.5,8.5-8.5h32c4.687,0,8.5,3.813,8.5,8.5V175.5z"/>
	<path d="M431.5,152h-248c-4.142,0-7.5,3.358-7.5,7.5s3.358,7.5,7.5,7.5h248c4.142,0,7.5-3.358,7.5-7.5S435.642,152,431.5,152z"/>
	<path d="M119.5,216h-32C74.542,216,64,226.542,64,239.5v32c0,12.958,10.542,23.5,23.5,23.5h32c12.958,0,23.5-10.542,23.5-23.5v-32
		C143,226.542,132.458,216,119.5,216z M128,271.5c0,4.687-3.813,8.5-8.5,8.5h-32c-4.687,0-8.5-3.813-8.5-8.5v-32
		c0-4.687,3.813-8.5,8.5-8.5h32c4.687,0,8.5,3.813,8.5,8.5V271.5z"/>
	<path d="M431.5,248h-248c-4.142,0-7.5,3.358-7.5,7.5s3.358,7.5,7.5,7.5h248c4.142,0,7.5-3.358,7.5-7.5S435.642,248,431.5,248z"/>
	<path d="M119.5,312h-32C74.542,312,64,322.542,64,335.5v32c0,12.958,10.542,23.5,23.5,23.5h32c12.958,0,23.5-10.542,23.5-23.5v-32
		C143,322.542,132.458,312,119.5,312z M128,367.5c0,4.687-3.813,8.5-8.5,8.5h-32c-4.687,0-8.5-3.813-8.5-8.5v-32
		c0-4.687,3.813-8.5,8.5-8.5h32c4.687,0,8.5,3.813,8.5,8.5V367.5z"/>
	<path d="M431.5,344h-248c-4.142,0-7.5,3.358-7.5,7.5s3.358,7.5,7.5,7.5h248c4.142,0,7.5-3.358,7.5-7.5S435.642,344,431.5,344z"/>
</g>
<g>
</g>
<g>
</g>
<g>
</g>
<g>
</g>
<g>
</g>
<g>
</g>
<g>
</g>
<g>
</g>
<g>
</g>
<g>
</g>
<g>
</g>
<g>
</g>
<g>
</g>
<g>
</g>
<g>
</g>
</svg>
