<?xml version="1.0" encoding="iso-8859-1"?>
<!-- Generator: Adobe Illustrator 17.1.0, SVG Export Plug-In . SVG Version: 6.00 Build 0)  -->
<!DOCTYPE svg PUBLIC "-//W3C//DTD SVG 1.1//EN" "http://www.w3.org/Graphics/SVG/1.1/DTD/svg11.dtd">
<svg version="1.1" id="Capa_1" xmlns="http://www.w3.org/2000/svg" xmlns:xlink="http://www.w3.org/1999/xlink" x="0px" y="0px"
	 viewBox="0 0 511 511" style="enable-background:new 0 0 511 511;" xml:space="preserve">
<g>
	<path d="M398.575,233.969c0.27-0.774,0.425-1.603,0.425-2.469v-88C399,64.374,334.626,0,255.5,0S112,64.374,112,143.5v88
		c0,0.866,0.154,1.695,0.425,2.469C92.014,262.648,80,297.697,80,335.5C80,432.271,158.729,511,255.5,511S431,432.271,431,335.5
		C431,297.697,418.986,262.648,398.575,233.969z M127,143.5C127,72.645,184.645,15,255.5,15S384,72.645,384,143.5v72.605
		C351.932,181.616,306.197,160,255.5,160s-96.432,21.616-128.5,56.105V143.5z M255.5,496C167,496,95,424,95,335.5S167,175,255.5,175
		S416,247,416,335.5S344,496,255.5,496z"/>
	<path d="M255.5,272c-26.191,0-47.5,21.309-47.5,47.5c0,23.64,17.36,43.295,40,46.902V415.5c0,4.142,3.358,7.5,7.5,7.5
		s7.5-3.358,7.5-7.5v-49.098c22.64-3.607,40-23.263,40-46.902C303,293.309,281.691,272,255.5,272z M255.5,352
		c-17.92,0-32.5-14.579-32.5-32.5s14.58-32.5,32.5-32.5s32.5,14.579,32.5,32.5S273.42,352,255.5,352z"/>
	<path d="M395.004,301.738c-6.171-25.585-19.324-48.999-38.037-67.711c-18.713-18.712-42.127-31.863-67.712-38.033
		c-4.026-0.972-8.078,1.506-9.049,5.533c-0.971,4.026,1.506,8.078,5.533,9.049c22.9,5.522,43.863,17.299,60.623,34.059
		c16.76,16.759,28.538,37.721,34.061,60.62c0.829,3.436,3.9,5.743,7.285,5.743c0.583,0,1.174-0.068,1.765-0.21
		C393.498,309.816,395.975,305.765,395.004,301.738z"/>
</g>
<g>
</g>
<g>
</g>
<g>
</g>
<g>
</g>
<g>
</g>
<g>
</g>
<g>
</g>
<g>
</g>
<g>
</g>
<g>
</g>
<g>
</g>
<g>
</g>
<g>
</g>
<g>
</g>
<g>
</g>
</svg>
