<?xml version="1.0" encoding="iso-8859-1"?>
<!-- Generator: Adobe Illustrator 17.1.0, SVG Export Plug-In . SVG Version: 6.00 Build 0)  -->
<!DOCTYPE svg PUBLIC "-//W3C//DTD SVG 1.1//EN" "http://www.w3.org/Graphics/SVG/1.1/DTD/svg11.dtd">
<svg version="1.1" id="Capa_1" xmlns="http://www.w3.org/2000/svg" xmlns:xlink="http://www.w3.org/1999/xlink" x="0px" y="0px"
	 viewBox="0 0 509.06 509.06" style="enable-background:new 0 0 509.06 509.06;" xml:space="preserve">
<g>
	<path d="M430.53,0h-352c-21.78,0-39.5,17.72-39.5,39.5v352c0,21.78,17.72,39.5,39.5,39.5h84.894l68.833,68.832
		c5.949,5.95,13.86,9.228,22.274,9.228s16.325-3.277,22.274-9.227L345.636,431h84.894c21.78,0,39.5-17.72,39.5-39.5v-352
		C470.03,17.72,452.31,0,430.53,0z M455.03,391.5c0,13.51-10.991,24.5-24.5,24.5h-88c-1.989,0-3.897,0.79-5.303,2.196l-71.029,71.03
		c-3.117,3.116-7.26,4.833-11.667,4.833s-8.551-1.717-11.667-4.834l-71.029-71.029c-1.406-1.406-3.314-2.196-5.303-2.196h-88
		c-13.509,0-24.5-10.99-24.5-24.5v-352c0-13.51,10.991-24.5,24.5-24.5h352c13.509,0,24.5,10.99,24.5,24.5V391.5z"/>
	<path d="M364.527,255.633l-31.113-9.594c-4.699-1.448-9.626-0.519-13.415,2.115c-0.173-0.034-0.345-0.071-0.522-0.093l-5.687-0.725
		c-2.344-1.565-3.761-4.183-3.761-7.058v-7.894c15.26-14.902,24-35.53,24-56.885v-56c0-35.014-28.486-63.5-63.5-63.5h-32
		c-35.014,0-63.5,28.486-63.5,63.5v53.533c0,22.899,9.174,43.759,24,58.704v8.541c0,2.875-1.417,5.492-3.761,7.058l-5.687,0.725
		c-0.177,0.022-0.348,0.059-0.52,0.093c-3.788-2.634-8.714-3.564-13.416-2.115l-31.114,9.594
		c-20.039,6.18-33.503,24.421-33.503,45.391V351.5c0,12.958,10.542,23.5,23.5,23.5h240c12.958,0,23.5-10.542,23.5-23.5v-50.477
		C398.03,280.054,384.566,261.813,364.527,255.633z M190.03,119.5c0-26.743,21.757-48.5,48.5-48.5h32
		c26.743,0,48.5,21.757,48.5,48.5v56c0,18.021-7.245,34.737-20.4,47.068c-13.144,12.321-30.333,18.46-48.407,17.292
		c-33.752-2.186-60.192-31.539-60.192-66.827V119.5z M201.039,261.297c7.043-3.521,11.738-10.169,12.772-17.811
		c10.476,6.463,22.523,10.506,35.442,11.343c1.79,0.116,3.573,0.174,5.348,0.174c14.544,0,28.474-3.889,40.691-11.229
		c1.113,7.52,5.775,14.046,12.729,17.522c0.755,0.378,1.568,0.625,2.406,0.731l0.789,0.1c-9.273,17.08-26.058,29.385-45.4,32.818
		c-0.548,0.102-1.104,0.178-1.659,0.257l-1.457,0.208c-0.795,0.114-1.546,0.223-2.26,0.288c-4.257,0.404-7.54,0.406-11.844-0.002
		c-0.69-0.063-1.441-0.172-2.236-0.286l-1.457-0.208c-0.556-0.079-1.111-0.155-1.708-0.266
		c-19.299-3.425-36.078-15.729-45.352-32.809l0.789-0.1C199.47,261.922,200.284,261.675,201.039,261.297z M383.03,351.5
		c0,4.687-3.813,8.5-8.5,8.5h-240c-4.687,0-8.5-3.813-8.5-8.5v-50.477c0-14.348,9.212-26.828,22.923-31.057l31.114-9.594
		c0.053-0.017,0.105-0.023,0.156-0.023c0.169,0,0.315,0.081,0.355,0.186c10.032,25.542,33.021,44.384,59.947,49.163
		c0.752,0.139,1.513,0.248,2.274,0.356l1.417,0.202c0.95,0.137,1.932,0.279,2.985,0.376c5.209,0.494,9.471,0.492,14.632,0.002
		c1.078-0.099,2.06-0.241,3.009-0.378l1.417-0.202c0.762-0.108,1.522-0.218,2.226-0.348c26.975-4.788,49.964-23.63,59.996-49.173
		c0.052-0.135,0.283-0.233,0.512-0.161h0l31.114,9.594c13.711,4.229,22.923,16.709,22.923,31.057V351.5z"/>
</g>
<g>
</g>
<g>
</g>
<g>
</g>
<g>
</g>
<g>
</g>
<g>
</g>
<g>
</g>
<g>
</g>
<g>
</g>
<g>
</g>
<g>
</g>
<g>
</g>
<g>
</g>
<g>
</g>
<g>
</g>
</svg>
