<?xml version="1.0" encoding="iso-8859-1"?>
<!-- Generator: Adobe Illustrator 17.1.0, SVG Export Plug-In . SVG Version: 6.00 Build 0)  -->
<!DOCTYPE svg PUBLIC "-//W3C//DTD SVG 1.1//EN" "http://www.w3.org/Graphics/SVG/1.1/DTD/svg11.dtd">
<svg version="1.1" id="Capa_1" xmlns="http://www.w3.org/2000/svg" xmlns:xlink="http://www.w3.org/1999/xlink" x="0px" y="0px"
	 viewBox="0 0 471 471" style="enable-background:new 0 0 471 471;" xml:space="preserve">
<path d="M388.187,292.432l-42.401-10.176c-5.598-1.346-11.266,0.532-14.944,4.45c-4.869-2.991-7.842-8.243-7.842-14.039v-23.873
	c19.843-21.343,32-49.923,32-81.294v-72C355,42.841,312.159,0,259.5,0h-48C158.841,0,116,42.841,116,95.5v72
	c0,31.371,12.157,59.952,32,81.294v23.873c0,5.797-2.974,11.049-7.842,14.04c-3.678-3.917-9.346-5.793-14.944-4.451l-42.4,10.176
	C50.54,300.178,28,328.768,28,361.957V439.5c0,17.369,14.131,31.5,31.5,31.5h352c17.369,0,31.5-14.131,31.5-31.5v-77.543
	C443,328.768,420.46,300.178,388.187,292.432z M131,95.5c0-44.388,36.112-80.5,80.5-80.5h48c44.388,0,80.5,36.112,80.5,80.5v72
	c0,57.621-46.878,104.5-104.5,104.5S131,225.121,131,167.5V95.5z M163,272.667v-10.241C183.122,277.831,208.259,287,235.5,287
	s52.378-9.169,72.5-24.574v10.241c0,11.691,6.336,22.217,16.581,27.722C309.779,336.367,274.973,360,235.5,360
	s-74.279-23.633-89.081-59.611C156.664,294.885,163,284.358,163,272.667z M428,439.5c0,9.098-7.402,16.5-16.5,16.5h-352
	c-9.098,0-16.5-7.402-16.5-16.5v-77.543c0-26.227,17.812-48.818,43.314-54.939l42.399-10.176c0.052-0.013,0.102-0.018,0.148-0.018
	c0.197,0,0.34,0.092,0.36,0.114c7.062,22.476,20.803,41.834,39.739,55.982C188.292,367.365,211.301,375,235.5,375
	s47.208-7.635,66.539-22.079c18.936-14.148,32.677-33.507,39.731-55.969c0.033-0.043,0.245-0.179,0.515-0.11l42.4,10.176
	C410.188,313.139,428,335.73,428,361.957V439.5z"/>
<g>
</g>
<g>
</g>
<g>
</g>
<g>
</g>
<g>
</g>
<g>
</g>
<g>
</g>
<g>
</g>
<g>
</g>
<g>
</g>
<g>
</g>
<g>
</g>
<g>
</g>
<g>
</g>
<g>
</g>
</svg>
