<?xml version="1.0" encoding="iso-8859-1"?>
<!-- Generator: Adobe Illustrator 17.1.0, SVG Export Plug-In . SVG Version: 6.00 Build 0)  -->
<!DOCTYPE svg PUBLIC "-//W3C//DTD SVG 1.1//EN" "http://www.w3.org/Graphics/SVG/1.1/DTD/svg11.dtd">
<svg version="1.1" id="Capa_1" xmlns="http://www.w3.org/2000/svg" xmlns:xlink="http://www.w3.org/1999/xlink" x="0px" y="0px"
	 viewBox="0 0 511 511" style="enable-background:new 0 0 511 511;" xml:space="preserve">
<g>
	<path d="M455.5,40h-400C24.897,40,0,64.897,0,95.5v320C0,446.103,24.897,471,55.5,471h400c30.603,0,55.5-24.897,55.5-55.5v-320
		C511,64.897,486.103,40,455.5,40z M496,415.5c0,22.332-18.168,40.5-40.5,40.5h-400C33.168,456,15,437.832,15,415.5v-320
		C15,73.168,33.168,55,55.5,55h400c22.332,0,40.5,18.168,40.5,40.5V415.5z"/>
	<path d="M399.5,104h-88c-4.142,0-7.5,3.357-7.5,7.5s3.358,7.5,7.5,7.5h69.893L123,377.393V307.5c0-4.143-3.358-7.5-7.5-7.5
		s-7.5,3.357-7.5,7.5v87.998c0,0.248,0.013,0.496,0.037,0.744c0.01,0.107,0.031,0.211,0.046,0.317
		c0.02,0.136,0.036,0.273,0.063,0.408c0.024,0.124,0.059,0.243,0.089,0.364c0.029,0.116,0.055,0.233,0.089,0.347
		c0.036,0.12,0.081,0.236,0.124,0.353c0.041,0.114,0.078,0.228,0.124,0.34c0.045,0.11,0.099,0.215,0.149,0.322
		c0.054,0.115,0.105,0.23,0.165,0.343c0.055,0.103,0.118,0.202,0.178,0.302c0.065,0.109,0.127,0.22,0.199,0.327
		c0.074,0.111,0.157,0.215,0.237,0.322c0.067,0.089,0.129,0.181,0.2,0.268c0.148,0.181,0.305,0.353,0.469,0.519
		c0.01,0.01,0.018,0.021,0.028,0.031c0.011,0.011,0.024,0.021,0.035,0.032c0.164,0.163,0.335,0.318,0.514,0.465
		c0.087,0.071,0.178,0.133,0.267,0.199c0.107,0.08,0.211,0.163,0.323,0.237c0.105,0.071,0.215,0.131,0.323,0.196
		c0.102,0.061,0.202,0.125,0.307,0.182c0.11,0.059,0.223,0.108,0.336,0.162c0.109,0.052,0.217,0.106,0.329,0.152
		c0.11,0.045,0.222,0.082,0.333,0.122c0.119,0.043,0.238,0.089,0.36,0.126c0.111,0.033,0.223,0.058,0.335,0.086
		c0.125,0.032,0.249,0.067,0.377,0.092c0.129,0.025,0.26,0.041,0.39,0.06c0.112,0.016,0.221,0.037,0.334,0.048
		c0.246,0.024,0.493,0.037,0.74,0.037h88c4.142,0,7.5-3.357,7.5-7.5s-3.358-7.5-7.5-7.5h-69.893L392,129.607V199.5
		c0,4.143,3.358,7.5,7.5,7.5s7.5-3.357,7.5-7.5v-88C407,107.357,403.642,104,399.5,104z"/>
</g>
<g>
</g>
<g>
</g>
<g>
</g>
<g>
</g>
<g>
</g>
<g>
</g>
<g>
</g>
<g>
</g>
<g>
</g>
<g>
</g>
<g>
</g>
<g>
</g>
<g>
</g>
<g>
</g>
<g>
</g>
</svg>
