<?xml version="1.0" encoding="iso-8859-1"?>
<!-- Generator: Adobe Illustrator 17.1.0, SVG Export Plug-In . SVG Version: 6.00 Build 0)  -->
<!DOCTYPE svg PUBLIC "-//W3C//DTD SVG 1.1//EN" "http://www.w3.org/Graphics/SVG/1.1/DTD/svg11.dtd">
<svg version="1.1" id="Capa_1" xmlns="http://www.w3.org/2000/svg" xmlns:xlink="http://www.w3.org/1999/xlink" x="0px" y="0px"
	 viewBox="0 0 511 511" style="enable-background:new 0 0 511 511;" xml:space="preserve">
<g>
	<path d="M500.726,15.826c-6.434-4.38-14.598-5.292-21.839-2.439l-240.811,94.865H79.5c-20.764,0-37.825,16.108-39.373,36.483
		C16.249,154.224,0,177.744,0,203.751c0,26.007,16.25,49.527,40.127,59.017c1.548,20.375,18.609,36.483,39.373,36.483h18.312
		l51.194,182.836c2.829,10.106,12.135,17.164,22.629,17.164h54.77c7.417,0,14.242-3.39,18.724-9.299
		c4.482-5.91,5.906-13.395,3.906-20.537l-47.646-170.164h36.688l240.811,94.865c2.786,1.098,5.708,1.638,8.616,1.638
		c4.65,0,9.264-1.382,13.223-4.077c6.434-4.38,10.274-11.642,10.274-19.425v-337C511,27.468,507.159,20.206,500.726,15.826z
		 M15,203.751c0-17.736,9.898-33.953,25-42.383v84.767C24.898,237.704,15,221.486,15,203.751z M55,259.751v-2.405
		c0-0.02,0-0.04,0-0.06v-107.07c0-0.019,0-0.038,0-0.057v-2.407c0-13.509,10.991-24.5,24.5-24.5H232v161H79.5
		C65.991,284.251,55,273.26,55,259.751z M234.59,473.46c0.723,2.583,0.208,5.291-1.413,7.428c-1.621,2.138-4.09,3.364-6.772,3.364
		h-54.77c-3.796,0-7.162-2.553-8.185-6.208l-50.062-178.792h72.423L234.59,473.46z M496,372.251c0,2.857-1.354,5.418-3.716,7.026
		c-2.362,1.608-5.242,1.929-7.899,0.882L247,286.645V120.858l237.385-93.515c2.657-1.046,5.537-0.726,7.899,0.882
		S496,32.394,496,35.251V372.251z"/>
	<path d="M95.5,171.251h56c4.142,0,7.5-3.358,7.5-7.5s-3.358-7.5-7.5-7.5h-56c-4.142,0-7.5,3.358-7.5,7.5
		S91.358,171.251,95.5,171.251z"/>
	<path d="M151.5,236.251h-56c-4.142,0-7.5,3.358-7.5,7.5s3.358,7.5,7.5,7.5h56c4.142,0,7.5-3.358,7.5-7.5
		S155.642,236.251,151.5,236.251z"/>
	<path d="M151.5,196.251h-56c-4.142,0-7.5,3.358-7.5,7.5s3.358,7.5,7.5,7.5h56c4.142,0,7.5-3.358,7.5-7.5
		S155.642,196.251,151.5,196.251z"/>
</g>
<g>
</g>
<g>
</g>
<g>
</g>
<g>
</g>
<g>
</g>
<g>
</g>
<g>
</g>
<g>
</g>
<g>
</g>
<g>
</g>
<g>
</g>
<g>
</g>
<g>
</g>
<g>
</g>
<g>
</g>
</svg>
