<?xml version="1.0" encoding="iso-8859-1"?>
<!-- Generator: Adobe Illustrator 17.1.0, SVG Export Plug-In . SVG Version: 6.00 Build 0)  -->
<!DOCTYPE svg PUBLIC "-//W3C//DTD SVG 1.1//EN" "http://www.w3.org/Graphics/SVG/1.1/DTD/svg11.dtd">
<svg version="1.1" id="Capa_1" xmlns="http://www.w3.org/2000/svg" xmlns:xlink="http://www.w3.org/1999/xlink" x="0px" y="0px"
	 viewBox="0 0 479 479" style="enable-background:new 0 0 479 479;" xml:space="preserve">
<g>
	<path d="M399.5,192.118h-96c-4.142,0-7.5,3.357-7.5,7.5s3.358,7.5,7.5,7.5h96c4.142,0,7.5-3.357,7.5-7.5
		S403.642,192.118,399.5,192.118z"/>
	<path d="M271.5,207.118c4.142,0,7.5-3.357,7.5-7.5s-3.358-7.5-7.5-7.5h-39.997c-4.142,0-7.5,3.357-7.5,7.5s3.358,7.5,7.5,7.5H271.5
		z"/>
	<path d="M79.5,207.118h120.001c4.142,0,7.5-3.357,7.5-7.5s-3.358-7.5-7.5-7.5H79.5c-4.142,0-7.5,3.357-7.5,7.5
		S75.358,207.118,79.5,207.118z"/>
	<path d="M399.5,288.118h-320c-4.142,0-7.5,3.357-7.5,7.5s3.358,7.5,7.5,7.5h320c4.142,0,7.5-3.357,7.5-7.5
		S403.642,288.118,399.5,288.118z"/>
	<path d="M399.5,96.118h-320c-4.142,0-7.5,3.357-7.5,7.5s3.358,7.5,7.5,7.5h320c4.142,0,7.5-3.357,7.5-7.5
		S403.642,96.118,399.5,96.118z"/>
	<path d="M399.5,144.118H183.501c-4.142,0-7.5,3.357-7.5,7.5s3.358,7.5,7.5,7.5H399.5c4.142,0,7.5-3.357,7.5-7.5
		S403.642,144.118,399.5,144.118z"/>
	<path d="M79.5,159.118h72c4.142,0,7.5-3.357,7.5-7.5s-3.358-7.5-7.5-7.5h-72c-4.142,0-7.5,3.357-7.5,7.5
		S75.358,159.118,79.5,159.118z"/>
	<path d="M399.5,240.118h-104c-4.142,0-7.5,3.357-7.5,7.5s3.358,7.5,7.5,7.5h104c4.142,0,7.5-3.357,7.5-7.5
		S403.642,240.118,399.5,240.118z"/>
	<path d="M79.5,255.118h184c4.142,0,7.5-3.357,7.5-7.5s-3.358-7.5-7.5-7.5h-184c-4.142,0-7.5,3.357-7.5,7.5
		S75.358,255.118,79.5,255.118z"/>
	<path d="M423.5,24.118h-368c-30.603,0-55.5,24.897-55.5,55.5v240c0,30.603,24.897,55.5,55.5,55.5h87.875l68.195,68.194
		c7.46,7.461,17.38,11.57,27.931,11.57s20.47-4.109,27.931-11.569l68.195-68.195H423.5c30.603,0,55.5-24.897,55.5-55.5v-240
		C479,49.015,454.103,24.118,423.5,24.118z M464,319.618c0,22.332-18.168,40.5-40.5,40.5h-90.981c-1.989,0-3.897,0.79-5.303,2.196
		l-70.392,70.393c-4.627,4.627-10.78,7.176-17.324,7.176s-12.697-2.549-17.324-7.177l-70.392-70.392
		c-1.406-1.406-3.314-2.196-5.303-2.196H55.5c-22.332,0-40.5-18.168-40.5-40.5v-240c0-22.332,18.168-40.5,40.5-40.5h368
		c22.332,0,40.5,18.168,40.5,40.5V319.618z"/>
</g>
<g>
</g>
<g>
</g>
<g>
</g>
<g>
</g>
<g>
</g>
<g>
</g>
<g>
</g>
<g>
</g>
<g>
</g>
<g>
</g>
<g>
</g>
<g>
</g>
<g>
</g>
<g>
</g>
<g>
</g>
</svg>
