<?xml version="1.0" encoding="iso-8859-1"?>
<!-- Generator: Adobe Illustrator 17.1.0, SVG Export Plug-In . SVG Version: 6.00 Build 0)  -->
<!DOCTYPE svg PUBLIC "-//W3C//DTD SVG 1.1//EN" "http://www.w3.org/Graphics/SVG/1.1/DTD/svg11.dtd">
<svg version="1.1" id="Capa_1" xmlns="http://www.w3.org/2000/svg" xmlns:xlink="http://www.w3.org/1999/xlink" x="0px" y="0px"
	 viewBox="0 0 511 511" style="enable-background:new 0 0 511 511;" xml:space="preserve">
<g>
	<path d="M435.682,94.676C387.493,54.259,323.503,32,255.5,32S123.507,54.259,75.318,94.676C26.749,135.411,0,189.686,0,247.5
		c0,29.652,7.013,58.378,20.843,85.377c12.605,24.606,30.316,46.748,52.682,65.873c-7.462,26.444-21.277,50.214-39.204,67.325
		c-2.217,2.116-2.923,5.369-1.783,8.214c1.14,2.846,3.896,4.711,6.962,4.711c41.221,0,77.667-12.109,108.397-36.001
		C181.725,456.273,217.9,463,255.5,463c68.003,0,131.993-22.259,180.182-62.676C484.251,359.589,511,305.314,511,247.5
		S484.251,135.411,435.682,94.676z M255.5,448c-37.163,0-72.832-6.906-106.015-20.527c-2.549-1.044-5.466-0.61-7.598,1.134
		c-24.264,19.856-52.639,31.437-84.543,34.542c12.032-14.876,24.607-36.175,31.932-65.245c0.709-2.814-0.269-5.786-2.511-7.628
		C40.486,352.255,15,301.55,15,247.5C15,136.944,122.888,47,255.5,47S496,136.944,496,247.5S388.112,448,255.5,448z"/>
	<path d="M423.5,240h-72.003c-4.142,0-7.5,3.357-7.5,7.5s3.358,7.5,7.5,7.5H423.5c4.142,0,7.5-3.357,7.5-7.5S427.642,240,423.5,240z
		"/>
	<path d="M319.497,255c4.142,0,7.5-3.357,7.5-7.5s-3.358-7.5-7.5-7.5H279.5c-4.142,0-7.5,3.357-7.5,7.5s3.358,7.5,7.5,7.5H319.497z"
		/>
	<path d="M87.5,255h159.998c4.142,0,7.5-3.357,7.5-7.5s-3.358-7.5-7.5-7.5H87.5c-4.142,0-7.5,3.357-7.5,7.5S83.358,255,87.5,255z"/>
	<path d="M383.5,336h-256c-4.142,0-7.5,3.357-7.5,7.5s3.358,7.5,7.5,7.5h256c4.142,0,7.5-3.357,7.5-7.5S387.642,336,383.5,336z"/>
	<path d="M127.5,159h256c4.142,0,7.5-3.357,7.5-7.5s-3.358-7.5-7.5-7.5h-256c-4.142,0-7.5,3.357-7.5,7.5S123.358,159,127.5,159z"/>
	<path d="M423.5,192h-272c-4.142,0-7.5,3.357-7.5,7.5s3.358,7.5,7.5,7.5h272c4.142,0,7.5-3.357,7.5-7.5S427.642,192,423.5,192z"/>
	<path d="M87.5,207h31.999c4.142,0,7.5-3.357,7.5-7.5s-3.358-7.5-7.5-7.5H87.5c-4.142,0-7.5,3.357-7.5,7.5S83.358,207,87.5,207z"/>
	<path d="M423.5,288H191.503c-4.142,0-7.5,3.357-7.5,7.5s3.358,7.5,7.5,7.5H423.5c4.142,0,7.5-3.357,7.5-7.5S427.642,288,423.5,288z
		"/>
	<path d="M167.003,295.5c0-4.143-3.358-7.5-7.5-7.5H87.5c-4.142,0-7.5,3.357-7.5,7.5s3.358,7.5,7.5,7.5h72.003
		C163.645,303,167.003,299.643,167.003,295.5z"/>
</g>
<g>
</g>
<g>
</g>
<g>
</g>
<g>
</g>
<g>
</g>
<g>
</g>
<g>
</g>
<g>
</g>
<g>
</g>
<g>
</g>
<g>
</g>
<g>
</g>
<g>
</g>
<g>
</g>
<g>
</g>
</svg>
