<?xml version="1.0" encoding="iso-8859-1"?>
<!-- Generator: Adobe Illustrator 17.1.0, SVG Export Plug-In . SVG Version: 6.00 Build 0)  -->
<!DOCTYPE svg PUBLIC "-//W3C//DTD SVG 1.1//EN" "http://www.w3.org/Graphics/SVG/1.1/DTD/svg11.dtd">
<svg version="1.1" id="Capa_1" xmlns="http://www.w3.org/2000/svg" xmlns:xlink="http://www.w3.org/1999/xlink" x="0px" y="0px"
	 viewBox="0 0 511 511" style="enable-background:new 0 0 511 511;" xml:space="preserve">
<g>
	<path d="M343,199.5c0-4.143-3.358-7.5-7.5-7.5h-152c-4.142,0-7.5,3.357-7.5,7.5s3.358,7.5,7.5,7.5h152
		C339.642,207,343,203.643,343,199.5z"/>
	<path d="M255.5,399c61.481,0,111.5-50.019,111.5-111.5v-176C367,50.019,316.981,0,255.5,0S144,50.019,144,111.5v176
		C144,348.981,194.019,399,255.5,399z M159,111.5c0-53.21,43.29-96.5,96.5-96.5S352,58.29,352,111.5v176
		c0,53.21-43.29,96.5-96.5,96.5S159,340.71,159,287.5V111.5z"/>
	<path d="M407.5,192h-8c-8.547,0-15.5,6.953-15.5,15.5v80c0,33.896-13.081,65.878-36.834,90.054
		c-23.723,24.145-55.404,37.79-89.209,38.423c-33.707,0.625-65.942-12.421-90.735-36.753C141.661,354.137,127,319.405,127,283.936
		V207.5c0-8.547-6.953-15.5-15.5-15.5h-8c-4.142,0-7.5,3.357-7.5,7.5s3.358,7.5,7.5,7.5h8c0.276,0,0.5,0.225,0.5,0.5v76.436
		c0,39.471,16.298,78.104,44.715,105.994c25.177,24.709,57.27,38.995,91.285,40.854V496h-80.5c-4.142,0-7.5,3.357-7.5,7.5
		s3.358,7.5,7.5,7.5h176c4.142,0,7.5-3.357,7.5-7.5s-3.358-7.5-7.5-7.5H263v-65.202c35.959-1.847,69.492-16.907,94.866-42.732
		C384.392,361.068,399,325.354,399,287.5v-80c0-0.275,0.224-0.5,0.5-0.5h8c4.142,0,7.5-3.357,7.5-7.5S411.642,192,407.5,192z"/>
	<path d="M255.5,47c35.565,0,64.5,28.935,64.5,64.5c0,4.143,3.358,7.5,7.5,7.5s7.5-3.357,7.5-7.5c0-43.837-35.664-79.5-79.5-79.5
		c-4.142,0-7.5,3.357-7.5,7.5S251.358,47,255.5,47z"/>
</g>
<g>
</g>
<g>
</g>
<g>
</g>
<g>
</g>
<g>
</g>
<g>
</g>
<g>
</g>
<g>
</g>
<g>
</g>
<g>
</g>
<g>
</g>
<g>
</g>
<g>
</g>
<g>
</g>
<g>
</g>
</svg>
