<?xml version="1.0" encoding="iso-8859-1"?>
<!-- Generator: Adobe Illustrator 17.1.0, SVG Export Plug-In . SVG Version: 6.00 Build 0)  -->
<!DOCTYPE svg PUBLIC "-//W3C//DTD SVG 1.1//EN" "http://www.w3.org/Graphics/SVG/1.1/DTD/svg11.dtd">
<svg version="1.1" id="Capa_1" xmlns="http://www.w3.org/2000/svg" xmlns:xlink="http://www.w3.org/1999/xlink" x="0px" y="0px"
	 viewBox="0 0 511 511" style="enable-background:new 0 0 511 511;" xml:space="preserve">
<g>
	<path d="M455.5,40h-400C24.897,40,0,64.897,0,95.5v320C0,446.103,24.897,471,55.5,471h400c30.603,0,55.5-24.897,55.5-55.5v-320
		C511,64.897,486.103,40,455.5,40z M496,415.5c0,22.332-18.168,40.5-40.5,40.5h-400C33.168,456,15,437.832,15,415.5v-320
		C15,73.168,33.168,55,55.5,55h400c22.332,0,40.5,18.168,40.5,40.5V415.5z"/>
	<path d="M402.197,98.196L279,221.393V151.5c0-4.143-3.358-7.5-7.5-7.5s-7.5,3.357-7.5,7.5v87.998c0,0.248,0.013,0.496,0.037,0.744
		c0.01,0.107,0.031,0.211,0.046,0.317c0.02,0.136,0.036,0.273,0.063,0.408c0.024,0.124,0.059,0.243,0.089,0.364
		c0.029,0.116,0.055,0.233,0.089,0.347c0.036,0.12,0.081,0.236,0.124,0.353c0.041,0.114,0.078,0.228,0.124,0.34
		c0.045,0.11,0.099,0.215,0.149,0.322c0.054,0.115,0.105,0.23,0.165,0.343c0.055,0.103,0.118,0.202,0.178,0.302
		c0.065,0.109,0.127,0.22,0.199,0.327c0.074,0.111,0.157,0.215,0.237,0.322c0.067,0.089,0.129,0.181,0.2,0.268
		c0.148,0.181,0.305,0.353,0.469,0.519c0.01,0.01,0.018,0.021,0.028,0.031c0.011,0.011,0.024,0.021,0.035,0.032
		c0.164,0.163,0.335,0.318,0.514,0.465c0.087,0.071,0.178,0.133,0.267,0.199c0.107,0.08,0.211,0.163,0.323,0.237
		c0.105,0.071,0.215,0.131,0.323,0.196c0.102,0.061,0.202,0.125,0.307,0.182c0.11,0.059,0.223,0.108,0.336,0.162
		c0.109,0.052,0.217,0.106,0.329,0.152c0.11,0.045,0.222,0.082,0.333,0.122c0.119,0.043,0.238,0.089,0.36,0.126
		c0.111,0.033,0.223,0.058,0.335,0.086c0.125,0.032,0.249,0.067,0.377,0.092c0.129,0.025,0.26,0.041,0.39,0.06
		c0.112,0.016,0.221,0.037,0.334,0.048c0.246,0.024,0.493,0.037,0.74,0.037h88c4.142,0,7.5-3.357,7.5-7.5s-3.358-7.5-7.5-7.5
		h-69.893l123.196-123.196c2.929-2.93,2.929-7.678,0-10.607C409.875,95.269,405.125,95.269,402.197,98.196z"/>
	<path d="M246.963,270.759c-0.01-0.107-0.031-0.211-0.046-0.317c-0.02-0.136-0.036-0.273-0.063-0.408
		c-0.024-0.124-0.059-0.243-0.089-0.364c-0.029-0.116-0.055-0.233-0.089-0.347c-0.036-0.12-0.081-0.235-0.123-0.352
		c-0.041-0.114-0.078-0.229-0.125-0.342c-0.045-0.109-0.099-0.214-0.149-0.321c-0.054-0.115-0.105-0.231-0.166-0.344
		c-0.055-0.103-0.118-0.202-0.178-0.302c-0.065-0.109-0.127-0.22-0.199-0.327c-0.074-0.111-0.157-0.215-0.237-0.322
		c-0.067-0.089-0.129-0.181-0.2-0.268c-0.148-0.181-0.305-0.353-0.469-0.519c-0.01-0.01-0.018-0.021-0.028-0.031
		c-0.011-0.011-0.024-0.021-0.035-0.032c-0.164-0.163-0.335-0.318-0.514-0.465c-0.086-0.071-0.177-0.132-0.266-0.199
		c-0.107-0.081-0.212-0.164-0.323-0.238c-0.104-0.07-0.212-0.13-0.318-0.194c-0.104-0.062-0.206-0.127-0.313-0.185
		c-0.106-0.057-0.215-0.104-0.323-0.155c-0.114-0.054-0.227-0.111-0.344-0.16c-0.103-0.042-0.208-0.076-0.312-0.114
		c-0.126-0.046-0.252-0.094-0.381-0.134c-0.102-0.03-0.205-0.052-0.307-0.079c-0.135-0.035-0.268-0.072-0.406-0.099
		c-0.112-0.022-0.224-0.034-0.336-0.051c-0.13-0.02-0.258-0.043-0.39-0.056c-0.185-0.018-0.371-0.024-0.557-0.028
		c-0.06-0.001-0.118-0.009-0.178-0.009h-88c-4.142,0-7.5,3.357-7.5,7.5s3.358,7.5,7.5,7.5h69.893L98.197,402.196
		c-2.929,2.93-2.929,7.678,0,10.607c1.464,1.464,3.384,2.196,5.303,2.196s3.839-0.732,5.303-2.196L232,289.607V359.5
		c0,4.143,3.358,7.5,7.5,7.5s7.5-3.357,7.5-7.5v-87.998C247,271.254,246.987,271.006,246.963,270.759z"/>
</g>
<g>
</g>
<g>
</g>
<g>
</g>
<g>
</g>
<g>
</g>
<g>
</g>
<g>
</g>
<g>
</g>
<g>
</g>
<g>
</g>
<g>
</g>
<g>
</g>
<g>
</g>
<g>
</g>
<g>
</g>
</svg>
