<?xml version="1.0" encoding="iso-8859-1"?>
<!-- Generator: Adobe Illustrator 17.1.0, SVG Export Plug-In . SVG Version: 6.00 Build 0)  -->
<!DOCTYPE svg PUBLIC "-//W3C//DTD SVG 1.1//EN" "http://www.w3.org/Graphics/SVG/1.1/DTD/svg11.dtd">
<svg version="1.1" id="Capa_1" xmlns="http://www.w3.org/2000/svg" xmlns:xlink="http://www.w3.org/1999/xlink" x="0px" y="0px"
	 viewBox="0 0 511 511" style="enable-background:new 0 0 511 511;" xml:space="preserve">
<g>
	<path d="M175.5,175H248v17h-40.5c-4.142,0-7.5,3.357-7.5,7.5s3.358,7.5,7.5,7.5h96c4.142,0,7.5-3.357,7.5-7.5s-3.358-7.5-7.5-7.5
		H263v-17h72.5c17.369,0,31.5-14.131,31.5-31.5v-104C367,22.131,352.869,8,335.5,8h-160C158.131,8,144,22.131,144,39.5v104
		C144,160.869,158.131,175,175.5,175z M335.5,160h-160c-9.098,0-16.5-7.402-16.5-16.5V143h193v0.5
		C352,152.598,344.598,160,335.5,160z M175.5,23h160c9.098,0,16.5,7.402,16.5,16.5V128H159V39.5C159,30.402,166.402,23,175.5,23z"/>
	<path d="M191.5,304h-160C14.131,304,0,318.131,0,335.5v104C0,456.869,14.131,471,31.5,471H104v17H63.5c-4.142,0-7.5,3.357-7.5,7.5
		s3.358,7.5,7.5,7.5h96c4.142,0,7.5-3.357,7.5-7.5s-3.358-7.5-7.5-7.5H119v-17h72.5c17.369,0,31.5-14.131,31.5-31.5v-104
		C223,318.131,208.869,304,191.5,304z M31.5,319h160c9.098,0,16.5,7.402,16.5,16.5V424H15v-88.5C15,326.402,22.402,319,31.5,319z
		 M191.5,456h-160c-9.098,0-16.5-7.402-16.5-16.5V439h193v0.5C208,448.598,200.598,456,191.5,456z"/>
	<path d="M479.5,304h-160c-17.369,0-31.5,14.131-31.5,31.5v104c0,17.369,14.131,31.5,31.5,31.5H392v17h-40.5
		c-4.142,0-7.5,3.357-7.5,7.5s3.358,7.5,7.5,7.5h96c4.142,0,7.5-3.357,7.5-7.5s-3.358-7.5-7.5-7.5H407v-17h72.5
		c17.369,0,31.5-14.131,31.5-31.5v-104C511,318.131,496.869,304,479.5,304z M319.5,319h160c9.098,0,16.5,7.402,16.5,16.5V424H303
		v-88.5C303,326.402,310.402,319,319.5,319z M479.5,456h-160c-9.098,0-16.5-7.402-16.5-16.5V439h193v0.5
		C496,448.598,488.598,456,479.5,456z"/>
	<path d="M392,279.5c0,4.143,3.358,7.5,7.5,7.5s7.5-3.357,7.5-7.5c0-17.369-14.131-31.5-31.5-31.5H263v-16.5
		c0-4.143-3.358-7.5-7.5-7.5s-7.5,3.357-7.5,7.5V248H135.5c-17.369,0-31.5,14.131-31.5,31.5c0,4.143,3.358,7.5,7.5,7.5
		s7.5-3.357,7.5-7.5c0-9.098,7.402-16.5,16.5-16.5h240C384.598,263,392,270.402,392,279.5z"/>
</g>
<g>
</g>
<g>
</g>
<g>
</g>
<g>
</g>
<g>
</g>
<g>
</g>
<g>
</g>
<g>
</g>
<g>
</g>
<g>
</g>
<g>
</g>
<g>
</g>
<g>
</g>
<g>
</g>
<g>
</g>
</svg>
