<?xml version="1.0" encoding="iso-8859-1"?>
<!-- Generator: Adobe Illustrator 17.1.0, SVG Export Plug-In . SVG Version: 6.00 Build 0)  -->
<!DOCTYPE svg PUBLIC "-//W3C//DTD SVG 1.1//EN" "http://www.w3.org/Graphics/SVG/1.1/DTD/svg11.dtd">
<svg version="1.1" id="Capa_1" xmlns="http://www.w3.org/2000/svg" xmlns:xlink="http://www.w3.org/1999/xlink" x="0px" y="0px"
	 viewBox="0 0 510.652 510.652" style="enable-background:new 0 0 510.652 510.652;" xml:space="preserve">
<path d="M510.558,247.232c-0.528-4.327-3.75-12.125-19.453-15.749l-173.318-38.616L279.158,19.493
	c-3.611-15.646-11.409-18.869-15.736-19.397c-4.33-0.527-12.672,0.725-19.929,15.019L4.262,482.262
	C-2.713,496,0.159,503.22,3.797,506.857c2.015,2.015,5.128,3.794,9.844,3.794c3.798,0,8.636-1.155,14.774-4.271l467.101-239.207
	C509.834,259.904,511.086,251.559,510.558,247.232z M256.855,21.929c2.117-4.171,3.836-5.903,4.704-6.579
	c0.68,0.862,1.927,2.945,2.97,7.461l38.757,173.95L24.61,475.436L256.855,21.929z M488.702,253.809L35.216,486.044l278.677-278.677
	l173.894,38.744c4.556,1.052,6.651,2.303,7.516,2.983C494.626,249.964,492.889,251.684,488.702,253.809z"/>
<g>
</g>
<g>
</g>
<g>
</g>
<g>
</g>
<g>
</g>
<g>
</g>
<g>
</g>
<g>
</g>
<g>
</g>
<g>
</g>
<g>
</g>
<g>
</g>
<g>
</g>
<g>
</g>
<g>
</g>
</svg>
