<?xml version="1.0" encoding="iso-8859-1"?>
<!-- Generator: Adobe Illustrator 17.1.0, SVG Export Plug-In . SVG Version: 6.00 Build 0)  -->
<!DOCTYPE svg PUBLIC "-//W3C//DTD SVG 1.1//EN" "http://www.w3.org/Graphics/SVG/1.1/DTD/svg11.dtd">
<svg version="1.1" id="Capa_1" xmlns="http://www.w3.org/2000/svg" xmlns:xlink="http://www.w3.org/1999/xlink" x="0px" y="0px"
	 viewBox="0 0 510.984 510.984" style="enable-background:new 0 0 510.984 510.984;" xml:space="preserve">
<path d="M501.772,71.271L439.713,9.212c-12.282-12.282-32.267-12.282-44.547,0L57.412,346.966
	c-5.537,5.537-9.767,12.051-12.572,19.362L1.517,479.233c-0.012,0.031-0.023,0.063-0.035,0.094
	c-3.206,8.703-1.124,18.183,5.434,24.741c4.522,4.522,10.432,6.916,16.52,6.916c2.741,0,5.52-0.486,8.222-1.481
	c0.031-0.012,0.063-0.023,0.094-0.035l112.905-43.323c7.311-2.805,13.825-7.035,19.362-12.572l337.754-337.754
	C514.054,103.536,514.054,83.552,501.772,71.271z M58.362,372.956l79.665,79.665L83.979,473.36l-46.355-46.355L58.362,372.956z
	 M26.429,495.443c-3.184,1.156-6.509,0.417-8.907-1.981c-2.398-2.397-3.137-5.724-1.981-8.906l16.2-42.22l36.907,36.907
	L26.429,495.443z M491.166,105.212L153.412,442.966c-0.641,0.641-1.307,1.25-1.984,1.843l-85.252-85.252
	c0.593-0.677,1.202-1.343,1.843-1.984L405.772,19.818c6.433-6.433,16.9-6.434,23.334,0l62.059,62.059
	C497.599,88.311,497.599,98.778,491.166,105.212z"/>
<g>
</g>
<g>
</g>
<g>
</g>
<g>
</g>
<g>
</g>
<g>
</g>
<g>
</g>
<g>
</g>
<g>
</g>
<g>
</g>
<g>
</g>
<g>
</g>
<g>
</g>
<g>
</g>
<g>
</g>
</svg>
