<?xml version="1.0" encoding="iso-8859-1"?>
<!-- Generator: Adobe Illustrator 17.1.0, SVG Export Plug-In . SVG Version: 6.00 Build 0)  -->
<!DOCTYPE svg PUBLIC "-//W3C//DTD SVG 1.1//EN" "http://www.w3.org/Graphics/SVG/1.1/DTD/svg11.dtd">
<svg version="1.1" id="Capa_1" xmlns="http://www.w3.org/2000/svg" xmlns:xlink="http://www.w3.org/1999/xlink" x="0px" y="0px"
	 viewBox="0 0 499.019 499.019" style="enable-background:new 0 0 499.019 499.019;" xml:space="preserve">
<path d="M499.019,427.479c0-8.413-3.277-16.323-9.227-22.272L387.969,303.382c-12.282-12.281-32.266-12.279-44.548,0l-28.284,28.284
	c-4.033,4.033-6.898,9.095-8.287,14.64l-0.91,3.643c-24.406-19.88-59.186-52.017-82.02-74.851
	c-22.835-22.835-54.971-57.614-74.85-82.019l3.646-0.911c5.541-1.388,10.602-4.253,14.635-8.286l5.65-5.65
	c0.002-0.002,0.005-0.004,0.007-0.006s0.004-0.005,0.006-0.007l22.621-22.622c12.281-12.281,12.281-32.266,0-44.548L93.812,9.227
	c-5.949-5.95-13.859-9.227-22.272-9.227c0,0,0,0-0.001,0c-8.414,0-16.324,3.276-22.274,9.226L17.948,40.544
	C-0.588,59.08-5.278,88.1,6.276,112.759c30.215,64.487,93.718,150.136,161.783,218.201
	c68.065,68.065,153.713,131.568,218.197,161.78c9.015,4.225,18.611,6.277,28.066,6.277c16.411,0,32.393-6.187,44.153-17.946
	l8.688-8.688l0.001-0.001c0,0,0.001-0.001,0.001-0.001l22.626-22.626C495.742,443.804,499.019,435.893,499.019,427.479z
	 M59.871,19.834c3.117-3.117,7.261-4.834,11.668-4.833c4.407,0,8.55,1.716,11.667,4.833L185.03,121.656
	c6.433,6.434,6.433,16.902,0,23.335l-17.324,17.324L42.547,37.158L59.871,19.834z M392.62,479.158
	c-63.037-29.534-147.02-91.869-213.955-158.805c-66.935-66.935-129.27-150.918-158.807-213.957
	c-8.883-18.96-5.389-41.161,8.696-55.245l3.386-3.386l125.157,125.157l-0.353,0.353c-2.113,2.113-4.766,3.615-7.669,4.342
	l-14.921,3.729c-2.45,0.612-4.427,2.417-5.261,4.801c-0.833,2.384-0.412,5.026,1.123,7.032
	c20.726,27.092,61.186,70.416,83.297,92.527c22.109,22.108,65.433,62.568,92.526,83.297c2.006,1.534,4.649,1.955,7.033,1.123
	c2.384-0.834,4.188-2.812,4.801-5.262l3.728-14.918c0.728-2.906,2.229-5.56,4.342-7.672l0.353-0.353l125.158,125.158l-3.386,3.386
	C433.784,484.549,411.582,488.045,392.62,479.158z M479.186,439.147l-17.324,17.325L336.704,331.314l17.324-17.324
	c6.433-6.433,16.902-6.435,23.335,0l101.823,101.824c3.117,3.116,4.833,7.259,4.833,11.666
	C484.019,431.887,482.303,436.031,479.186,439.147z"/>
<g>
</g>
<g>
</g>
<g>
</g>
<g>
</g>
<g>
</g>
<g>
</g>
<g>
</g>
<g>
</g>
<g>
</g>
<g>
</g>
<g>
</g>
<g>
</g>
<g>
</g>
<g>
</g>
<g>
</g>
</svg>
