<?xml version="1.0" encoding="iso-8859-1"?>
<!-- Generator: Adobe Illustrator 17.1.0, SVG Export Plug-In . SVG Version: 6.00 Build 0)  -->
<!DOCTYPE svg PUBLIC "-//W3C//DTD SVG 1.1//EN" "http://www.w3.org/Graphics/SVG/1.1/DTD/svg11.dtd">
<svg version="1.1" id="Capa_1" xmlns="http://www.w3.org/2000/svg" xmlns:xlink="http://www.w3.org/1999/xlink" x="0px" y="0px"
	 viewBox="0 0 511 511" style="enable-background:new 0 0 511 511;" xml:space="preserve">
<g>
	<path d="M255.5,32c-4.142,0-7.5,3.357-7.5,7.5s3.358,7.5,7.5,7.5c22.332,0,40.5,18.168,40.5,40.5c0,4.143,3.358,7.5,7.5,7.5
		s7.5-3.357,7.5-7.5C311,56.897,286.103,32,255.5,32z"/>
	<path d="M343,87.5C343,39.252,303.748,0,255.5,0S168,39.252,168,87.5c0,45.721,35.251,83.358,80,87.175V503.5
		c0,4.143,3.358,7.5,7.5,7.5s7.5-3.357,7.5-7.5V174.675C307.749,170.858,343,133.221,343,87.5z M255.5,160
		c-39.977,0-72.5-32.523-72.5-72.5S215.523,15,255.5,15S328,47.523,328,87.5S295.477,160,255.5,160z"/>
</g>
<g>
</g>
<g>
</g>
<g>
</g>
<g>
</g>
<g>
</g>
<g>
</g>
<g>
</g>
<g>
</g>
<g>
</g>
<g>
</g>
<g>
</g>
<g>
</g>
<g>
</g>
<g>
</g>
<g>
</g>
</svg>
