<?xml version="1.0" encoding="iso-8859-1"?>
<!-- Generator: Adobe Illustrator 17.1.0, SVG Export Plug-In . SVG Version: 6.00 Build 0)  -->
<!DOCTYPE svg PUBLIC "-//W3C//DTD SVG 1.1//EN" "http://www.w3.org/Graphics/SVG/1.1/DTD/svg11.dtd">
<svg version="1.1" id="Capa_1" xmlns="http://www.w3.org/2000/svg" xmlns:xlink="http://www.w3.org/1999/xlink" x="0px" y="0px"
	 viewBox="0 0 511 511" style="enable-background:new 0 0 511 511;" xml:space="preserve">
<g>
	<path d="M255.5,0C141.084,0,48,93.084,48,207.5c0,43.215,10.794,86.072,32.083,127.381c16.934,32.857,40.506,64.798,70.063,94.934
		c50.177,51.159,99.614,79.068,101.694,80.231c1.137,0.636,2.398,0.954,3.66,0.954c1.263,0,2.526-0.318,3.665-0.956
		c2.08-1.165,51.515-29.114,101.691-80.293c29.556-30.147,53.128-62.09,70.061-94.939C452.206,293.511,463,250.677,463,207.5
		C463,93.084,369.916,0,255.5,0z M417.689,327.734c-16.198,31.48-38.828,62.174-67.261,91.226
		c-41.038,41.932-82.597,68.396-94.933,75.84c-12.301-7.406-53.63-33.675-94.641-75.489c-28.504-29.062-51.193-59.78-67.438-91.301
		C73.234,288.846,63,248.301,63,207.5C63,101.355,149.355,15,255.5,15S448,101.355,448,207.5
		C448,248.191,437.802,288.644,417.689,327.734z"/>
	<path d="M255.5,64C176.374,64,112,128.374,112,207.5S176.374,351,255.5,351S399,286.626,399,207.5S334.626,64,255.5,64z M255.5,336
		C184.645,336,127,278.355,127,207.5S184.645,79,255.5,79S384,136.645,384,207.5S326.355,336,255.5,336z"/>
</g>
<g>
</g>
<g>
</g>
<g>
</g>
<g>
</g>
<g>
</g>
<g>
</g>
<g>
</g>
<g>
</g>
<g>
</g>
<g>
</g>
<g>
</g>
<g>
</g>
<g>
</g>
<g>
</g>
<g>
</g>
</svg>
