<?xml version="1.0" encoding="iso-8859-1"?>
<!-- Generator: Adobe Illustrator 17.1.0, SVG Export Plug-In . SVG Version: 6.00 Build 0)  -->
<!DOCTYPE svg PUBLIC "-//W3C//DTD SVG 1.1//EN" "http://www.w3.org/Graphics/SVG/1.1/DTD/svg11.dtd">
<svg version="1.1" id="Capa_1" xmlns="http://www.w3.org/2000/svg" xmlns:xlink="http://www.w3.org/1999/xlink" x="0px" y="0px"
	 viewBox="0 0 511 511" style="enable-background:new 0 0 511 511;" xml:space="preserve">
<g>
	<path d="M455.5,96H407V47.5c0-12.958-10.542-23.5-23.5-23.5h-256C114.542,24,104,34.542,104,47.5V96H55.5
		C24.897,96,0,120.897,0,151.5v192C0,374.103,24.897,399,55.5,399H104v64.5c0,12.958,10.542,23.5,23.5,23.5h256
		c12.958,0,23.5-10.542,23.5-23.5V399h48.5c30.603,0,55.5-24.897,55.5-55.5v-192C511,120.897,486.103,96,455.5,96z M119,47.5
		c0-4.687,3.813-8.5,8.5-8.5h256c4.687,0,8.5,3.813,8.5,8.5V96H119V47.5z M55.5,111h400c22.332,0,40.5,18.168,40.5,40.5V240H15
		v-88.5C15,129.168,33.168,111,55.5,111z M392,463.5c0,4.687-3.813,8.5-8.5,8.5h-256c-4.687,0-8.5-3.813-8.5-8.5V319h273V463.5z
		 M455.5,384H407v-65h48.5c4.142,0,7.5-3.357,7.5-7.5s-3.358-7.5-7.5-7.5h-400c-4.142,0-7.5,3.357-7.5,7.5s3.358,7.5,7.5,7.5H104v65
		H55.5C33.168,384,15,365.832,15,343.5V255h481v88.5C496,365.832,477.832,384,455.5,384z"/>
	<path d="M423.5,207c17.369,0,31.5-14.131,31.5-31.5S440.869,144,423.5,144S392,158.131,392,175.5S406.131,207,423.5,207z
		 M423.5,159c9.098,0,16.5,7.402,16.5,16.5s-7.402,16.5-16.5,16.5s-16.5-7.402-16.5-16.5S414.402,159,423.5,159z"/>
	<path d="M351.5,199c12.958,0,23.5-10.542,23.5-23.5S364.458,152,351.5,152S328,162.542,328,175.5S338.542,199,351.5,199z
		 M351.5,167c4.687,0,8.5,3.813,8.5,8.5s-3.813,8.5-8.5,8.5s-8.5-3.813-8.5-8.5S346.813,167,351.5,167z"/>
	<path d="M351.5,344h-192c-4.142,0-7.5,3.357-7.5,7.5s3.358,7.5,7.5,7.5h192c4.142,0,7.5-3.357,7.5-7.5S355.642,344,351.5,344z"/>
	<path d="M351.5,384h-192c-4.142,0-7.5,3.357-7.5,7.5s3.358,7.5,7.5,7.5h192c4.142,0,7.5-3.357,7.5-7.5S355.642,384,351.5,384z"/>
	<path d="M351.5,424h-192c-4.142,0-7.5,3.357-7.5,7.5s3.358,7.5,7.5,7.5h192c4.142,0,7.5-3.357,7.5-7.5S355.642,424,351.5,424z"/>
</g>
<g>
</g>
<g>
</g>
<g>
</g>
<g>
</g>
<g>
</g>
<g>
</g>
<g>
</g>
<g>
</g>
<g>
</g>
<g>
</g>
<g>
</g>
<g>
</g>
<g>
</g>
<g>
</g>
<g>
</g>
</svg>
