<?xml version="1.0" encoding="iso-8859-1"?>
<!-- Generator: Adobe Illustrator 17.1.0, SVG Export Plug-In . SVG Version: 6.00 Build 0)  -->
<!DOCTYPE svg PUBLIC "-//W3C//DTD SVG 1.1//EN" "http://www.w3.org/Graphics/SVG/1.1/DTD/svg11.dtd">
<svg version="1.1" id="Capa_1" xmlns="http://www.w3.org/2000/svg" xmlns:xlink="http://www.w3.org/1999/xlink" x="0px" y="0px"
	 viewBox="0 0 511 511" style="enable-background:new 0 0 511 511;" xml:space="preserve">
<g>
	<path d="M407.5,152C350.43,152,304,198.43,304,255.5c0,37.456,20,70.329,49.881,88.5H157.119C187,325.829,207,292.956,207,255.5
		c0-57.07-46.43-103.5-103.5-103.5S0,198.43,0,255.5S46.43,359,103.5,359c2.12,0,4.222-0.072,6.311-0.198
		c0.544,0.125,1.107,0.198,1.689,0.198h288c0.582,0,1.146-0.073,1.689-0.198c2.088,0.126,4.191,0.198,6.311,0.198
		c57.07,0,103.5-46.43,103.5-103.5S464.57,152,407.5,152z M15,255.5c0-48.799,39.701-88.5,88.5-88.5s88.5,39.701,88.5,88.5
		S152.299,344,103.5,344S15,304.299,15,255.5z M407.5,344c-48.799,0-88.5-39.701-88.5-88.5s39.701-88.5,88.5-88.5
		s88.5,39.701,88.5,88.5S456.299,344,407.5,344z"/>
	<path d="M454.19,212.518c-0.35-0.691-0.809-1.342-1.387-1.919c-0.567-0.567-1.203-1.021-1.88-1.368
		C439.558,198.558,424.285,192,407.5,192c-35.014,0-63.5,28.486-63.5,63.5s28.486,63.5,63.5,63.5
		c16.784,0,32.057-6.558,43.423-17.23c0.677-0.347,1.313-0.801,1.88-1.368c0.578-0.578,1.037-1.228,1.387-1.919
		C464.617,287.164,471,272.066,471,255.5S464.617,223.836,454.19,212.518z M379.176,294.833l11.402-11.402
		c2.929-2.93,2.929-7.678,0-10.607c-2.929-2.928-7.678-2.928-10.606,0l-11.47,11.47c-5.966-8.059-9.501-18.02-9.501-28.794
		s3.535-20.735,9.501-28.794l11.47,11.47c1.464,1.464,3.384,2.196,5.303,2.196c1.919,0,3.839-0.732,5.303-2.196
		c2.929-2.93,2.929-7.678,0-10.607l-11.402-11.402c7.976-5.76,17.757-9.167,28.324-9.167c10.774,0,20.735,3.535,28.794,9.501
		l-11.068,11.068c-2.929,2.93-2.929,7.678,0,10.607c1.464,1.464,3.384,2.196,5.303,2.196s3.839-0.732,5.303-2.196l11.001-11.001
		c5.76,7.976,9.167,17.757,9.167,28.324s-3.407,20.348-9.167,28.324l-11.001-11.001c-2.929-2.928-7.678-2.928-10.606,0
		c-2.929,2.93-2.929,7.678,0,10.607l11.068,11.068c-8.059,5.966-18.02,9.501-28.794,9.501
		C396.932,304,387.151,300.593,379.176,294.833z"/>
	<path d="M148.96,299.772C160.111,288.325,167,272.706,167,255.5s-6.889-32.825-18.04-44.272c-0.173-0.217-0.357-0.428-0.558-0.629
		c-0.201-0.201-0.412-0.385-0.628-0.558C136.325,198.889,120.706,192,103.5,192s-32.825,6.889-44.273,18.041
		c-0.217,0.173-0.428,0.357-0.628,0.558c-0.201,0.201-0.385,0.412-0.558,0.629C46.889,222.675,40,238.294,40,255.5
		s6.889,32.825,18.04,44.272c0.173,0.217,0.357,0.428,0.558,0.629c0.201,0.201,0.412,0.385,0.628,0.558
		C70.675,312.111,86.294,319,103.5,319s32.825-6.889,44.273-18.041c0.217-0.173,0.428-0.357,0.629-0.558
		C148.602,300.2,148.786,299.989,148.96,299.772z M74.941,294.666l11.235-11.235c2.929-2.93,2.929-7.678,0-10.607
		c-2.929-2.928-7.678-2.928-10.606,0l-11.236,11.236C58.472,276.041,55,266.17,55,255.5s3.472-20.541,9.334-28.559l11.236,11.236
		c1.464,1.464,3.384,2.196,5.303,2.196s3.839-0.732,5.303-2.196c2.929-2.93,2.929-7.678,0-10.607l-11.235-11.235
		C82.958,210.472,92.829,207,103.5,207s20.542,3.472,28.559,9.334l-11.235,11.235c-2.929,2.93-2.929,7.678,0,10.607
		c1.464,1.464,3.384,2.196,5.303,2.196s3.839-0.732,5.303-2.196l11.236-11.236C148.528,234.959,152,244.83,152,255.5
		s-3.472,20.541-9.334,28.559l-11.236-11.236c-2.929-2.928-7.678-2.928-10.606,0c-2.929,2.93-2.929,7.678,0,10.607l11.235,11.235
		C124.042,300.528,114.171,304,103.5,304S82.958,300.528,74.941,294.666z"/>
</g>
<g>
</g>
<g>
</g>
<g>
</g>
<g>
</g>
<g>
</g>
<g>
</g>
<g>
</g>
<g>
</g>
<g>
</g>
<g>
</g>
<g>
</g>
<g>
</g>
<g>
</g>
<g>
</g>
<g>
</g>
</svg>
