<?xml version="1.0" encoding="iso-8859-1"?>
<!-- Generator: Adobe Illustrator 17.1.0, SVG Export Plug-In . SVG Version: 6.00 Build 0)  -->
<!DOCTYPE svg PUBLIC "-//W3C//DTD SVG 1.1//EN" "http://www.w3.org/Graphics/SVG/1.1/DTD/svg11.dtd">
<svg version="1.1" id="Capa_1" xmlns="http://www.w3.org/2000/svg" xmlns:xlink="http://www.w3.org/1999/xlink" x="0px" y="0px"
	 viewBox="0 0 503 503" style="enable-background:new 0 0 503 503;" xml:space="preserve">
<g>
	<path d="M7.5,259h313.223c3.515,18.205,19.561,32,38.777,32h40c21.78,0,39.5-17.72,39.5-39.5S421.28,212,399.5,212h-40
		c-19.216,0-35.262,13.795-38.777,32H7.5c-4.142,0-7.5,3.358-7.5,7.5S3.358,259,7.5,259z M359.5,227h40
		c13.509,0,24.5,10.991,24.5,24.5S413.009,276,399.5,276h-40c-13.509,0-24.5-10.991-24.5-24.5S345.991,227,359.5,227z"/>
	<path d="M495.5,244h-32c-4.142,0-7.5,3.358-7.5,7.5s3.358,7.5,7.5,7.5h32c4.142,0,7.5-3.358,7.5-7.5S499.642,244,495.5,244z"/>
	<path d="M7.5,131h57.223c3.515,18.205,19.561,32,38.777,32h40c21.78,0,39.5-17.72,39.5-39.5S165.28,84,143.5,84h-40
		c-19.216,0-35.262,13.795-38.777,32H7.5c-4.142,0-7.5,3.358-7.5,7.5S3.358,131,7.5,131z M103.5,99h40
		c13.509,0,24.5,10.991,24.5,24.5S157.009,148,143.5,148h-40C89.991,148,79,137.009,79,123.5S89.991,99,103.5,99z"/>
	<path d="M207.5,131h288c4.142,0,7.5-3.358,7.5-7.5s-3.358-7.5-7.5-7.5h-288c-4.142,0-7.5,3.358-7.5,7.5S203.358,131,207.5,131z"/>
	<path d="M495.5,372h-168c-4.142,0-7.5,3.358-7.5,7.5s3.358,7.5,7.5,7.5h168c4.142,0,7.5-3.358,7.5-7.5S499.642,372,495.5,372z"/>
	<path d="M103.5,131h40c4.142,0,7.5-3.358,7.5-7.5s-3.358-7.5-7.5-7.5h-40c-4.142,0-7.5,3.358-7.5,7.5S99.358,131,103.5,131z"/>
	<path d="M359.5,259h40c4.142,0,7.5-3.358,7.5-7.5s-3.358-7.5-7.5-7.5h-40c-4.142,0-7.5,3.358-7.5,7.5S355.358,259,359.5,259z"/>
	<path d="M263.5,340h-40c-19.216,0-35.262,13.795-38.777,32H7.5c-4.142,0-7.5,3.358-7.5,7.5s3.358,7.5,7.5,7.5h177.223
		c3.515,18.205,19.561,32,38.777,32h40c21.78,0,39.5-17.72,39.5-39.5S285.28,340,263.5,340z M263.5,404h-40
		c-13.509,0-24.5-10.991-24.5-24.5s10.991-24.5,24.5-24.5h40c13.509,0,24.5,10.991,24.5,24.5S277.009,404,263.5,404z"/>
	<path d="M263.5,372h-40c-4.142,0-7.5,3.358-7.5,7.5s3.358,7.5,7.5,7.5h40c4.142,0,7.5-3.358,7.5-7.5S267.642,372,263.5,372z"/>
</g>
<g>
</g>
<g>
</g>
<g>
</g>
<g>
</g>
<g>
</g>
<g>
</g>
<g>
</g>
<g>
</g>
<g>
</g>
<g>
</g>
<g>
</g>
<g>
</g>
<g>
</g>
<g>
</g>
<g>
</g>
</svg>
