<?xml version="1.0" encoding="iso-8859-1"?>
<!-- Generator: Adobe Illustrator 17.1.0, SVG Export Plug-In . SVG Version: 6.00 Build 0)  -->
<!DOCTYPE svg PUBLIC "-//W3C//DTD SVG 1.1//EN" "http://www.w3.org/Graphics/SVG/1.1/DTD/svg11.dtd">
<svg version="1.1" id="Capa_1" xmlns="http://www.w3.org/2000/svg" xmlns:xlink="http://www.w3.org/1999/xlink" x="0px" y="0px"
	 viewBox="0 0 511 511" style="enable-background:new 0 0 511 511;" xml:space="preserve">
<g>
	<path d="M255.5,336c-30.603,0-55.5,24.897-55.5,55.5c0,28.058,20.933,51.305,48,54.979V503.5c0,4.142,3.358,7.5,7.5,7.5
		s7.5-3.358,7.5-7.5v-57.021c27.067-3.675,48-26.921,48-54.979C311,360.897,286.103,336,255.5,336z M255.5,432
		c-22.332,0-40.5-18.168-40.5-40.5s18.168-40.5,40.5-40.5s40.5,18.168,40.5,40.5S277.832,432,255.5,432z"/>
	<path d="M255.5,319c4.142,0,7.5-3.358,7.5-7.5V7.5c0-4.142-3.358-7.5-7.5-7.5S248,3.358,248,7.5v304
		C248,315.642,251.358,319,255.5,319z"/>
	<path d="M383.5,55c4.142,0,7.5-3.358,7.5-7.5v-40c0-4.142-3.358-7.5-7.5-7.5S376,3.358,376,7.5v40C376,51.642,379.358,55,383.5,55z
		"/>
	<path d="M127.5,175c4.142,0,7.5-3.358,7.5-7.5V7.5c0-4.142-3.358-7.5-7.5-7.5S120,3.358,120,7.5v160
		C120,171.642,123.358,175,127.5,175z"/>
	<path d="M255.5,368c-4.142,0-7.5,3.358-7.5,7.5s3.358,7.5,7.5,7.5c4.687,0,8.5,3.813,8.5,8.5c0,4.142,3.358,7.5,7.5,7.5
		s7.5-3.358,7.5-7.5C279,378.542,268.458,368,255.5,368z"/>
	<path d="M127.5,192C96.897,192,72,216.897,72,247.5c0,28.058,20.933,51.305,48,54.979V503.5c0,4.142,3.358,7.5,7.5,7.5
		s7.5-3.358,7.5-7.5V302.479c27.067-3.675,48-26.921,48-54.979C183,216.897,158.103,192,127.5,192z M127.5,288
		c-22.332,0-40.5-18.168-40.5-40.5s18.168-40.5,40.5-40.5s40.5,18.168,40.5,40.5S149.832,288,127.5,288z"/>
	<path d="M127.5,224c-4.142,0-7.5,3.358-7.5,7.5s3.358,7.5,7.5,7.5c4.687,0,8.5,3.813,8.5,8.5c0,4.142,3.358,7.5,7.5,7.5
		s7.5-3.358,7.5-7.5C151,234.542,140.458,224,127.5,224z"/>
	<path d="M439,127.5c0-30.603-24.897-55.5-55.5-55.5S328,96.897,328,127.5c0,28.058,20.933,51.305,48,54.979V503.5
		c0,4.142,3.358,7.5,7.5,7.5s7.5-3.358,7.5-7.5V182.479C418.067,178.805,439,155.558,439,127.5z M383.5,168
		c-22.332,0-40.5-18.168-40.5-40.5S361.168,87,383.5,87s40.5,18.168,40.5,40.5S405.832,168,383.5,168z"/>
	<path d="M383.5,104c-4.142,0-7.5,3.358-7.5,7.5s3.358,7.5,7.5,7.5c4.687,0,8.5,3.813,8.5,8.5c0,4.142,3.358,7.5,7.5,7.5
		s7.5-3.358,7.5-7.5C407,114.542,396.458,104,383.5,104z"/>
</g>
<g>
</g>
<g>
</g>
<g>
</g>
<g>
</g>
<g>
</g>
<g>
</g>
<g>
</g>
<g>
</g>
<g>
</g>
<g>
</g>
<g>
</g>
<g>
</g>
<g>
</g>
<g>
</g>
<g>
</g>
</svg>
