<?xml version="1.0" encoding="iso-8859-1"?>
<!-- Generator: Adobe Illustrator 17.1.0, SVG Export Plug-In . SVG Version: 6.00 Build 0)  -->
<!DOCTYPE svg PUBLIC "-//W3C//DTD SVG 1.1//EN" "http://www.w3.org/Graphics/SVG/1.1/DTD/svg11.dtd">
<svg version="1.1" id="Capa_1" xmlns="http://www.w3.org/2000/svg" xmlns:xlink="http://www.w3.org/1999/xlink" x="0px" y="0px"
	 viewBox="0 0 511 511" style="enable-background:new 0 0 511 511;" xml:space="preserve">
<g>
	<path d="M119.5,320c-12.958,0-23.5,10.542-23.5,23.5s10.542,23.5,23.5,23.5s23.5-10.542,23.5-23.5S132.458,320,119.5,320z
		 M119.5,352c-4.687,0-8.5-3.813-8.5-8.5s3.813-8.5,8.5-8.5s8.5,3.813,8.5,8.5S124.187,352,119.5,352z"/>
	<path d="M183.5,320c-12.958,0-23.5,10.542-23.5,23.5s10.542,23.5,23.5,23.5s23.5-10.542,23.5-23.5S196.458,320,183.5,320z
		 M183.5,352c-4.687,0-8.5-3.813-8.5-8.5s3.813-8.5,8.5-8.5s8.5,3.813,8.5,8.5S188.187,352,183.5,352z"/>
	<path d="M231.5,335h176c4.142,0,7.5-3.357,7.5-7.5s-3.358-7.5-7.5-7.5h-176c-4.142,0-7.5,3.357-7.5,7.5S227.358,335,231.5,335z"/>
	<path d="M415,359.5c0-4.143-3.358-7.5-7.5-7.5h-176c-4.142,0-7.5,3.357-7.5,7.5s3.358,7.5,7.5,7.5h176
		C411.642,367,415,363.643,415,359.5z"/>
	<path d="M119.5,192c-12.958,0-23.5,10.542-23.5,23.5s10.542,23.5,23.5,23.5s23.5-10.542,23.5-23.5S132.458,192,119.5,192z
		 M119.5,224c-4.687,0-8.5-3.813-8.5-8.5s3.813-8.5,8.5-8.5s8.5,3.813,8.5,8.5S124.187,224,119.5,224z"/>
	<path d="M183.5,192c-12.958,0-23.5,10.542-23.5,23.5s10.542,23.5,23.5,23.5s23.5-10.542,23.5-23.5S196.458,192,183.5,192z
		 M183.5,224c-4.687,0-8.5-3.813-8.5-8.5s3.813-8.5,8.5-8.5s8.5,3.813,8.5,8.5S188.187,224,183.5,224z"/>
	<path d="M231.5,207h176c4.142,0,7.5-3.357,7.5-7.5s-3.358-7.5-7.5-7.5h-176c-4.142,0-7.5,3.357-7.5,7.5S227.358,207,231.5,207z"/>
	<path d="M415,231.5c0-4.143-3.358-7.5-7.5-7.5h-176c-4.142,0-7.5,3.357-7.5,7.5s3.358,7.5,7.5,7.5h176
		C411.642,239,415,235.643,415,231.5z"/>
	<path d="M119.5,64C106.542,64,96,74.542,96,87.5s10.542,23.5,23.5,23.5S143,100.458,143,87.5S132.458,64,119.5,64z M119.5,96
		c-4.687,0-8.5-3.813-8.5-8.5s3.813-8.5,8.5-8.5s8.5,3.813,8.5,8.5S124.187,96,119.5,96z"/>
	<path d="M183.5,64C170.542,64,160,74.542,160,87.5s10.542,23.5,23.5,23.5S207,100.458,207,87.5S196.458,64,183.5,64z M183.5,96
		c-4.687,0-8.5-3.813-8.5-8.5s3.813-8.5,8.5-8.5s8.5,3.813,8.5,8.5S188.187,96,183.5,96z"/>
	<path d="M231.5,79h176c4.142,0,7.5-3.357,7.5-7.5s-3.358-7.5-7.5-7.5h-176c-4.142,0-7.5,3.357-7.5,7.5S227.358,79,231.5,79z"/>
	<path d="M415,103.5c0-4.143-3.358-7.5-7.5-7.5h-176c-4.142,0-7.5,3.357-7.5,7.5s3.358,7.5,7.5,7.5h176
		C411.642,111,415,107.643,415,103.5z"/>
	<path d="M503.5,448H311v-7.5c0-4.687-3.813-8.5-8.5-8.5H263v-33h152.5c17.369,0,31.5-14.131,31.5-31.5v-48
		c0-17.369-14.131-31.5-31.5-31.5H263v-17h152.5c17.369,0,31.5-14.131,31.5-31.5v-48c0-17.369-14.131-31.5-31.5-31.5H263v-17h152.5
		c17.369,0,31.5-14.131,31.5-31.5v-48c0-17.369-14.131-31.5-31.5-31.5h-320C78.131,32,64,46.131,64,63.5v48
		c0,17.369,14.131,31.5,31.5,31.5H248v17H95.5C78.131,160,64,174.131,64,191.5v48c0,17.369,14.131,31.5,31.5,31.5H248v17H95.5
		C78.131,288,64,302.131,64,319.5v48c0,17.369,14.131,31.5,31.5,31.5H248v33h-39.5c-4.687,0-8.5,3.813-8.5,8.5v7.5H7.5
		c-4.142,0-7.5,3.357-7.5,7.5s3.358,7.5,7.5,7.5H200v7.5c0,4.687,3.813,8.5,8.5,8.5h94c4.687,0,8.5-3.813,8.5-8.5V463h192.5
		c4.142,0,7.5-3.357,7.5-7.5S507.642,448,503.5,448z M79,111.5v-48C79,54.402,86.402,47,95.5,47h320c9.098,0,16.5,7.402,16.5,16.5
		v48c0,9.098-7.402,16.5-16.5,16.5h-320C86.402,128,79,120.598,79,111.5z M79,239.5v-48c0-9.098,7.402-16.5,16.5-16.5h320
		c9.098,0,16.5,7.402,16.5,16.5v48c0,9.098-7.402,16.5-16.5,16.5h-320C86.402,256,79,248.598,79,239.5z M79,367.5v-48
		c0-9.098,7.402-16.5,16.5-16.5h320c9.098,0,16.5,7.402,16.5,16.5v48c0,9.098-7.402,16.5-16.5,16.5h-320
		C86.402,384,79,376.598,79,367.5z M296,464h-81v-17h81V464z"/>
</g>
<g>
</g>
<g>
</g>
<g>
</g>
<g>
</g>
<g>
</g>
<g>
</g>
<g>
</g>
<g>
</g>
<g>
</g>
<g>
</g>
<g>
</g>
<g>
</g>
<g>
</g>
<g>
</g>
<g>
</g>
</svg>
