<?xml version="1.0" encoding="iso-8859-1"?>
<!-- Generator: Adobe Illustrator 17.1.0, SVG Export Plug-In . SVG Version: 6.00 Build 0)  -->
<!DOCTYPE svg PUBLIC "-//W3C//DTD SVG 1.1//EN" "http://www.w3.org/Graphics/SVG/1.1/DTD/svg11.dtd">
<svg version="1.1" id="Capa_1" xmlns="http://www.w3.org/2000/svg" xmlns:xlink="http://www.w3.org/1999/xlink" x="0px" y="0px"
	 viewBox="0 0 495.02 495.02" style="enable-background:new 0 0 495.02 495.02;" xml:space="preserve">
<g>
	<path d="M465.508,125.511C372.322,107.023,301.247,53.113,265.804,8.827C261.315,3.217,254.647,0,247.51,0
		s-13.805,3.217-18.294,8.827c-35.443,44.287-106.518,98.196-199.704,116.684c-7.661,1.52-13.055,8.475-12.546,16.177
		c4.7,71.183,28.426,141.248,68.614,202.619c39.037,59.614,93.706,111.365,158.097,149.659c1.181,0.703,2.507,1.054,3.833,1.054
		s2.652-0.351,3.833-1.054c64.391-38.294,119.06-90.045,158.097-149.659c40.188-61.372,63.914-131.436,68.614-202.62
		C478.563,133.985,473.168,127.031,465.508,125.511z M396.892,336.089c-37.019,56.532-88.604,105.788-149.382,142.681
		c-60.777-36.893-112.363-86.148-149.382-142.681C59.353,276.875,36.462,209.311,31.933,140.7c-0.012-0.176,0.19-0.416,0.498-0.477
		c97.146-19.273,171.399-75.671,208.496-122.025c1.627-2.033,4.027-3.199,6.583-3.199s4.956,1.166,6.583,3.199
		c37.097,46.354,111.35,102.752,208.496,122.025c0.308,0.061,0.509,0.3,0.498,0.476
		C458.557,209.311,435.667,276.875,396.892,336.089z"/>
	<path d="M247.51,48.02c-4.142,0-7.5,3.358-7.5,7.5v384c0,4.142,3.358,7.5,7.5,7.5s7.5-3.358,7.5-7.5v-384
		C255.01,51.377,251.652,48.02,247.51,48.02z"/>
</g>
<g>
</g>
<g>
</g>
<g>
</g>
<g>
</g>
<g>
</g>
<g>
</g>
<g>
</g>
<g>
</g>
<g>
</g>
<g>
</g>
<g>
</g>
<g>
</g>
<g>
</g>
<g>
</g>
<g>
</g>
</svg>
