<?xml version="1.0" encoding="iso-8859-1"?>
<!-- Generator: Adobe Illustrator 17.1.0, SVG Export Plug-In . SVG Version: 6.00 Build 0)  -->
<!DOCTYPE svg PUBLIC "-//W3C//DTD SVG 1.1//EN" "http://www.w3.org/Graphics/SVG/1.1/DTD/svg11.dtd">
<svg version="1.1" id="Capa_1" xmlns="http://www.w3.org/2000/svg" xmlns:xlink="http://www.w3.org/1999/xlink" x="0px" y="0px"
	 viewBox="0 0 495 495" style="enable-background:new 0 0 495 495;" xml:space="preserve">
<g>
	<path d="M463.5,64h-16C430.131,64,416,78.131,416,95.5v304c0,17.369,14.131,31.5,31.5,31.5h16c17.369,0,31.5-14.131,31.5-31.5v-304
		C495,78.131,480.869,64,463.5,64z M480,399.5c0,9.098-7.402,16.5-16.5,16.5h-16c-9.098,0-16.5-7.402-16.5-16.5v-304
		c0-9.098,7.402-16.5,16.5-16.5h16c9.098,0,16.5,7.402,16.5,16.5V399.5z"/>
	<path d="M359.5,128h-16c-17.369,0-31.5,14.131-31.5,31.5v240c0,17.369,14.131,31.5,31.5,31.5h16c17.369,0,31.5-14.131,31.5-31.5
		v-240C391,142.131,376.869,128,359.5,128z M376,399.5c0,9.098-7.402,16.5-16.5,16.5h-16c-9.098,0-16.5-7.402-16.5-16.5v-240
		c0-9.098,7.402-16.5,16.5-16.5h16c9.098,0,16.5,7.402,16.5,16.5V399.5z"/>
	<path d="M255.5,192h-16c-17.369,0-31.5,14.131-31.5,31.5v176c0,17.369,14.131,31.5,31.5,31.5h16c17.369,0,31.5-14.131,31.5-31.5
		v-176C287,206.131,272.869,192,255.5,192z M272,399.5c0,9.098-7.402,16.5-16.5,16.5h-16c-9.098,0-16.5-7.402-16.5-16.5v-176
		c0-9.098,7.402-16.5,16.5-16.5h16c9.098,0,16.5,7.402,16.5,16.5V399.5z"/>
	<path d="M151.5,256h-16c-17.369,0-31.5,14.131-31.5,31.5v112c0,17.369,14.131,31.5,31.5,31.5h16c17.369,0,31.5-14.131,31.5-31.5
		v-112C183,270.131,168.869,256,151.5,256z M168,399.5c0,9.098-7.402,16.5-16.5,16.5h-16c-9.098,0-16.5-7.402-16.5-16.5v-112
		c0-9.098,7.402-16.5,16.5-16.5h16c9.098,0,16.5,7.402,16.5,16.5V399.5z"/>
	<path d="M47.5,320h-16C14.131,320,0,334.131,0,351.5v48C0,416.869,14.131,431,31.5,431h16c17.369,0,31.5-14.131,31.5-31.5v-48
		C79,334.131,64.869,320,47.5,320z M64,399.5c0,9.098-7.402,16.5-16.5,16.5h-16c-9.098,0-16.5-7.402-16.5-16.5v-48
		c0-9.098,7.402-16.5,16.5-16.5h16c9.098,0,16.5,7.402,16.5,16.5V399.5z"/>
</g>
<g>
</g>
<g>
</g>
<g>
</g>
<g>
</g>
<g>
</g>
<g>
</g>
<g>
</g>
<g>
</g>
<g>
</g>
<g>
</g>
<g>
</g>
<g>
</g>
<g>
</g>
<g>
</g>
<g>
</g>
</svg>
