<?xml version="1.0" encoding="iso-8859-1"?>
<!-- Generator: Adobe Illustrator 17.1.0, SVG Export Plug-In . SVG Version: 6.00 Build 0)  -->
<!DOCTYPE svg PUBLIC "-//W3C//DTD SVG 1.1//EN" "http://www.w3.org/Graphics/SVG/1.1/DTD/svg11.dtd">
<svg version="1.1" id="Capa_1" xmlns="http://www.w3.org/2000/svg" xmlns:xlink="http://www.w3.org/1999/xlink" x="0px" y="0px"
	 viewBox="0 0 511 511" style="enable-background:new 0 0 511 511;" xml:space="preserve">
<g>
	<path d="M391.5,136h-272C53.607,136,0,189.607,0,255.5S53.607,375,119.5,375h272c65.893,0,119.5-53.607,119.5-119.5
		S457.393,136,391.5,136z M15,255.5C15,197.878,61.878,151,119.5,151S224,197.878,224,255.5S177.122,360,119.5,360
		S15,313.122,15,255.5z M391.5,360H177.407C214.109,339.581,239,300.396,239,255.5s-24.891-84.081-61.593-104.5H391.5
		c57.622,0,104.5,46.878,104.5,104.5S449.122,360,391.5,360z"/>
	<path d="M207,255.5c0-48.248-39.252-87.5-87.5-87.5S32,207.252,32,255.5S71.252,343,119.5,343S207,303.748,207,255.5z M47,255.5
		c0-39.977,32.523-72.5,72.5-72.5s72.5,32.523,72.5,72.5S159.477,328,119.5,328S47,295.477,47,255.5z"/>
	<path d="M160,255.5c0,4.142,3.358,7.5,7.5,7.5s7.5-3.358,7.5-7.5c0-30.603-24.897-55.5-55.5-55.5c-4.142,0-7.5,3.358-7.5,7.5
		s3.358,7.5,7.5,7.5C141.832,215,160,233.168,160,255.5z"/>
</g>
<g>
</g>
<g>
</g>
<g>
</g>
<g>
</g>
<g>
</g>
<g>
</g>
<g>
</g>
<g>
</g>
<g>
</g>
<g>
</g>
<g>
</g>
<g>
</g>
<g>
</g>
<g>
</g>
<g>
</g>
</svg>
