<?xml version="1.0" encoding="iso-8859-1"?>
<!-- Generator: Adobe Illustrator 17.1.0, SVG Export Plug-In . SVG Version: 6.00 Build 0)  -->
<!DOCTYPE svg PUBLIC "-//W3C//DTD SVG 1.1//EN" "http://www.w3.org/Graphics/SVG/1.1/DTD/svg11.dtd">
<svg version="1.1" id="Capa_1" xmlns="http://www.w3.org/2000/svg" xmlns:xlink="http://www.w3.org/1999/xlink" x="0px" y="0px"
	 viewBox="0 0 506.336 506.336" style="enable-background:new 0 0 506.336 506.336;" xml:space="preserve">
<g>
	<path d="M356.515,4.146c-10.006-5.666-21.867-5.516-31.727,0.4L82.918,149.668H52.995c-21.78,0-39.5,17.72-39.5,39.5v128
		c0,21.78,17.72,39.5,39.5,39.5h29.923l241.871,145.122c5.047,3.028,10.618,4.546,16.197,4.546c5.319,0,10.646-1.38,15.53-4.146
		c10.006-5.665,15.98-15.912,15.98-27.411V31.557C372.495,20.058,366.521,9.811,356.515,4.146z M28.495,317.168v-128
		c0-13.509,10.991-24.5,24.5-24.5h24.5v177h-24.5C39.486,341.668,28.495,330.678,28.495,317.168z M357.495,474.78
		c0,6.023-3.129,11.391-8.37,14.358s-11.454,2.889-16.619-0.21L92.495,344.922V161.415L332.506,17.408
		c5.164-3.099,11.377-3.178,16.618-0.21s8.371,8.335,8.371,14.359V474.78z"/>
	<path d="M407.692,208.267c-2.929,2.929-2.929,7.677,0,10.606c18.91,18.91,18.91,49.679,0,68.589c-2.929,2.929-2.929,7.678,0,10.606
		c1.464,1.464,3.384,2.197,5.303,2.197s3.839-0.732,5.303-2.197c24.758-24.758,24.758-65.043,0-89.802
		C415.37,205.337,410.621,205.338,407.692,208.267z"/>
	<path d="M457.896,168.669c-2.929-2.929-7.678-2.929-10.606,0c-2.929,2.929-2.929,7.678,0,10.606
		c40.745,40.745,40.745,107.041,0,147.786c-2.929,2.929-2.929,7.678,0,10.606c1.464,1.464,3.384,2.197,5.303,2.197
		s3.839-0.732,5.303-2.197C504.49,291.075,504.49,215.262,457.896,168.669z"/>
</g>
<g>
</g>
<g>
</g>
<g>
</g>
<g>
</g>
<g>
</g>
<g>
</g>
<g>
</g>
<g>
</g>
<g>
</g>
<g>
</g>
<g>
</g>
<g>
</g>
<g>
</g>
<g>
</g>
<g>
</g>
</svg>
