<?xml version="1.0" encoding="iso-8859-1"?>
<!-- Generator: Adobe Illustrator 17.1.0, SVG Export Plug-In . SVG Version: 6.00 Build 0)  -->
<!DOCTYPE svg PUBLIC "-//W3C//DTD SVG 1.1//EN" "http://www.w3.org/Graphics/SVG/1.1/DTD/svg11.dtd">
<svg version="1.1" id="Capa_1" xmlns="http://www.w3.org/2000/svg" xmlns:xlink="http://www.w3.org/1999/xlink" x="0px" y="0px"
	 viewBox="0 0 479 479" style="enable-background:new 0 0 479 479;" xml:space="preserve">
<g>
	<path d="M408.852,70.148C363.616,24.912,303.473,0,239.5,0S115.384,24.912,70.148,70.148C24.913,115.384,0,175.527,0,239.5
		s24.913,124.116,70.148,169.352C115.384,454.088,175.527,479,239.5,479s124.116-24.912,169.352-70.148
		C454.087,363.616,479,303.473,479,239.5S454.087,115.384,408.852,70.148z M398.246,398.245C355.843,440.648,299.466,464,239.5,464
		s-116.343-23.352-158.746-65.755C38.352,355.843,15,299.466,15,239.5S38.352,123.157,80.754,80.755
		C123.157,38.352,179.534,15,239.5,15s116.343,23.352,158.746,65.755C440.648,123.157,464,179.534,464,239.5
		S440.648,355.843,398.246,398.245z"/>
	<path d="M239.5,72c-32.913,0-64.771,9.541-92.13,27.592c-3.458,2.281-4.411,6.933-2.13,10.391c2.281,3.458,6.933,4.41,10.391,2.13
		C180.531,95.684,209.533,87,239.5,87c81.574,0,148.394,64.382,152.318,145h-17.023c-3.906-71.239-63.097-128-135.295-128
		c-34.664,0-66.326,13.09-90.314,34.58l-32.383-32.383c-2.929-2.929-7.678-2.929-10.606,0c-2.929,2.929-2.929,7.677,0,10.606
		l9.685,9.685C87.546,157.436,72,197.334,72,239.5c0,4.142,3.358,7.5,7.5,7.5h32c4.142,0,7.5-3.358,7.5-7.5
		c0-30.529,11.418-58.437,30.2-79.693l63.369,63.369C209.671,227.939,208,233.528,208,239.5c0,17.369,14.131,31.5,31.5,31.5
		s31.5-14.131,31.5-31.5c0-4.142-3.358-7.5-7.5-7.5s-7.5,3.358-7.5,7.5c0,9.098-7.402,16.5-16.5,16.5s-16.5-7.402-16.5-16.5
		s7.402-16.5,16.5-16.5c4.142,0,7.5-3.358,7.5-7.5s-3.358-7.5-7.5-7.5c-5.972,0-11.561,1.67-16.325,4.569L159.806,149.2
		c21.257-18.782,49.165-30.2,79.694-30.2c66.444,0,120.5,54.056,120.5,120.5c0,4.142,3.358,7.5,7.5,7.5h32
		c4.142,0,7.5-3.358,7.5-7.5C407,147.14,331.86,72,239.5,72z M104.205,232H87.181c1.708-35.38,15.483-68.639,39.316-94.896
		l12.084,12.084C118.652,171.435,105.944,200.279,104.205,232z"/>
</g>
<g>
</g>
<g>
</g>
<g>
</g>
<g>
</g>
<g>
</g>
<g>
</g>
<g>
</g>
<g>
</g>
<g>
</g>
<g>
</g>
<g>
</g>
<g>
</g>
<g>
</g>
<g>
</g>
<g>
</g>
</svg>
