<?xml version="1.0" encoding="iso-8859-1"?>
<!-- Generator: Adobe Illustrator 17.1.0, SVG Export Plug-In . SVG Version: 6.00 Build 0)  -->
<!DOCTYPE svg PUBLIC "-//W3C//DTD SVG 1.1//EN" "http://www.w3.org/Graphics/SVG/1.1/DTD/svg11.dtd">
<svg version="1.1" id="Capa_1" xmlns="http://www.w3.org/2000/svg" xmlns:xlink="http://www.w3.org/1999/xlink" x="0px" y="0px"
	 viewBox="0 0 511.049 511.049" style="enable-background:new 0 0 511.049 511.049;" xml:space="preserve">
<g>
	<path d="M509.721,195.919c-3.553-10.936-13.279-18.002-24.778-18.002H328.612l-48.31-148.68
		c-3.553-10.936-13.279-18.002-24.778-18.002c-11.499,0-21.224,7.066-24.777,18.002l-48.31,148.68H26.106
		c-11.499,0-21.225,7.066-24.778,18.002c-3.553,10.936,0.162,22.37,9.464,29.128l126.475,91.889l-48.309,148.68
		c-3.553,10.936,0.162,22.369,9.464,29.127c9.303,6.759,21.325,6.76,30.627,0l126.475-91.89l126.475,91.89
		c4.651,3.379,9.982,5.069,15.313,5.069s10.663-1.69,15.314-5.069c9.302-6.759,13.017-18.192,9.464-29.128l-48.309-148.68
		l126.475-91.889C509.559,218.289,513.274,206.855,509.721,195.919z M491.44,212.912l-130.883,95.093
		c-2.629,1.91-3.729,5.295-2.725,8.385l49.993,153.862c1.83,5.631-0.875,10.076-4.015,12.357s-8.204,3.479-12.994,0l-130.883-95.093
		c-1.314-0.955-2.861-1.432-4.408-1.432c-1.547,0-3.094,0.478-4.408,1.432l-130.883,95.092c-4.79,3.481-9.854,2.282-12.994,0
		s-5.845-6.726-4.015-12.357l49.993-153.862c1.004-3.09-0.096-6.476-2.725-8.385L19.609,212.912
		c-4.79-3.48-5.214-8.666-4.015-12.358c1.199-3.692,4.591-7.637,10.512-7.637h161.78c3.249,0,6.129-2.092,7.133-5.182
		l49.993-153.863c1.83-5.631,6.63-7.637,10.512-7.637c3.882,0,8.683,2.006,10.512,7.637l49.993,153.863
		c1.004,3.09,3.884,5.182,7.133,5.182h161.78c5.921,0,9.313,3.945,10.512,7.637C496.654,204.247,496.229,209.432,491.44,212.912z"/>
	<path d="M175.078,403.208l-40.172,29.187c-3.351,2.435-4.094,7.125-1.659,10.476c1.467,2.02,3.754,3.092,6.074,3.092
		c1.528,0,3.071-0.466,4.402-1.433l40.172-29.187c3.351-2.435,4.094-7.125,1.659-10.476
		C183.12,401.517,178.43,400.774,175.078,403.208z"/>
	<path d="M439.149,211.35l-54.861,39.858c-3.351,2.435-4.094,7.125-1.66,10.476c1.468,2.02,3.755,3.092,6.074,3.092
		c1.528,0,3.071-0.466,4.402-1.433l54.861-39.859c3.351-2.435,4.094-7.125,1.66-10.476C447.19,209.658,442.5,208.915,439.149,211.35
		z"/>
	<path d="M268.008,94.953c-1.28-3.94-5.511-6.098-9.451-4.815c-3.939,1.28-6.095,5.511-4.815,9.451l26.665,82.066
		c1.03,3.17,3.97,5.185,7.131,5.185c0.768,0,1.549-0.119,2.319-0.369c3.939-1.28,6.095-5.511,4.815-9.451L268.008,94.953z"/>
</g>
<g>
</g>
<g>
</g>
<g>
</g>
<g>
</g>
<g>
</g>
<g>
</g>
<g>
</g>
<g>
</g>
<g>
</g>
<g>
</g>
<g>
</g>
<g>
</g>
<g>
</g>
<g>
</g>
<g>
</g>
</svg>
