<?xml version="1.0" encoding="iso-8859-1"?>
<!-- Generator: Adobe Illustrator 17.1.0, SVG Export Plug-In . SVG Version: 6.00 Build 0)  -->
<!DOCTYPE svg PUBLIC "-//W3C//DTD SVG 1.1//EN" "http://www.w3.org/Graphics/SVG/1.1/DTD/svg11.dtd">
<svg version="1.1" id="Capa_1" xmlns="http://www.w3.org/2000/svg" xmlns:xlink="http://www.w3.org/1999/xlink" x="0px" y="0px"
	 viewBox="0 0 511 511" style="enable-background:new 0 0 511 511;" xml:space="preserve">
<g>
	<path d="M462.538,80.462C459.067,53.172,435.717,32,407.5,32h-352C24.897,32,0,56.897,0,87.5v288
		c0,28.217,21.173,51.566,48.462,55.038C51.933,457.828,75.283,479,103.5,479h352c30.603,0,55.5-24.897,55.5-55.5v-288
		C511,107.283,489.827,83.934,462.538,80.462z M15,375.5v-288C15,65.168,33.168,47,55.5,47h352c19.768,0,36.264,14.241,39.792,33
		H103.5c-22.206,0-41.398,13.114-50.263,32H39.5c-4.142,0-7.5,3.357-7.5,7.5s3.358,7.5,7.5,7.5h9.151
		c-0.428,2.772-0.651,5.61-0.651,8.5v279.792C29.241,411.764,15,395.269,15,375.5z M496,423.5c0,22.332-18.168,40.5-40.5,40.5h-352
		C81.168,464,63,445.832,63,423.5v-288C63,113.168,81.168,95,103.5,95h352c22.332,0,40.5,18.168,40.5,40.5V423.5z"/>
	<path d="M471.5,160h-384c-4.142,0-7.5,3.357-7.5,7.5s3.358,7.5,7.5,7.5h384c4.142,0,7.5-3.357,7.5-7.5S475.642,160,471.5,160z"/>
	<path d="M103.5,135c1.98,0,3.91-0.8,5.3-2.2c1.4-1.39,2.2-3.32,2.2-5.3c0-1.98-0.8-3.91-2.2-5.3c-1.39-1.4-3.33-2.2-5.3-2.2
		c-1.97,0-3.91,0.8-5.3,2.2c-1.4,1.39-2.2,3.329-2.2,5.3c0,1.97,0.8,3.91,2.2,5.3C99.59,134.2,101.52,135,103.5,135z"/>
	<path d="M167.5,135c1.98,0,3.91-0.8,5.3-2.2c1.4-1.39,2.2-3.32,2.2-5.3c0-1.98-0.8-3.91-2.2-5.3c-1.39-1.4-3.33-2.2-5.3-2.2
		c-1.97,0-3.91,0.8-5.3,2.2c-1.4,1.39-2.2,3.319-2.2,5.3c0,1.979,0.8,3.91,2.2,5.3C163.59,134.2,165.52,135,167.5,135z"/>
	<path d="M135.5,135c1.98,0,3.91-0.8,5.3-2.2c1.4-1.39,2.2-3.33,2.2-5.3c0-1.98-0.8-3.91-2.2-5.3c-1.39-1.4-3.33-2.2-5.3-2.2
		c-1.97,0-3.91,0.8-5.3,2.2c-1.4,1.39-2.2,3.319-2.2,5.3c0,1.97,0.8,3.91,2.2,5.3C131.59,134.2,133.52,135,135.5,135z"/>
</g>
<g>
</g>
<g>
</g>
<g>
</g>
<g>
</g>
<g>
</g>
<g>
</g>
<g>
</g>
<g>
</g>
<g>
</g>
<g>
</g>
<g>
</g>
<g>
</g>
<g>
</g>
<g>
</g>
<g>
</g>
</svg>
