<?xml version="1.0" encoding="iso-8859-1"?>
<!-- Generator: Adobe Illustrator 17.1.0, SVG Export Plug-In . SVG Version: 6.00 Build 0)  -->
<!DOCTYPE svg PUBLIC "-//W3C//DTD SVG 1.1//EN" "http://www.w3.org/Graphics/SVG/1.1/DTD/svg11.dtd">
<svg version="1.1" id="Capa_1" xmlns="http://www.w3.org/2000/svg" xmlns:xlink="http://www.w3.org/1999/xlink" x="0px" y="0px"
	 viewBox="0 0 511 511" style="enable-background:new 0 0 511 511;" xml:space="preserve">
<g>
	<path d="M369.941,219.025c-12.88-15.153-38.55-27.024-58.439-27.024H199.499c-19.889,0-45.559,11.871-58.439,27.024L46.51,330.262
		C33.888,345.112,24,372.012,24,391.501v32c0,21.78,17.72,39.5,39.5,39.5h384c21.78,0,39.5-17.72,39.5-39.5v-32
		c0-19.489-9.888-46.389-22.51-61.239L369.941,219.025z M472,423.501c0,13.51-10.991,24.5-24.5,24.5h-384
		c-13.509,0-24.5-10.99-24.5-24.5v-32c0-15.852,8.673-39.446,18.939-51.524l94.55-111.236c10.016-11.784,31.544-21.739,47.01-21.739
		h112.003c15.466,0,36.994,9.955,47.01,21.739l94.548,111.236C463.327,352.055,472,375.649,472,391.501V423.501z"/>
	<path d="M255.5,240.001c-48.248,0-87.5,39.252-87.5,87.5s39.252,87.5,87.5,87.5s87.5-39.252,87.5-87.5
		S303.748,240.001,255.5,240.001z M255.5,400.001c-39.977,0-72.5-32.523-72.5-72.5s32.523-72.5,72.5-72.5s72.5,32.523,72.5,72.5
		S295.477,400.001,255.5,400.001z"/>
	<path d="M479.872,82.731c-64.811-23.803-142.425-35.79-224.475-34.659C175.044,49.179,97.494,62.646,31.053,87.049
		C13.957,93.536,0.026,113.699,0,132.008v43.493c0,12.958,10.542,23.5,23.5,23.5h104c12.958,0,23.5-10.542,23.5-23.5v-16
		c0-12.93-10.496-23.454-23.415-23.5L127,135.989v-10.044c76.542-11.724,180.125-11.737,257-0.036v10.092h-0.5
		c-12.958,0-23.5,10.542-23.5,23.5v16c0,12.958,10.542,23.5,23.5,23.5h104c12.958,0,23.5-10.542,23.5-23.5v-47.794
		C510.97,109.406,497.039,89.243,479.872,82.731z M127.343,150.999c0.052,0.001,0.104,0.002,0.157,0.002c4.687,0,8.5,3.813,8.5,8.5
		v16c0,4.687-3.813,8.5-8.5,8.5h-104c-4.687,0-8.5-3.813-8.5-8.5v-32.5h97v0.332c0,4.081,3.263,7.413,7.343,7.498L127.343,150.999z
		 M119.081,112.013c-3.947,0.218-7.081,3.487-7.081,7.488v8.5H15.352c1.85-11.165,10.876-23.078,20.948-26.9
		c63.867-23.456,141.751-36.962,219.304-38.029c80.233-1.094,155.989,10.563,219.023,33.713
		c11.366,4.312,21.354,18.773,21.374,30.936v8.281h-97v-16.5c0-3.674-2.662-6.808-6.288-7.401
		C312.023,98.882,199.603,98.852,119.081,112.013z M487.5,184.001h-104c-4.687,0-8.5-3.813-8.5-8.5v-16c0-4.687,3.813-8.5,8.5-8.5h8
		H496v24.5C496,180.187,492.187,184.001,487.5,184.001z"/>
	<path d="M255.5,272.001c-30.603,0-55.5,24.897-55.5,55.5s24.897,55.5,55.5,55.5s55.5-24.897,55.5-55.5
		S286.103,272.001,255.5,272.001z M255.5,368.001c-22.332,0-40.5-18.168-40.5-40.5s18.168-40.5,40.5-40.5s40.5,18.168,40.5,40.5
		S277.832,368.001,255.5,368.001z"/>
</g>
<g>
</g>
<g>
</g>
<g>
</g>
<g>
</g>
<g>
</g>
<g>
</g>
<g>
</g>
<g>
</g>
<g>
</g>
<g>
</g>
<g>
</g>
<g>
</g>
<g>
</g>
<g>
</g>
<g>
</g>
</svg>
