<?xml version="1.0" encoding="iso-8859-1"?>
<!-- Generator: Adobe Illustrator 17.1.0, SVG Export Plug-In . SVG Version: 6.00 Build 0)  -->
<!DOCTYPE svg PUBLIC "-//W3C//DTD SVG 1.1//EN" "http://www.w3.org/Graphics/SVG/1.1/DTD/svg11.dtd">
<svg version="1.1" id="Capa_1" xmlns="http://www.w3.org/2000/svg" xmlns:xlink="http://www.w3.org/1999/xlink" x="0px" y="0px"
	 viewBox="0 0 511 511" style="enable-background:new 0 0 511 511;" xml:space="preserve">
<g>
	<path d="M430.509,96.491C385.535,51.517,326.299,25.995,263,24.123V7.5c0-4.143-3.358-7.5-7.5-7.5S248,3.357,248,7.5v16.623
		c-63.299,1.872-122.535,27.394-167.509,72.368C33.745,143.237,8,205.391,8,271.5c0,4.143,3.358,7.5,7.5,7.5s7.5-3.357,7.5-7.5
		c0-22.332,18.168-40.5,40.5-40.5s40.5,18.168,40.5,40.5c0,4.143,3.358,7.5,7.5,7.5s7.5-3.357,7.5-7.5
		c0-22.332,18.168-40.5,40.5-40.5s40.5,18.168,40.5,40.5c0,4.143,3.358,7.5,7.5,7.5s7.5-3.357,7.5-7.5
		c0-22.332,18.168-40.5,40.5-40.5s40.5,18.168,40.5,40.5c0,4.143,3.358,7.5,7.5,7.5s7.5-3.357,7.5-7.5
		c0-22.332,18.168-40.5,40.5-40.5s40.5,18.168,40.5,40.5c0,4.143,3.358,7.5,7.5,7.5s7.5-3.357,7.5-7.5
		c0-22.332,18.168-40.5,40.5-40.5s40.5,18.168,40.5,40.5c0,4.143,3.358,7.5,7.5,7.5s7.5-3.357,7.5-7.5
		C503,205.391,477.255,143.237,430.509,96.491z M63.5,216c-14.121,0-27.027,5.301-36.833,14.018
		c8.294-46.315,30.458-88.948,64.431-122.92c27.823-27.822,61.459-47.712,98.166-58.563c-15.461,12.212-29.659,28.802-42.018,49.4
		c-22.688,37.813-37.082,85.661-41.661,137.43C95.398,223.519,80.312,216,63.5,216z M159.5,216
		c-14.932,0-28.502,5.933-38.488,15.559c4.839-47.533,18.301-91.249,39.096-125.905c20.165-33.609,45.276-55.41,72.348-63.32
		c-6.985,12.656-13.036,31.914-18.252,57.99c-7.373,36.865-12.077,83.446-13.633,133.897C190.411,223.037,175.764,216,159.5,216z
		 M255.5,216c-15.639,0-29.783,6.507-39.881,16.951c1.58-48.949,6.162-94.024,13.294-129.686
		c4.228-21.14,9.306-38.325,14.683-49.698C248.68,42.814,253.186,39,255.5,39s6.82,3.814,11.904,14.566
		c5.377,11.373,10.455,28.559,14.683,49.698c7.133,35.662,11.714,80.737,13.294,129.686C285.283,222.507,271.139,216,255.5,216z
		 M351.5,216c-16.264,0-30.911,7.037-41.072,18.221c-1.556-50.452-6.26-97.032-13.633-133.897
		c-5.215-26.076-11.267-45.334-18.252-57.99c27.073,7.911,52.183,29.711,72.348,63.32c20.794,34.657,34.257,78.373,39.096,125.905
		C380.002,221.933,366.432,216,351.5,216z M447.5,216c-16.812,0-31.898,7.519-42.085,19.365
		c-4.579-51.769-18.973-99.617-41.661-137.43c-12.359-20.598-26.557-37.188-42.018-49.4c36.706,10.851,70.343,30.74,98.166,58.563
		c33.972,33.972,56.137,76.604,64.431,122.92C474.527,221.301,461.621,216,447.5,216z"/>
	<path d="M255.5,248c-4.142,0-7.5,3.357-7.5,7.5v216c0,13.51-10.991,24.5-24.5,24.5S199,485.01,199,471.5c0-4.143-3.358-7.5-7.5-7.5
		s-7.5,3.357-7.5,7.5c0,21.78,17.72,39.5,39.5,39.5s39.5-17.72,39.5-39.5v-216C263,251.357,259.642,248,255.5,248z"/>
</g>
<g>
</g>
<g>
</g>
<g>
</g>
<g>
</g>
<g>
</g>
<g>
</g>
<g>
</g>
<g>
</g>
<g>
</g>
<g>
</g>
<g>
</g>
<g>
</g>
<g>
</g>
<g>
</g>
<g>
</g>
</svg>
