<?xml version="1.0" encoding="iso-8859-1"?>
<!-- Generator: Adobe Illustrator 17.1.0, SVG Export Plug-In . SVG Version: 6.00 Build 0)  -->
<!DOCTYPE svg PUBLIC "-//W3C//DTD SVG 1.1//EN" "http://www.w3.org/Graphics/SVG/1.1/DTD/svg11.dtd">
<svg version="1.1" id="Capa_1" xmlns="http://www.w3.org/2000/svg" xmlns:xlink="http://www.w3.org/1999/xlink" x="0px" y="0px"
	 viewBox="0 0 511 511" style="enable-background:new 0 0 511 511;" xml:space="preserve">
<g>
	<path d="M276.944,276.942c-2.929,2.93-2.929,7.678,0,10.607c10.671,10.671,16.548,24.859,16.548,39.951s-5.877,29.28-16.548,39.951
		l-112,112c-11.016,11.017-25.481,16.523-39.952,16.522c-14.467-0.002-28.938-5.509-39.952-16.522l-53.492-53.492
		C20.877,415.288,15,401.1,15,386.008s5.877-29.28,16.548-39.951l112-112c10.671-10.672,24.859-16.549,39.949-16.549
		c4.142,0,7.5-3.357,7.5-7.5s-3.358-7.5-7.5-7.5c-19.097,0-37.051,7.438-50.555,20.941l-112,112.001
		C7.437,348.954,0,366.91,0,386.008c0,19.099,7.437,37.054,20.942,50.559l53.492,53.492c13.939,13.938,32.249,20.907,50.558,20.907
		s36.619-6.969,50.558-20.907l112-112c13.505-13.505,20.942-31.461,20.942-50.559c0-19.099-7.437-37.054-20.942-50.559
		C284.622,274.014,279.873,274.014,276.944,276.942z"/>
	<path d="M490.058,74.434l-53.492-53.492c-27.878-27.877-73.238-27.877-101.116,0l-112,112
		c-13.505,13.505-20.942,31.461-20.942,50.559c0,19.099,7.437,37.054,20.941,50.558l2.726,2.727
		c2.928,2.93,7.677,2.929,10.606,0.001c2.929-2.929,2.93-7.678,0.001-10.606l-2.727-2.728
		c-10.671-10.671-16.548-24.859-16.548-39.951s5.877-29.28,16.548-39.951l112-112c22.03-22.031,57.875-22.029,79.903,0
		l53.492,53.492C490.123,95.712,496,109.901,496,124.992s-5.877,29.28-16.548,39.951l-112,112
		c-10.672,10.672-24.858,16.549-39.949,16.549c-0.002,0-0.004,0-0.004,0c-4.142,0-7.5,3.357-7.5,7.5c0,4.142,3.357,7.5,7.5,7.5
		c0.002,0,0.002,0,0.004,0c19.096,0,37.051-7.438,50.555-20.941l112-112C503.563,162.046,511,144.09,511,124.992
		C511,105.894,503.563,87.939,490.058,74.434z"/>
	<path d="M146.197,364.804c1.464,1.464,3.384,2.196,5.303,2.196s3.839-0.732,5.303-2.196l208-208c2.929-2.93,2.929-7.678,0-10.607
		c-2.929-2.928-7.678-2.928-10.606,0l-208,208C143.268,357.126,143.268,361.874,146.197,364.804z"/>
	<path d="M162.197,172.804c1.464,1.464,3.384,2.196,5.303,2.196s3.839-0.732,5.303-2.196c2.929-2.93,2.929-7.678,0-10.607l-56-56
		c-2.929-2.928-7.678-2.928-10.606,0c-2.929,2.93-2.929,7.678,0,10.607L162.197,172.804z"/>
	<path d="M103.5,191h40c4.142,0,7.5-3.357,7.5-7.5s-3.358-7.5-7.5-7.5h-40c-4.142,0-7.5,3.357-7.5,7.5S99.358,191,103.5,191z"/>
	<path d="M183.5,151c4.142,0,7.5-3.357,7.5-7.5v-40c0-4.143-3.358-7.5-7.5-7.5s-7.5,3.357-7.5,7.5v40
		C176,147.643,179.358,151,183.5,151z"/>
	<path d="M348.803,338.197c-2.929-2.928-7.678-2.928-10.606,0c-2.929,2.93-2.929,7.678,0,10.607l56,56
		c1.464,1.464,3.384,2.196,5.303,2.196s3.839-0.732,5.303-2.196c2.929-2.93,2.929-7.678,0-10.607L348.803,338.197z"/>
	<path d="M407.5,320h-40c-4.142,0-7.5,3.357-7.5,7.5s3.358,7.5,7.5,7.5h40c4.142,0,7.5-3.357,7.5-7.5S411.642,320,407.5,320z"/>
	<path d="M327.5,360c-4.142,0-7.5,3.357-7.5,7.5v40c0,4.143,3.358,7.5,7.5,7.5s7.5-3.357,7.5-7.5v-40
		C335,363.358,331.642,360,327.5,360z"/>
</g>
<g>
</g>
<g>
</g>
<g>
</g>
<g>
</g>
<g>
</g>
<g>
</g>
<g>
</g>
<g>
</g>
<g>
</g>
<g>
</g>
<g>
</g>
<g>
</g>
<g>
</g>
<g>
</g>
<g>
</g>
</svg>
