<?xml version="1.0" encoding="iso-8859-1"?>
<!-- Generator: Adobe Illustrator 17.1.0, SVG Export Plug-In . SVG Version: 6.00 Build 0)  -->
<!DOCTYPE svg PUBLIC "-//W3C//DTD SVG 1.1//EN" "http://www.w3.org/Graphics/SVG/1.1/DTD/svg11.dtd">
<svg version="1.1" id="Capa_1" xmlns="http://www.w3.org/2000/svg" xmlns:xlink="http://www.w3.org/1999/xlink" x="0px" y="0px"
	 viewBox="0 0 511 511" style="enable-background:new 0 0 511 511;" xml:space="preserve">
<g>
	<path d="M499.292,303.018l-67.449-67.448c-7.46-7.461-17.379-11.57-27.931-11.57H295.5c-4.142,0-7.5,3.357-7.5,7.5
		s3.358,7.5,7.5,7.5h108.412c6.544,0,12.697,2.549,17.324,7.177L471.059,296H364.891c-14.758,0-27.651,10.242-30.656,24.354
		C326.382,357.233,293.27,384,255.5,384s-70.882-26.767-78.734-63.646C173.761,306.242,160.868,296,146.109,296H39.94l49.824-49.824
		c4.626-4.627,10.779-7.176,17.324-7.176H215.5c4.142,0,7.5-3.357,7.5-7.5s-3.358-7.5-7.5-7.5H107.088
		c-10.552,0-20.471,4.109-27.931,11.569l-67.45,67.449C4.573,308.798,0,317.623,0,327.5v112C0,456.869,14.131,471,31.5,471h448
		c17.369,0,31.5-14.131,31.5-31.5v-112C511,317.623,506.427,308.798,499.292,303.018z M496,439.5c0,9.099-7.402,16.5-16.5,16.5h-448
		c-9.098,0-16.5-7.401-16.5-16.5v-112c0-3.824,1.32-7.34,3.511-10.141c0.216-0.173,0.426-0.356,0.625-0.556l2.5-2.5
		C24.392,312.239,27.8,311,31.5,311h114.609c7.723,0,14.446,5.248,15.985,12.478c4.485,21.065,16.182,40.223,32.937,53.943
		C212.024,391.336,233.499,399,255.5,399s43.476-7.664,60.469-21.579c16.754-13.721,28.452-32.878,32.937-53.942
		c1.54-7.23,8.263-12.479,15.985-12.479H479.5c3.7,0,7.108,1.239,9.863,3.304l2.5,2.5c0.2,0.2,0.41,0.383,0.625,0.556
		C494.68,320.16,496,323.676,496,327.5V439.5z"/>
	<path d="M159.5,151c1.919,0,3.839-0.732,5.303-2.196L248,65.607V303.5c0,4.143,3.358,7.5,7.5,7.5s7.5-3.357,7.5-7.5V65.607
		l83.197,83.197c1.464,1.464,3.384,2.196,5.303,2.196s3.839-0.732,5.303-2.196c2.929-2.93,2.929-7.678,0-10.607l-96-96
		c-0.011-0.011-0.024-0.021-0.035-0.032c-0.164-0.162-0.335-0.318-0.514-0.465c-0.086-0.071-0.177-0.132-0.266-0.199
		c-0.107-0.08-0.212-0.163-0.323-0.238c-0.104-0.069-0.212-0.13-0.318-0.193c-0.104-0.062-0.206-0.127-0.313-0.185
		c-0.106-0.057-0.215-0.104-0.323-0.155c-0.114-0.054-0.227-0.111-0.344-0.159c-0.103-0.042-0.208-0.077-0.312-0.114
		c-0.127-0.046-0.252-0.094-0.381-0.133c-0.101-0.031-0.204-0.053-0.307-0.079c-0.135-0.035-0.268-0.072-0.406-0.099
		c-0.112-0.022-0.224-0.034-0.336-0.051c-0.13-0.02-0.258-0.043-0.39-0.056c-0.185-0.018-0.371-0.024-0.557-0.028
		C255.618,40.008,255.56,40,255.5,40s-0.118,0.008-0.178,0.009c-0.186,0.004-0.372,0.01-0.557,0.028
		c-0.132,0.013-0.26,0.037-0.39,0.056c-0.112,0.017-0.224,0.029-0.336,0.051c-0.138,0.027-0.271,0.065-0.406,0.099
		c-0.102,0.026-0.205,0.048-0.306,0.079c-0.13,0.039-0.255,0.087-0.381,0.133c-0.104,0.038-0.209,0.072-0.312,0.114
		c-0.117,0.048-0.23,0.105-0.344,0.159c-0.108,0.051-0.217,0.099-0.323,0.155c-0.107,0.057-0.21,0.123-0.314,0.185
		c-0.106,0.063-0.213,0.123-0.317,0.192c-0.112,0.075-0.218,0.158-0.325,0.239c-0.088,0.066-0.179,0.127-0.265,0.198
		c-0.179,0.147-0.35,0.302-0.514,0.465c-0.011,0.011-0.024,0.021-0.035,0.032l-96,96c-2.929,2.93-2.929,7.678,0,10.607
		C155.661,150.268,157.581,151,159.5,151z"/>
</g>
<g>
</g>
<g>
</g>
<g>
</g>
<g>
</g>
<g>
</g>
<g>
</g>
<g>
</g>
<g>
</g>
<g>
</g>
<g>
</g>
<g>
</g>
<g>
</g>
<g>
</g>
<g>
</g>
<g>
</g>
</svg>
