<?xml version="1.0" encoding="iso-8859-1"?>
<!-- Generator: Adobe Illustrator 17.1.0, SVG Export Plug-In . SVG Version: 6.00 Build 0)  -->
<!DOCTYPE svg PUBLIC "-//W3C//DTD SVG 1.1//EN" "http://www.w3.org/Graphics/SVG/1.1/DTD/svg11.dtd">
<svg version="1.1" id="Capa_1" xmlns="http://www.w3.org/2000/svg" xmlns:xlink="http://www.w3.org/1999/xlink" x="0px" y="0px"
	 viewBox="0 0 511 511" style="enable-background:new 0 0 511 511;" xml:space="preserve">
<g>
	<path d="M71.5,128C54.131,128,40,142.131,40,159.5S54.131,191,71.5,191s31.5-14.131,31.5-31.5S88.869,128,71.5,128z M71.5,176
		c-9.098,0-16.5-7.402-16.5-16.5S62.402,143,71.5,143S88,150.402,88,159.5S80.598,176,71.5,176z"/>
	<path d="M479.5,144h-19.411c-0.982,0-1.957,0.071-2.923,0.192c-0.536-0.122-1.092-0.192-1.666-0.192
		c-2.068,0-3.941,0.837-5.297,2.191c-0.879,0.408-1.74,0.862-2.569,1.38L399,177.968V127.5c0-21.78-17.72-39.5-39.5-39.5h-320
		C17.72,88,0,105.72,0,127.5v256C0,405.28,17.72,423,39.5,423h320c21.78,0,39.5-17.72,39.5-39.5v-50.468l48.635,30.396
		c0.828,0.518,1.688,0.972,2.567,1.379c1.357,1.354,3.229,2.192,5.298,2.192c0.573,0,1.129-0.07,1.666-0.192
		c0.966,0.121,1.942,0.192,2.923,0.192H479.5c17.369,0,31.5-14.131,31.5-31.5v-160C511,158.131,496.869,144,479.5,144z M384,383.5
		c0,13.51-10.991,24.5-24.5,24.5h-320C25.991,408,15,397.01,15,383.5v-256c0-13.51,10.991-24.5,24.5-24.5h320
		c13.509,0,24.5,10.99,24.5,24.5V383.5z M399,315.343V195.657l49-30.626v180.937L399,315.343z M496,335.5
		c0,9.098-7.402,16.5-16.5,16.5H463V159h16.5c9.098,0,16.5,7.402,16.5,16.5V335.5z"/>
</g>
<g>
</g>
<g>
</g>
<g>
</g>
<g>
</g>
<g>
</g>
<g>
</g>
<g>
</g>
<g>
</g>
<g>
</g>
<g>
</g>
<g>
</g>
<g>
</g>
<g>
</g>
<g>
</g>
<g>
</g>
</svg>
