<?xml version="1.0" encoding="iso-8859-1"?>
<!-- Generator: Adobe Illustrator 17.1.0, SVG Export Plug-In . SVG Version: 6.00 Build 0)  -->
<!DOCTYPE svg PUBLIC "-//W3C//DTD SVG 1.1//EN" "http://www.w3.org/Graphics/SVG/1.1/DTD/svg11.dtd">
<svg version="1.1" id="Capa_1" xmlns="http://www.w3.org/2000/svg" xmlns:xlink="http://www.w3.org/1999/xlink" x="0px" y="0px"
	 viewBox="0 0 478.863 478.863" style="enable-background:new 0 0 478.863 478.863;" xml:space="preserve">
<g>
	<path d="M239.431,335.931c-26.191,0-47.5,21.309-47.5,47.5s21.309,47.5,47.5,47.5s47.5-21.309,47.5-47.5
		S265.623,335.931,239.431,335.931z M239.431,415.931c-17.92,0-32.5-14.579-32.5-32.5s14.58-32.5,32.5-32.5s32.5,14.579,32.5,32.5
		S257.352,415.931,239.431,415.931z"/>
	<path d="M137.962,281.961c-2.929,2.93-2.929,7.678,0,10.607c2.928,2.927,7.677,2.929,10.606,0
		c50.103-50.102,131.624-50.102,181.727,0c1.464,1.464,3.384,2.196,5.303,2.196s3.839-0.732,5.303-2.196
		c2.929-2.93,2.929-7.678,0-10.607C284.951,226.011,193.912,226.011,137.962,281.961z"/>
	<path d="M239.431,143.931c-63.973,0-124.117,24.912-169.352,70.147c-2.929,2.93-2.929,7.678,0,10.607
		c2.929,2.928,7.678,2.928,10.606,0c42.402-42.403,98.779-65.755,158.746-65.755s116.343,23.352,158.746,65.755
		c1.464,1.464,3.384,2.196,5.303,2.196s3.839-0.732,5.303-2.196c2.929-2.93,2.929-7.678,0-10.607
		C363.548,168.843,303.404,143.931,239.431,143.931z"/>
	<path d="M476.666,146.197C413.298,82.83,329.047,47.931,239.431,47.931S65.565,82.83,2.197,146.197
		c-2.929,2.93-2.929,7.678,0,10.607c2.929,2.928,7.678,2.928,10.606,0c60.535-60.535,141.02-93.873,226.628-93.873
		s166.093,33.338,226.628,93.873c1.464,1.464,3.384,2.196,5.303,2.196s3.839-0.732,5.303-2.196
		C479.595,153.875,479.595,149.127,476.666,146.197z"/>
</g>
<g>
</g>
<g>
</g>
<g>
</g>
<g>
</g>
<g>
</g>
<g>
</g>
<g>
</g>
<g>
</g>
<g>
</g>
<g>
</g>
<g>
</g>
<g>
</g>
<g>
</g>
<g>
</g>
<g>
</g>
</svg>
