<?xml version="1.0" encoding="iso-8859-1"?>
<!-- Generator: Adobe Illustrator 17.1.0, SVG Export Plug-In . SVG Version: 6.00 Build 0)  -->
<!DOCTYPE svg PUBLIC "-//W3C//DTD SVG 1.1//EN" "http://www.w3.org/Graphics/SVG/1.1/DTD/svg11.dtd">
<svg version="1.1" id="Capa_1" xmlns="http://www.w3.org/2000/svg" xmlns:xlink="http://www.w3.org/1999/xlink" x="0px" y="0px"
	 viewBox="0 0 509.06 509.06" style="enable-background:new 0 0 509.06 509.06;" xml:space="preserve">
<g>
	<path d="M430.53,0h-352c-21.78,0-39.5,17.72-39.5,39.5v352c0,21.78,17.72,39.5,39.5,39.5h84.894l68.833,68.832
		c5.949,5.95,13.86,9.228,22.274,9.228s16.325-3.277,22.274-9.227L345.636,431h84.894c21.78,0,39.5-17.72,39.5-39.5v-352
		C470.03,17.72,452.31,0,430.53,0z M455.03,391.5c0,13.51-10.991,24.5-24.5,24.5h-88c-1.989,0-3.897,0.79-5.303,2.196l-71.029,71.03
		c-3.117,3.116-7.26,4.833-11.667,4.833s-8.551-1.717-11.667-4.834l-71.029-71.029c-1.406-1.406-3.314-2.196-5.303-2.196h-88
		c-13.509,0-24.5-10.99-24.5-24.5v-352c0-13.51,10.991-24.5,24.5-24.5h352c13.509,0,24.5,10.99,24.5,24.5V391.5z"/>
	<path d="M381.975,265.372c1.04-2.095,3.044-6.138,5.039-10.206c1.446-2.948,2.887-5.907,3.955-8.149
		c2.245-4.715,3.372-7.081,1.58-10.514c-1.11-2.126-3.173-3.596-5.544-3.95c-21.587-3.226-30.393-17.823-30.393-50.387v-26.274
		c0-56.292-45.797-102.089-102.089-102.089S152.434,99.6,152.434,155.892v26.274c0,32.563-8.806,47.161-30.378,50.385
		c-2.378,0.351-4.448,1.822-5.561,3.953c-1.792,3.435-0.664,5.801,1.584,10.516c1.069,2.243,2.512,5.202,3.96,8.149
		c1.997,4.066,4.003,8.108,5.045,10.204c-10.009,8.793-16.054,21.607-16.054,35.651V351.5c0,12.958,10.542,23.5,23.5,23.5h240
		c12.958,0,23.5-10.542,23.5-23.5v-50.477C398.03,286.979,391.984,274.165,381.975,265.372z M133.85,245.179
		c29.873-9.627,33.584-40.042,33.584-63.013v-26.274c0-48.021,39.068-87.089,87.089-87.089s87.089,39.068,87.089,87.089v26.274
		c0,22.969,3.711,53.382,33.589,63.013c-1.724,3.54-3.862,7.882-5.992,12.175c-1.518-0.645-3.076-1.226-4.682-1.721l-23.434-7.227
		c-6.995-2.156-14.428,0.875-17.919,6.963l-15.011-3.752c-0.601-0.15-1.188-0.367-1.726-0.636l-0.171-0.086
		c-2.613-1.307-4.236-3.934-4.236-6.855v-4.54c0-0.094-0.011-0.186-0.014-0.279c19.418-14.508,32.012-37.668,32.014-63.717
		c0.001-0.502-0.048-1.006-0.151-1.506c-0.025-0.125-0.062-0.244-0.093-0.366c-0.029-0.114-0.053-0.228-0.088-0.342
		c-0.15-0.489-0.35-0.955-0.592-1.396l-26.51-48.457c-1.969-3.598-6.465-4.947-10.089-3.028
		c-0.597,0.315-60.296,31.577-113.944,31.59c-0.011,0-0.022-0.002-0.033-0.002c-4.142,0-7.5,3.357-7.5,7.5V175.5
		c0,26.05,12.595,49.213,32.014,63.721c-0.003,0.093-0.014,0.185-0.014,0.279v4.518c0,2.922-1.624,5.55-4.22,6.848l-0.173,0.086
		c-0.553,0.276-1.14,0.494-1.743,0.645l-15.02,3.755c-3.496-6.076-10.924-9.098-17.907-6.944l-23.434,7.227
		c-1.606,0.495-3.165,1.076-4.683,1.722C137.717,253.062,135.576,248.719,133.85,245.179z M190.03,166.812
		c44.826-2.069,90.169-21.823,106.873-29.839l22.08,40.36C318.007,212.052,289.481,240,254.53,240c-35.565,0-64.5-28.935-64.5-64.5
		V166.812z M209.501,264.29c6.556-3.278,10.993-9.371,12.191-16.418c10.018,4.563,21.13,7.128,32.837,7.128
		c11.706,0,22.817-2.563,32.834-7.126c1.193,7.056,5.63,13.155,12.178,16.429l0.173,0.087c1.535,0.767,3.155,1.366,4.813,1.78
		l11.873,2.968C303.404,290.399,279.914,304,254.53,304c-25.392,0-48.888-13.609-61.882-34.881l11.889-2.972
		c1.666-0.418,3.285-1.017,4.794-1.772L209.501,264.29z M383.03,351.5c0,4.687-3.813,8.5-8.5,8.5h-240c-4.687,0-8.5-3.813-8.5-8.5
		v-50.477c0-14.348,9.212-26.829,22.923-31.057l23.434-7.227c0.063-0.02,0.124-0.027,0.179-0.027c0.171,0,0.295,0.074,0.318,0.103
		c6.271,16.352,17.183,30.322,31.556,40.401C219.164,313.542,236.485,319,254.53,319s35.366-5.458,50.09-15.783
		c14.373-10.079,25.285-24.05,31.554-40.4c0.033-0.038,0.238-0.156,0.499-0.076l23.434,7.227
		c13.711,4.228,22.923,16.709,22.923,31.057V351.5z"/>
</g>
<g>
</g>
<g>
</g>
<g>
</g>
<g>
</g>
<g>
</g>
<g>
</g>
<g>
</g>
<g>
</g>
<g>
</g>
<g>
</g>
<g>
</g>
<g>
</g>
<g>
</g>
<g>
</g>
<g>
</g>
</svg>
