<?xml version="1.0" encoding="iso-8859-1"?>
<!-- Generator: Adobe Illustrator 17.1.0, SVG Export Plug-In . SVG Version: 6.00 Build 0)  -->
<!DOCTYPE svg PUBLIC "-//W3C//DTD SVG 1.1//EN" "http://www.w3.org/Graphics/SVG/1.1/DTD/svg11.dtd">
<svg version="1.1" id="Capa_1" xmlns="http://www.w3.org/2000/svg" xmlns:xlink="http://www.w3.org/1999/xlink" x="0px" y="0px"
	 viewBox="0 0 479 479" style="enable-background:new 0 0 479 479;" xml:space="preserve">
<path d="M408.852,70.148C363.616,24.913,303.473,0,239.5,0S115.384,24.913,70.148,70.148C24.913,115.384,0,175.527,0,239.5
	s24.913,124.116,70.148,169.352C115.384,454.087,175.527,479,239.5,479s124.116-24.913,169.352-70.148
	C454.087,363.616,479,303.473,479,239.5S454.087,115.384,408.852,70.148z M429.004,360h-37.707
	c14.552-34.079,22.708-72.694,23.609-113h48.957C462.538,287.627,450.471,326.387,429.004,360z M15.137,247h48.957
	c0.901,40.306,9.057,78.921,23.609,113H49.996C28.529,326.387,16.462,287.627,15.137,247z M49.996,119h37.707
	c-14.552,34.079-22.708,72.694-23.609,113H15.137C16.462,191.373,28.529,152.613,49.996,119z M318.959,232
	c-0.392-40.358-3.94-79.007-10.273-113h66.179c15.005,32.862,24.057,71.526,25.036,113H318.959z M175.041,232
	c0.417-42.638,4.37-80.908,10.565-113h107.788c6.195,32.092,10.148,70.362,10.565,113H175.041z M303.959,247
	c-0.417,42.638-4.37,80.908-10.565,113H185.606c-6.195-32.092-10.148-70.362-10.565-113H303.959z M305.642,104
	c-2.391-10.861-5.084-21.157-8.068-30.771c-7.213-23.241-15.656-41.15-25.075-53.448c38.467,11.29,71.907,41.903,94.88,84.219
	H305.642z M290.232,104H188.768c12.714-55.53,32.354-89,50.732-89S277.518,48.47,290.232,104z M181.425,73.229
	c-2.984,9.615-5.677,19.911-8.068,30.771H111.62c22.973-42.316,56.414-72.93,94.88-84.219
	C197.081,32.079,188.638,49.987,181.425,73.229z M170.314,119c-6.333,33.993-9.881,72.642-10.273,113H79.099
	c0.979-41.474,10.031-80.138,25.036-113H170.314z M79.099,247h80.942c0.392,40.358,3.94,79.007,10.273,113h-66.179
	C89.13,327.138,80.078,288.474,79.099,247z M173.358,375c2.391,10.861,5.084,21.157,8.068,30.771
	c7.213,23.241,15.656,41.15,25.075,53.448c-38.467-11.29-71.907-41.903-94.88-84.219H173.358z M188.768,375h101.464
	c-12.714,55.53-32.354,89-50.732,89S201.482,430.53,188.768,375z M297.575,405.771c2.984-9.615,5.677-19.911,8.068-30.771h61.737
	c-22.973,42.316-56.414,72.93-94.88,84.219C281.919,446.921,290.362,429.013,297.575,405.771z M308.686,360
	c6.333-33.993,9.881-72.642,10.273-113h80.942c-0.979,41.474-10.031,80.138-25.036,113H308.686z M414.906,232
	c-0.901-40.306-9.057-78.921-23.609-113h37.707c21.466,33.613,33.533,72.373,34.858,113H414.906z M398.246,80.754
	c7.344,7.344,14.103,15.117,20.282,23.246h-34.196c-5.872-11.657-12.533-22.687-19.963-32.948
	c-10.55-14.569-22.233-27.048-34.779-37.305C354.879,44.829,378.136,60.645,398.246,80.754z M80.754,80.754
	c20.11-20.11,43.367-35.926,68.656-47.007c-12.546,10.257-24.228,22.736-34.779,37.305c-7.43,10.26-14.091,21.291-19.963,32.948
	H60.473C66.652,95.871,73.41,88.099,80.754,80.754z M80.754,398.246C73.41,390.901,66.652,383.129,60.473,375h34.196
	c5.872,11.657,12.533,22.687,19.963,32.948c10.55,14.569,22.233,27.048,34.779,37.305
	C124.121,434.171,100.864,418.355,80.754,398.246z M398.246,398.246c-20.11,20.11-43.367,35.926-68.656,47.007
	c12.546-10.257,24.228-22.736,34.779-37.305c7.43-10.26,14.091-21.291,19.963-32.948h34.196
	C412.348,383.129,405.59,390.901,398.246,398.246z"/>
<g>
</g>
<g>
</g>
<g>
</g>
<g>
</g>
<g>
</g>
<g>
</g>
<g>
</g>
<g>
</g>
<g>
</g>
<g>
</g>
<g>
</g>
<g>
</g>
<g>
</g>
<g>
</g>
<g>
</g>
</svg>
