<?xml version="1.0" encoding="iso-8859-1"?>
<!-- Generator: Adobe Illustrator 17.1.0, SVG Export Plug-In . SVG Version: 6.00 Build 0)  -->
<!DOCTYPE svg PUBLIC "-//W3C//DTD SVG 1.1//EN" "http://www.w3.org/Graphics/SVG/1.1/DTD/svg11.dtd">
<svg version="1.1" id="Capa_1" xmlns="http://www.w3.org/2000/svg" xmlns:xlink="http://www.w3.org/1999/xlink" x="0px" y="0px"
	 viewBox="0 0 510.981 510.981" style="enable-background:new 0 0 510.981 510.981;" xml:space="preserve">
<g>
	<path d="M510.981,135.228c-0.008-6.567-3.935-12.432-10.003-14.941c-6.069-2.51-12.99-1.131-17.635,3.513c0,0,0,0,0,0
		l-58.716,58.716l-75.84-20.321l-20.321-75.84l58.53-58.53c4.675-4.675,6.063-11.643,3.537-17.752
		c-2.526-6.11-8.43-10.063-15.051-10.072c-74.715,0-135.5,60.785-135.5,135.5c0,15.349,2.622,30.493,7.802,45.092L11.551,416.824
		c-15.401,15.401-15.401,40.46,0,55.861l26.745,26.745c7.701,7.701,17.816,11.551,27.931,11.551c10.115,0,20.23-3.85,27.931-11.551
		L330.39,263.198c14.599,5.18,29.743,7.802,45.092,7.802c74.715,0,135.5-60.785,135.5-135.514L510.981,135.228z M375.481,256
		c-15.087,0-29.966-2.857-44.225-8.493c-2.779-1.1-5.946-0.442-8.06,1.671L83.551,488.824c-9.553,9.553-25.096,9.553-34.648,0
		l-26.745-26.745c-9.552-9.553-9.552-25.096,0-34.648l239.646-239.646c2.114-2.114,2.771-5.28,1.671-8.06
		c-5.636-14.258-8.493-29.137-8.493-44.225c0-66.444,54.056-120.5,120.49-120.5c0.237,0,0.867,0.001,1.199,0.803
		s-0.114,1.247-0.282,1.415L314.797,78.81c-1.895,1.895-2.635,4.656-1.941,7.244l22.563,84.206c0.694,2.588,2.715,4.61,5.304,5.304
		l84.205,22.563c2.588,0.694,5.35-0.047,7.244-1.941l61.778-61.777c0.153-0.154,0.562-0.562,1.297-0.258
		c0.734,0.303,0.734,0.88,0.735,1.103l0,0.249C495.981,201.944,441.925,256,375.481,256z"/>
	<path d="M274.178,226.197l-216,216c-2.929,2.929-2.929,7.678,0,10.606c1.464,1.464,3.384,2.197,5.303,2.197
		s3.839-0.732,5.303-2.197l216-216c2.929-2.929,2.929-7.678,0-10.606C281.856,223.268,277.107,223.268,274.178,226.197z"/>
</g>
<g>
</g>
<g>
</g>
<g>
</g>
<g>
</g>
<g>
</g>
<g>
</g>
<g>
</g>
<g>
</g>
<g>
</g>
<g>
</g>
<g>
</g>
<g>
</g>
<g>
</g>
<g>
</g>
<g>
</g>
</svg>
