<?xml version="1.0" encoding="iso-8859-1"?>
<!-- Generator: Adobe Illustrator 19.0.0, SVG Export Plug-In . SVG Version: 6.00 Build 0)  -->
<svg version="1.1" id="Capa_1" xmlns="http://www.w3.org/2000/svg" xmlns:xlink="http://www.w3.org/1999/xlink" x="0px" y="0px"
	 viewBox="0 0 512 512" style="enable-background:new 0 0 512 512;" xml:space="preserve">
<g>
	<g>
		<path d="M459.005,93.464L367.682,2.224C366.257,0.8,364.324,0,362.308,0H58.371c-4.199,0-7.604,3.405-7.604,7.604v59.858
			c0,4.199,3.405,7.604,7.604,7.604c4.199,0,7.604-3.405,7.604-7.604V15.208h288.729v83.635c0,4.199,3.405,7.604,7.604,7.604h83.718
			v390.345h-50.264c-4.199,0-7.604,3.405-7.604,7.604s3.405,7.604,7.604,7.604h57.868c4.199,0,7.604-3.405,7.604-7.604V98.843
			C461.234,96.825,460.432,94.89,459.005,93.464z M369.912,91.239V25.95l65.348,65.29H369.912z"/>
	</g>
</g>
<g>
	<g>
		<path d="M360.276,496.792H65.975V102.948c0-4.2-3.405-7.604-7.604-7.604c-4.199,0-7.604,3.405-7.604,7.604v401.448
			c0,4.199,3.405,7.604,7.604,7.604h301.906c4.199,0,7.604-3.405,7.604-7.604S364.476,496.792,360.276,496.792z"/>
	</g>
</g>
<g>
	<g>
		<path d="M322.767,94.804H189.234c-4.2,0-7.604,3.405-7.604,7.604c0,4.199,3.404,7.604,7.604,7.604h133.534
			c4.2,0,7.604-3.405,7.604-7.604C330.371,98.209,326.968,94.804,322.767,94.804z"/>
	</g>
</g>
<g>
	<g>
		<path d="M412.813,167.798H99.188c-4.2,0-7.604,3.405-7.604,7.604c0,4.199,3.404,7.604,7.604,7.604h313.626
			c4.2,0,7.604-3.405,7.604-7.604C420.417,171.203,417.014,167.798,412.813,167.798z"/>
	</g>
</g>
<g>
	<g>
		<path d="M412.813,226.346H99.188c-4.2,0-7.604,3.405-7.604,7.604s3.404,7.604,7.604,7.604h313.626c4.2,0,7.604-3.405,7.604-7.604
			S417.014,226.346,412.813,226.346z"/>
	</g>
</g>
<g>
	<g>
		<path d="M412.813,284.894H99.188c-4.2,0-7.604,3.405-7.604,7.604s3.404,7.604,7.604,7.604h313.626c4.2,0,7.604-3.405,7.604-7.604
			S417.014,284.894,412.813,284.894z"/>
	</g>
</g>
<g>
	<g>
		<path d="M412.813,343.442H99.188c-4.2,0-7.604,3.405-7.604,7.604s3.404,7.604,7.604,7.604h313.626c4.2,0,7.604-3.405,7.604-7.604
			S417.014,343.442,412.813,343.442z"/>
	</g>
</g>
<g>
	<g>
		<path d="M412.813,401.989H99.188c-4.2,0-7.604,3.405-7.604,7.604c0,4.199,3.404,7.604,7.604,7.604h313.626
			c4.2,0,7.604-3.405,7.604-7.604C420.417,405.393,417.014,401.989,412.813,401.989z"/>
	</g>
</g>
<g>
</g>
<g>
</g>
<g>
</g>
<g>
</g>
<g>
</g>
<g>
</g>
<g>
</g>
<g>
</g>
<g>
</g>
<g>
</g>
<g>
</g>
<g>
</g>
<g>
</g>
<g>
</g>
<g>
</g>
</svg>
