<?xml version="1.0" encoding="iso-8859-1"?>
<!-- Generator: Adobe Illustrator 19.0.0, SVG Export Plug-In . SVG Version: 6.00 Build 0)  -->
<svg version="1.1" id="Capa_1" xmlns="http://www.w3.org/2000/svg" xmlns:xlink="http://www.w3.org/1999/xlink" x="0px" y="0px"
	 viewBox="0 0 512 512" style="enable-background:new 0 0 512 512;" xml:space="preserve">
<g>
	<g>
		<path d="M309.331,22.181H66.364C29.771,22.181,0,51.952,0,88.545v271.471c0,4.337,3.515,7.852,7.853,7.852
			c4.337,0,7.854-3.516,7.854-7.853V88.545c0-27.933,22.725-50.657,50.657-50.657h242.967c4.337,0,7.853-3.516,7.853-7.854
			C317.184,25.697,313.669,22.181,309.331,22.181z"/>
	</g>
</g>
<g>
	<g>
		<path d="M478.167,191.016c-4.337,0-7.853,3.516-7.853,7.853v242.967c0,27.933-22.725,50.657-50.657,50.657H66.364
			c-27.932,0-50.657-22.724-50.657-50.657v-41.329c0-4.337-3.515-7.853-7.854-7.853S0,396.17,0,400.507v41.329
			c0,36.593,29.771,66.364,66.364,66.364h353.292c36.593,0,66.364-29.771,66.364-66.364V198.87
			C486.02,194.533,482.504,191.016,478.167,191.016z"/>
	</g>
</g>
<g>
	<g>
		<path d="M509.731,72.137L443.693,6.099c-3.067-3.066-8.039-3.067-11.107,0c-3.066,3.066-3.066,8.039,0,11.106l52.632,52.632
			h-70.173c-115.477,0-209.425,93.948-209.425,209.424v60.539c0,4.337,3.515,7.853,7.854,7.853c4.337,0,7.853-3.516,7.853-7.853
			v-60.539c0-106.816,86.902-193.718,193.718-193.718h70.173l-53.994,53.993c-3.066,3.066-3.066,8.039,0,11.106
			c1.534,1.534,3.543,2.3,5.553,2.3c2.009,0,4.019-0.767,5.553-2.3l67.4-67.398c0.182-0.18,0.358-0.377,0.519-0.575
			C512.761,79.607,512.553,74.931,509.731,72.137z"/>
	</g>
</g>
<g>
</g>
<g>
</g>
<g>
</g>
<g>
</g>
<g>
</g>
<g>
</g>
<g>
</g>
<g>
</g>
<g>
</g>
<g>
</g>
<g>
</g>
<g>
</g>
<g>
</g>
<g>
</g>
<g>
</g>
</svg>
