<?xml version="1.0" encoding="iso-8859-1"?>
<!-- Generator: Adobe Illustrator 17.1.0, SVG Export Plug-In . SVG Version: 6.00 Build 0)  -->
<!DOCTYPE svg PUBLIC "-//W3C//DTD SVG 1.1//EN" "http://www.w3.org/Graphics/SVG/1.1/DTD/svg11.dtd">
<svg version="1.1" id="Capa_1" xmlns="http://www.w3.org/2000/svg" xmlns:xlink="http://www.w3.org/1999/xlink" x="0px" y="0px"
	 viewBox="0 0 511 511" style="enable-background:new 0 0 511 511;" xml:space="preserve">
<g>
	<path d="M407.5,216c-4.142,0-7.5,3.358-7.5,7.5v248c0,13.509-10.991,24.5-24.5,24.5h-336C25.991,496,15,485.009,15,471.5v-336
		c0-13.509,10.991-24.5,24.5-24.5h248c4.142,0,7.5-3.358,7.5-7.5s-3.358-7.5-7.5-7.5h-248C17.72,96,0,113.72,0,135.5v336
		C0,493.28,17.72,511,39.5,511h336c21.78,0,39.5-17.72,39.5-39.5v-248C415,219.358,411.642,216,407.5,216z"/>
	<path d="M501.774,43.167L467.833,9.226C461.883,3.276,453.973,0,445.559,0c-8.414,0-16.324,3.276-22.273,9.226L192.738,239.773
		c-0.859,0.859-1.497,1.914-1.858,3.074l-26.15,84.016c-1.717,5.517-0.246,11.481,3.839,15.567
		c2.958,2.957,6.899,4.544,10.943,4.544c1.542,0,3.1-0.231,4.624-0.705l84.016-26.15c1.16-0.361,2.215-0.999,3.074-1.858
		L501.774,87.715c5.95-5.95,9.226-13.86,9.226-22.273C511,57.027,507.724,49.117,501.774,43.167z M224.579,317.973l-31.552-31.552
		l10.385-33.366l54.532,54.532L224.579,317.973z M179.679,331.948c-0.122,0.038-0.288,0.09-0.502-0.124
		c-0.214-0.213-0.162-0.38-0.124-0.502l8.94-28.723l20.409,20.409L179.679,331.948z M491.167,77.108L269.923,298.353l-57.276-57.276
		L433.892,19.833c3.117-3.116,7.26-4.833,11.667-4.833c4.408,0,8.551,1.716,11.667,4.833l33.941,33.941
		c3.116,3.117,4.833,7.26,4.833,11.667C496,69.849,494.284,73.992,491.167,77.108z"/>
</g>
<g>
</g>
<g>
</g>
<g>
</g>
<g>
</g>
<g>
</g>
<g>
</g>
<g>
</g>
<g>
</g>
<g>
</g>
<g>
</g>
<g>
</g>
<g>
</g>
<g>
</g>
<g>
</g>
<g>
</g>
</svg>
